<mxfile host="app.diagrams.net" agent="Mozilla/5.0 (Macintosh; Intel Mac OS X 10_15_7) AppleWebKit/537.36 (KHTML, like Gecko) Chrome/128.0.0.0 Safari/537.36" version="24.7.14">
  <diagram name="Page-1" id="8ye7wGQD_DVzdAXPdlNs">
    <mxGraphModel dx="1114" dy="581" grid="1" gridSize="10" guides="1" tooltips="1" connect="1" arrows="1" fold="1" page="1" pageScale="1" pageWidth="850" pageHeight="1100" math="0" shadow="0">
      <root>
        <mxCell id="0" />
        <mxCell id="1" parent="0" />
        <mxCell id="16x7G8k1rGI-6FZ7YI0F-3" style="edgeStyle=orthogonalEdgeStyle;rounded=0;orthogonalLoop=1;jettySize=auto;html=1;exitX=1;exitY=0.5;exitDx=0;exitDy=0;" edge="1" parent="1" source="16x7G8k1rGI-6FZ7YI0F-1" target="16x7G8k1rGI-6FZ7YI0F-2">
          <mxGeometry relative="1" as="geometry" />
        </mxCell>
        <mxCell id="16x7G8k1rGI-6FZ7YI0F-1" value="" style="shape=image;verticalLabelPosition=bottom;labelBackgroundColor=default;verticalAlign=top;aspect=fixed;imageAspect=0;image=data:image/png,iVBORw0KGgoAAAANSUhEUgAAAqcAAAEJCAIAAAAmeRlQAAAACXBIWXMAAAsTAAALEwEAmpwYAAAgAElEQVR4nOzdaYxcV3Yg6HvufXvskfu+MLmTyV0iJVESqbWqVIvdtstG22532xjMAAPMj/k1GGD+DaYxQA/QwGCM6cZ40OOyXW5XuTaXVFpKElWiKFHc9z1J5r7Evrz13jM/IriIjMhMkiFlMvN+SAgQM+K92DLOu/eeew4cG/wrIkmSJEnSKkCX+gFIkiRJkvQNkVFfkiRJklYLGfUlSZIkabWQUV+SJEmSVgsZ9SVJkiRptZBRX5IkSZJWCxn1JUmSJGm1kFFfkiRJklYLGfUlSZIkabWQUV+SJEmSVgsZ9SVJkiRptZBRX5IkSZJWCxn1JUmSJGm1kFFfkiRJklYLGfUlSZIkabWQUV+SJEmSVgsZ9SVJkiRptZBRX5IkSZJWCxn1JUmSJGm1kFFfkiRJklYLGfUlSZIkabWQUV+SJEmSVgsZ9SVJkiRptZBRX5IkSZJWCxn1JUmSJGm1kFFfkiRJklYLGfUlSZIkabWQUV+SJEmSVgsZ9SVJkiRptZBRX5IkSZJWCxn1JUmSJGm1kFFfkiRJklYLGfUlSZIkabWQUV+SJEmSVgtlaU4LABQIk9cc0uIIRC4I4lI/DkmSpKfb0kR9AFCaIkpzbEnOLj110PO98bRwPBn4JUmSnsQSRX1dib+2o/kPX0BE+T0uLYCCP5mZ+I+/dK5Pos+X+tFIkiQ9xZYi6gMBxtS2uLW51x2b4wV7CR6D9LSgoHc3s5BBLZ1QSoiM+pIkSY9vidb1CSGIwvXH/v1PikevECGW7GFIyxkANbT+//CXakt0qR+KJEnSSrB0UZ8QQlCUXVGwkcuoL9UCIHyOgRzfS5IkNcbSRn1CEFHIpX2pPiE/G5IkSQ0j985JkiRJ0moho74kSZIkrRYy6kuSJEnSaiGjviRJkiStFjLqS5IkSdJqIaO+JEmSJK0WMupLkiRJ0moho74kSZIkrRYy6kuSJEnSaiGjviRJkiStFjLqS5IkSdJqIaO+JEmSJK0WMupLkiRJ0moho74kSZIkrRYy6kuSJEnSaiGjviRJkiStFjLqS5IkSdJqIaO+JEmSJK0WMupLkiRJ0mqhLPUDeBoAAKOgUFAVUBVglBCCQqDP0Q8w4BgIgrjUj1KSJEmSFiCj/kKAgMrU5qje16r1NmstMRoyCRBhezxdcMdS7q0ZbzIjXI8IGfglSZKkZU1G/bqAURYx9f626IubQ9sH1fY4i1igKUApIUgEYsB5yQnm8vbl8dyhs/b50SBTRC7H/SsZaIraGtM7m0Bl898SkfB8ybkxLRx5RShJ0nIho34tFEBhams8+uLm5Ft7zA091NJBoQTggRuqiNjXam3tDz+7LvveqdwHp9yb07zsym/5lYqF9KZ/ta/p+/uooc1/S0R0rk2M/+8/ta9Oohd8Mw9PkiRpfjLq1wAKM/pbm//sYOzAVrU1DhQejvd3bgqgMGDMWNvZ2pG0tvTO/t3HxSOXhevLEf+KpLTHzc09amuc6uqCN8Yg0Ne0u7fnuIz6kiQtDzLqfxUA1RRra1/znx6IPreRRa1K7h5BRIHoeLzkirJLBIKm0JBOLR1UBpQCUBoywnvWUkOjulr49KIouyjEUj8fqaEoaO0JvbsVFEponQvB+7CQaa7vKn5+hRfsb+DRSZIkLUhG/a8ARrXupqYf7o8dGKaWBpQSRPS5sD1vIlU+f8u+OhnMZIXPlYip9TRbm3uN9d1KLASaAoyysBnaPshChig6xZM3sOQs9ROSGgeA6qre36q2RAld1JZXaqjmUCeLGP5sjsipH0mSlgEZ9e8DQENG8gd7o/s3s5BemdVHLtzR2dxvT+d+e9q5PsVLTnXNHggwprbHQ9sHE9/aFdq5RkmECQA1VGOoo+lPXvQzRfvCqJznXzEAgFq60dfKQiYsYqBPCAGF6QOtSlOUjMzIT4IkScuBjPr3UFML7RyMv7FTiYUqIZ+XHPvC6NzffVw8cT1I5dHj90/ao8+9sVSQLjrXJpM/2Jv49m6lOQqMgq6Gdw1Fn9vojc7yoiMz+1YIBmpbTO9tBVWpm+fx4F2o2hJX2+OgMPQDOdyXJGnJydp89yhNkfjrO7SOJGgKQYIBd0emZ/7Lh7mPznoTaeH4D6/TY8B5vlw+f3v2Rx9l3zspSg5yAYyqTdHI/k1aZ1M1LUB6+gGlek+L1t20yIE+qZR3sgxzQxfVVUIWey9JkqSvj4xJd1BqDnWEhvur+7ARebaUffdE4bMLwnYXmJ5F9MbTcz/+pHTqBro+IYRQMPrbws+sA2WBXd3SU0Nl+po2NRmt/duaHxAAYNQY7KBhQwZ9SZKWAxn1CSGEUKCmZqzvUtsSpFJwN+Clc7dyH5/lBRv5wqn4GHBvPJV557g/U83bYvFQeNcQi1qLHxreA0Do1/OzyKlp6QEA1FBD2wZqbNNHRC6CbAEDXvOOenezvqYN5CsvSdIyINf1CakMycKG0d/GIiYAEEThBfmPznqjc4tdlUcUjlc6ft29Na31tkAl33uwTWuLB+kCEbXiQX0sbNCQDotLFH8k6Aei7AnXrx2ipDqAUSUeMoe6QHtw8gYRebFcPDcS3bW+5tSO0hS1NvSUvrhK5EsuSdJSk1GfEEIIgBK1lKYoMEaAECFE2S2dviEcb/HHQC786aw7no5wTkABStWmCGuKAKPoP8r3PaWxV7fFX9tJDbXBQ3NEYXvli7czv/rSHZ2VaYaLBxozNnWxqPXwpRgGwp1IlU+NhDb2U0t/+L5K2DDXdtCwwXNl+ZpLkrS0ZNQnhFT37LFQdfEVBQbpAs+WFjO3fw8S4frBbA59DgojANTUlYi5yL3d9z0YonU1hfcMUUtvdNQnhHNruJ8InPvxJ0GmJLeTLRI19dCmfqrXuA7DIHBuTDk3pv25nNpcY9UfVFUfaFfbYqLo4IKzPhSA0prlnwkhleoR9z6WAEABDJWFDRYyQFWAUkREP+C2x/NlrEzq1HqTgVFQGY2YLGRQTSWMEoLIhbBdXnBE2cWAP/I1CqPVw5oaNTWqqaAwQikwIEiQCyKE8AJedkXJQS9YbLPKatNLRkgjciKRIF9sn0xglCiU6hoN6dTQqKoQBkAAETHgwvNFyRVlF32OvPbrXPuwKgNW+y1GgYSL+6fiqi9p2GAhgxoaUIqEVF/Jki0KDnoBCiF3iEiLJKM+IYQQIKAp9/qpCOQlB/mj/iFhZTBdvSMlhALVtceYqAeFgabWjDFPTNUsPf7mLvvCaP7wBdkjeJHUtpixtqPmBL5wfHdkxp1IuxNz1oaeh28ACtXbk3p3k3c7teCsD9UUra/F6Gt7+FyIKGzXPnfbTxeIQFAoaKraFjM2dFlb+8z+NiUWppoq/CDIl7zJVOnUiH1h1BvPoOvfiwpACFCqMtYcNtd0mDv6zYEONRmlhkYQue26Eyn74mj57C13ZEaU3IWDGQBQIIyCQlnM0jqTWmdS62vROpNqMsrCZjX2E0Sfc9v1MwV3bM65NO6OTHtjKeH4C1xeAAFG9YFWva+tMTtiEN2xOefqRL3roeqTYhQUxuKW3teiD7bra9q0toQaC1NdIxTQD3jZ8VN55+aUe3XKGZn2p7LoBcjFgpdKwKgx1K73tNb8OPGSY18e82dyBBEoJQpTmsLGUIe1ucdY26m1xJmhIyHoel6m6FyfKJ+5ZV8c4+mi8AOCKGO/tCAZ9e8QAu/+uQJQTSUABOrkZtcHqkIoVEckSETA8THCKhJCELGhed93jwWg97Um3tpjXx73Z3NygX9hAFp7Qu9qrhl1RMnxptLBTM67nars23z47tTSjQ3dpVO3RNmd/1Q0YsTf2Nb6xwcfXixALryZ9Ni//0lw5ApyobREI89vTH57t7muu1o6+u41IiIKTH77mfLF25l3T+Q+OMMzpcobDYzSiBneuy7x5q7Q8ICajABj91cXjnAhXt/ljs9lfnM8+/ZxbyK9QHRUGYtZxpq28DNrrY29en+b1hwDXa12rwCo3KryeSaEEIEohLBdZ3S2dOxq9oNTztUpXrDrBksAaqjxN7a3/MnLVNee/E8CuUj97PDU//UOLzi1L3mBUF1R2+Phvesi+zZaG3rUljio7MF+HEgICuSCF2z75lTxyKX8JxeckWkxf/MtIERhsTe2t/zRS8wyHv69OzE3+df/knvnNCGExczQ7qH4GzvCO4bURASUr7xTIUR8cUuQLZbOjKR/9UXx86ui5D7a9KS0KsmoTwghBLFaYL+CgpIMK1HLn84uPCV7FwDoqtIcqV7CIwrXF0WbPOrfIaI3lS6fvQW62rihPoBC9d4WFrEqGxZCu9dG9m/KvX8qyBQbdY6VCYCaqj7QpjZFa9TeRxLkSt5YShQdbzLNbZdZxsO7NkBTzKFOFjaCufyC5yMEaEhnYfPBUwmh8qjaFGExyxhqT7y5M/rcJq0jCZpa83KEGlpk1zq9u0XrSKZ/edS7NQsq0/vb4m9sT7y+U+toopZes7MUNTQWNtRExBhoS/3kcPnCmCjWri2txK3QnqHoC5tCWwe0jgQLm6Aq9eau7/8nZuksahm9raHhgezHZ/MfnXVvzmLAa4dhCtTQWCxEde1xdsTcDxG5oKZer40CNVSlNRbeORg7OBzaOqAkI9TQ5t9/S01dSUTMwY7Is+tzn5zLfXzOn8gI260/YEAEwiydRR58iwkhSiKsdTRRS9MH2uJv7oju36J3NbOQAZTWuOJBpKauxMNaV3O662j23RPBbP7Rsoik1UdGfUIIIQJ5rhRkCpWxGlBgEdPc2O3cmln8ULiSvqd1NYHKCAAGPEgXgnTxkXvwIOYPnbfPjzaywg8Famitf/la5LmNVFeBUbU5mvjWbvviaJAryRSzeQAFGjL0gTYaMh7efYcoglTBn8wIx/MmUzxfYoZG6INBAlRmDLQpzRH31uwCSyoCRZ0GfQBADU1JRKxtfa1/djA8PMgi5jxrQEABLF3vbW3+w/0Ece7HnyrN4dY/Oxh/ZTuLWPN9uigAVbTOpsRrO6mlT/31O/al8ZoXr0oynPz+3tj+LexRc1AAqKbSJlVNRPSBNmOwber/ftcfm2cFpDJn8AhnqHfeO7HzoWMBAca03uamP3gu8dpOrT0J2qK+HoFRYFQzEmpzzFzfbQx1zP3TYfvcKHpBjfcaCUGCblBvCpDqmtaW0Ne2t/7ZwfhLwyxszJcYBAAMWNgMbepVm6NASfrnR4NUYTEPW1q1ZNQnpLr5yvHGUsJ2mWVU1uOjL24pHL3qLTQlexeoirmh2+hrrcQGDLg3kfamMyR41KhPgtlckCo0cn4fACikf/65saZD72kmAKAp1nB/aPeQc2NalBcqQ7SaUVBbo3p3M324EC8iBsJP5XjBRp/7k9kgVVSbY0AeivqMqW0JtTkKFJDPX/FJoO/XGSYC1bXQtv7YgS3hHWsXWRgYKKhNkfir2/2ZXGTfhui+TSxqAizighIIDRnRfRvtS6Pe6FzN2tK87HkTKUKeICBTUJPRxKs7ed6e/dHH3mhqqT6KwJja09Ty5weTb+5mYeMx6msBBSURSb65m0Wsmb95v3xutFqz60GIXr23mFBDM4Y62v7i1ei+jXT+kH//qRWmtSVa/uRlbyqT+80pmdwnzUNW6SGEEIJE2J59ZTyYzVeH5gq1tg1En9/IwuZi0vFAU7S2ePz1HWprrFrDP2+XT4/wTOkx1vWRC/QD9Br34/rC9konruc+OCVKLhECKGVRM/7qdrOSpCZLyNQBjOp9rVpHouacMHq+N5HmRQe54Hnbm0pjrYs8oKBELX2gFfQFQjUKRC+onU4CBBiLvrAltG0NNbTFTgUBAGNGb1vrv3kl9sIWFjFrzxXXvCujLBqKvTxsbOiq+VfAC3b57G1hu/gE00WgMBY24q9sj+7fxMLGYloYNxzoqtbf0vbvXk28sl2Jhx6h1cJXjgKVxpvRZzc0/+nLWm8z6LWGVUiE69e7uAGFhbcNxvZvYZEa20TnP7XWnky8sUttjwOTJUGlumTUJ4RUNkQFzpUJ+9JYZY4RKNU6k4nv7LG29ML8ufRQyQOIxN/aHX1xS3WtDtEbnyscuVRNrF0e/Jlc9r2T9rVJ4XMCBCg1N3Qnf7BPiVmLGvytSqAqxlCH2lRjSx4i8rLrjaVE2SMCedF2b8+gX2t+HgBU1VzXTc2FZsIFojdP9hxRYqGaWWDzo5ZuDnawiPmoy0ZAwRhoj7+6nZpajV2Lru9cn3QnUoTfmZlHJAKRC+QCA1794QLFfLtFQFX0npbYK9u03uavozjVfY/47s99DwaI0hROfm9P4o1dakus7huE5O5TIwLrPh0AJR5KvLSt6fvPKslw7eP4dTIYKldaEYtFrEeebACghmpt7LW29de+2pAkQoiM+vdzJ1LZj87ykoNCVPYLWcP9rX/1urm2o+ZXXgUoitoUSX7vmeY/eYnFLAKUCBS2Vzx2zbk2+cjT+18n5MK5PpV7/yTPlqplg8Nm9KUtoR2D1Hqo0KxECAEAQzW39FKzRvkdIjBIF7zpTOUbXJRc9+ZsnUldAhT0nha1NbrA9RXio2VjIVZ/FvTQ8sQi70gtw9o2oHbEH75iQC68ibRzbbIyeEXOheMFuaI3niqdG8l9fiF76FTu8Lni6ev+VKbapbperGTU2tgb2rVmkavpjwdRCMcLsiX0grtbGUFh1qaexJt7lIhVP+Sj8IMgV/ImUt7YXFAoi5qXdxUANKTH39gZ3jMEGqtxtfSoW+wW/RYriXB49xALPfJ1obR6yEvCe9Dxi0cuFj69EH15qxKzKn+64WfWdfyPv5f51dHSmZtBqiBst7oDigKoCotaek9LdP/m+Js71EppP4LC88vnb+c/Oc8LNuIyivoEkZec3KFz4b3rlUQYVAUUpjZH49/Z7dya4dcmZVrfA4BRlgiZA7V36hNEbzLtjaWq/+cH7ugML7kqYs3goTZHza29zrVpQup+KrBSzWZBSLjt8mzRm8miH7CwqbUnWdgAdaG/6GrXgKI/l+eFMqhMbYmrTVGqqfWm1kFhRlez1t3sjaUeTG4ViLZXOn3D3NBNFeaOp5zrk/bVCX80xcuu8HwiBKGUqorSHAk/szZ+YJve21qjlwEhhBAlYkVf2JR9+7hwvHsfRSTIMciXvYk01dV52hlUStlQvf7aByJ6QenczcKRS+hWl1GAUiUZiR0Y1rua71XseOiOfrpQOjOS/fC0NzJDBOrrOuIHhkPbBpVoqObrBozqHcno/i2l07f88fT9rxsSRDdY+C8NEbngJSfIlXjBJkiUeEiJh6ipzzNhQw3NXNfNYpY/l5d/zlJNMurfgwH35/Jz/3BIiYUiz28ElQGlLGRE9m0whjrK52+Vjl2zr03ydAEFUlPT2hOhHYOhnWuMwY671XMxEN5kOvVfP7Uv3F6GW+HR851rE7kPz5gbutXmKCEAuhrZu6H4xRXv9qxwA1KtEvDwFrXV+A0CKjM3dqvJSM3vWQyEfX0iSJfu/C93b83yQhkRawYnJR6yNvXl3j7Bg6DuUG8xo0BE4fPSuZHsO8dLZ24Kz1dbYonXd8QPbp9vgrpyV4HebDb9i88Ln1/x53LUUEPbB5p+8Jy5ttIOuAagwEKGMdRWPj0iyg/WqMZAFI5eRUL8yYxzeTxIFdH1ayzzUyifH/Wnsm1/+Ybe1VwzsQB0xVrbpbREebZ8345ZRC8ofHbRn80Bo3WjPhClORp/bbu1vrdeUEQuvInU7N8fsi+M3ru0YtTa0R/euYbqau10B0Th+tmPTs/+fx86VyYrf9TFE9fL52+3/dXr8Ze31X7dAKiph7b2W1t68zNfrYqBBPnCY3cU6KcLud+dLRy57E+kCSH6YHv8leHIMxvm2TEBKtM6k2pnwr058wi7jqXVREb9r8CA2xfH5v7r71jUNDf3VqrjAQW1ORrdtzG8fY2wPV52kCM1VGZq1NKpoVW26hFCCKI3Njf3tx/lPj7L62xxXmJIMBCFzy6Gdw3F39gBCgMKSiIcOzBcPHrFvT1LCAFVoZpCGK2UdyUBFz5Hz19M3bEVhhpaaEsfaLUSOxCFH5Qvj92d0keBPF3yJtPm+m7QawQe0FVzTbvSEhVOqmbSHyGECER3gVwQ4frlC7en//N7pRM3KvvCvVtz/kyORa34KzuoNl8mmp/Kpf75cOofDwfpInJBAPzxDPq84797S2uL170jBbU9CVqN8IZceLfmshOZSh4i8q+u31euIIEQQkTRKR6/Hn9jVutI1gzMAEAtXR9o8yp796snIBhw58qkOzI7z/UMi1mx14a1tsQ8y+H+XD71L18UP78iSvcqc1BTiz63UW1L1MtwFF5gXxnL/PKoe2Mag2puPAbcuTwx9w+fhDb3ae3JeidVW+PhnYPFzy4Jx/vKxVz9lY57j3YmM/tPv0v/4ihPFSvJIvalcfviKPkfWGT32rq5HRRYxFSbo4RRIjfuS7XIqP9VAnnZLR69QhBb/vygub6bRS1QKCgMFEYtnWC1xhhAjd1KKLB08kb+0ws8X16GA/0qRG8infn1l+bGbr2nBTQFFGZt7k1899n8oXNKc8QYbNc6m5REiBoa+jzIFL3xlDMy5Y2l/Nkcz5erX+6rgNIeM4c6aa3vdBTIi2X3wvi9ZXhE4XP7+kT0uY2k1vgPFKZ3t6gdTf5ktm7UJ4TwBYaBPF/OvH+ifPomz5UrIRZ97t6YLnx+ObJnHTRF6w2IkQv7ynjut2f8uTy61WXpIFPM/+5C0/eeVZuj9aIXUKrGwrTm8gEiuj6/m80AAAoFVaGGCobGQjoNGZUK9qApSiI037I9AKiK1p548JoAsbIVpfa9KFBNNTf2JL+3T22K1SzjgwKF7ea/uJT59XGeL9/99AKjWlfS2tLHarVNqhBlJ//FZefapHDu225X2fVzabxw7Gri1Z0sXPt1o4YW2jZAQwa5805Vn44z74UdInJROHY18/OjX1kdcAPnykTm7S+NvjbWVzvqV4o6sLBVLdcvSQ+RUf8hiEG2lDt0zp/OJr73bOzAsNbVdG9vG5D5VhYpaF1NSiJcGTQvW6Lslk7eyB86l/z+XqUpQghRWmLNP9wfO7BVbU8oUYtUplLv9CIiXHDbda5Nlr68mj90rnxplOftJX4O3wAgRm+L3t1ce88e5+74HM/dCyEECQm4c2GMFx0WsWocj1IWDRnr2u2Lo8SpnfRHFhwEIvqpfPHYNV60vxJI3MC5MelNZ5REpHaSLqJwffvymHtr9v6EQQxEMJMvXxk3N/WxegNlAGrpi9k7TnVFaY7o/S3Gui5joF3rTKotMRYLMVOnmgIKA02ZZ1kaGFWjIfIoGw1AVfS17S1/fsDa1Ft3oM+5c2My86uj3sjM/ResoCpaT7Pe2Vz3johBtlQ8do3n7QffGIGi7BaPXYvsXsfCdWKwqujdrUpb9MEqn/Pup0dEXnaKX1zxJtLI+Vd+4fPyyRFvbM7obak9MQNAVZUZ2jxfU9IqJ6N+behz+8qE//9+UPzyavTFzaEda9S2ODWqPcQIIQSRcCEcT7g+oVSJmKApBMBY2xn/9h7n5gzPFJfzgJgX7Oz7p0LbB1k8VClHqDRFlESIUPpAlVZgQCgwZlqb+4yBtshzGzPvHM+8fcyfydYdfq0AANRQtd4WJRGps1OfO1cnhePfv7ceEb3pjDeb0TqStY+qMmttdz50lmdKj/nAkPCi409kHi6W588VeLZcP2OAoB/40zlhf3W2mSBy4Y7Ooh+QmlsVCCGEUEWZpxpupRWQ1t8cfW5jePdao6+NxSxm6qBWloqAANy5jpw3GgHAvCl7D59X60q0/PH+0KZeWmeTOgbcTxdSPztSPnv7gYQDamn6YBs16u7QIUh4vuzWq9EZCO/2TJAp6N3NdZ4NoYZqrOt0Lk48wtYMgUGu5M/maiwECORl18/k6+WOEEIIA8IWW5JBWoVk1K8DUTieN5n25/Llc7f0/lZrY4+xvlttj1NdA0KEH/BMwb464dyYMtd1N/3+PrUtTgBYxIwd2FI8erlw+CIvLN8BMfqBc3WifPaWtbWPUFop7VkdYyHeWcJHQoBQgEoLMkaprrKIpSQjaks09ZPD7u1ZYT+Y3rUyAAUWNY3BdmrVHjYJ1/Mm0qCyr7TJAeC2502myfCa2odVmDHYpiTD3njq8aqnIUH0Al5wHs6YEwVH2G7tCj+VSQQuRNFB76ubxZEQIfzZ3AK7TOuFfApUV9WOROS5DYnXdxhDnWoiDIry2MV2HmG/PgUlGY6/sTN+cHulwUSN2yDh+VL2tyez75/iuQdbS1ND07ua5plaQCGCTDGYztWsqIhC+FO5IFUgdXZtEABQmNZVfy6h9llR2C63vZq1j9ALeMmZ58MDpEZvBUm6S0b9eQlE1/cm0v5kunj0CigMVEY1lRAi/AB9jgEnQMpnbxlrO2LNw5Xlf7Ulnvzes+7tWfvi6PKtiwlATQ1UigKhEt0rBArXD7JFUXLRDwhjLGwo8VC1YgFUk4Sb/2i/0hSd+S+/LZ+5uTLT+xlVWmN6TwutmcpHCAacNYdDz627u0BOCCFAqKUD0MqOtYfvBYxq3c1qR4Kcu/34rxvWTgfDgKNff+q4kpJSq7wMCoIFb76pKagzRAcCumIO9zX/4fPxA9tYxKrZzudrAQQ0JfrqtuY/eH6enQsoeOH4tbl/+CSYyT88XgdVURKReaYWUIggWxQ1K+oTUqnMERRs5AJYnQKXlGqJ2ntA6kJS/W55+DeIyEW1wj8uMG8iSTXJqL8IiIiECI6BIK4viFtJ4630wyUA/mQm99sz1tYBtSUKjIKmhLYPhncNubdmhT1v282lQimLh5Lf3xvZvxkUdmfPIecF275wu/jlVefGtD+XE45PVUVtieqD7aEdg9aWfiUZBgqEArX06IubRdGemsv7M9mV1+arUoj3bn3lhynxcNO3n00c2DScEpYAACAASURBVP7g+8uoUr8pDlCqxMJaR5JqilgoV/+RPf7BcL7swvpY2LR2DbT9m1dDWwdY1AL45iaWqaGZm3uavr9X60jWDfle4IzOZN4+5t6cq3lNA4wyU5/vMQsMyvN0zyMYcOF4KBBY7SAMQKjxiK2Jqoeuv7lz+X2jSE8RGfUfBSLBh9KtEIXrF49eyR86m/zuM2BoQKnSHI2+vLVw9Ip7YxrFslv8pqYW3jWU/MFerTUOjBIkwvH8mWz2vZPZd447I9PC8TAQBEVlipIevpD77en4K9sS331G626mukooKLFQZP/m8sWxzNvHeL68wkb8lS55ajJS7wZUV7XW+KMfF6ihGkPt1NKFV3/X/hJ4xGpxAKBQY31n21+8Gtm9ru7SOCIKRC5IwFEI5ILqarUb7xMAhakdieQP9ppru2it/YSEEOQiKNqZ904Uj12v1/cWAEBV5hkyIyL6dWvmV29Qr0HwnZNQVfa5kJYRGfUbw5tMp392xNrUa67rBF0FRq3NvcnvPjvz/7wXZB9cTVxiQIyBtqY/ekHva6ksN6IQ5fO3Zn/0Uf53F0TRRo73YgAiegH3uXN1YnY6a1+fbP3L161NvdRQCQW1Ndb0e3vtS6PlszdxEdXGnhoA1NSs4b7ahXif6MgEKDX62pREmOftp7eOClBQEqHEd3ZHdq2jet1sOBQYZIveZKqSIsOzJXNjT2T3OhYyHz8QAtCIEX9tW+K1HSxcd1pFlN38kQvpnx4JZnPz9DVYeBC+0C2AwvzPZTln9UqrkIz6jYEBd65OZN89rjRHtPZkpUtK7MDW4pdXiseu3qsKsuQAQGWRfRtCW/src/voB95YKv3Tz/KfVEJ+rW8oROTI8+XCZ5cIIe3/7bfNzb1AATTFWNsZfna9OzITZIvf9HP52gADFjHNgfbHaLe6iKOD2hbX17a7o3ONP/g3BRRmDfdFdq+lhlZ7j0PAedkpnriW/915+8JYkC2KsitcP/l7e0NbB1jIeMxFaQDQlcjedYm3nlESkdrbChBRiPLF23N//4k3UbsLYvWGotL1oH5bIACq1anZV7kBo6AqAPUSH6pzgctxmU9arWTUbxCBvOzmPjob3r1WbYqCykBV9N6WxHf2uLdm3fLMMhnuA6NKUyT8zDoWtQgAQRSOn/v4bP6zSzxfmn+OF7ngRbvw2SW9r03vb6UhHShlETO6b0P+0LkVFfVVxdjYqSSjTzgRXY8SD1sbewqHLiA8yWL80gEAXYk+v0nraKqbOV9ysh+fnv2bD5ybs6Lk3v38i/K8aYMLnllT9N7mlj89YA501K28G3BvNlvdqufNO/3OBa8z+V9FqVKteFNrVgYAVMZMndRvXoyIvFh+kk7EktRYsudew6DPnZHp7Ieng3QBBRIgoKuR5zdGnl0H8xZJ/SaBwsyhDq2rCRRKCEEu3LG5zDvHg7n6s6D3E8hLTvHoZfvS6N0MPmNdp7G2Y0naon9NqKmFtw/Vy95/cixkmBu6WdxaTN2bZQgYqB1xc3MfDdVeAUFE+/LY7H/5yLk2fX/If+ITg9oeb/7hC9aGHmrUXs4niEGulPr5kfzhi8Je4NTCD/xMYb4WwIwqiTAYdT4JACxisliobiUDJMiFN5Mh/GldypFWnqfyS2eZQkQvKH5xpfDZpcrWGqCgJiPRFzfrvc2VKLvkQFP0vjYWra6GCscvn7vl3phCb9HfSlx4U5nS6ZvV+vMA1NLNtV11dy49hZS2mLG2c763rNL5VMz7M8+OaoXpva31ytE/BShVWxNqaxxqFsZBxIDb1yfdkWn0a+1TeLzPCQUWNaMvbIy9vI2FjHoXZEGulPv0fOZfjgVzhQXn1YXjeeOpeeYeAIDFLK0rWfPDAIxq3U1KU3ie/rzoB87ItFhxm1ykp5ec4W8oRG88nf7l5+bmXmOgDTQFNMXa2h99cUtq6lPOnSVf3qOaonU13e0SJoq2c3GMlxwUjzDpKkquc2lMuD67e8zuJqCA5CmdsP4qAL2vRetqqjsQF8iLNi86dVstAIDKlES4bhc7RtWWmNbX4lyd5E9hfUOgVAmbStisO8YV3E/lhe09+LkCoKpS+1phgVMCqMxc35X83rN6T0vt8wrEICidGZn924/c69O4iOG1KHvujWnheDRk1D4mgBILm2s6vJuzD75TQEBjxkCb2hStd3wUIsiWvBuzZNl25ZBWHxn1G0y4XunMrey7x5v+aL/WniCEqC3RxFt7yqdGyuduCbdO9fVvCqhMSYbvJqnxkuONpx71WgS9wJvO3CvHy5gSq1MZ7akDALpi9LepybrFW4Tnp985NvM3H9RrRgAK1Xqbe/7nH1obemq/LABUU63NvcUvriznAo51AQGV3a30UPMWVK2sat13IUiBWprWlWSG9qjjfVCo1pls/ctXrU199SZIhB/Y1yZmf/SRc2kc+XyF7u9CP3Bvz7oTc0o8RGitL0MgLGaFn1tfPHnjwYp4lLJYKPL8RhY26x7fC8pXxnjBluv60vIho36jCRS2m/vtmdDwgNoUAYWBohgD7Ynv7PZncu7YXMNGw493GIB7fYEJIRzFY4w1ETHgX5kXpXRl1AkDCkosZKxpp4ZWt9u6F5Qu3PSnMrxce2sGUMpt15tIGWs7ac1YQggwag51KrGQP5l5KudH7mzsrBX4ARRWadsYpIrVGREg1NCszb3W1n7QlEf7sAAozdHEW3siO9fWmz4hiEGumPvkjDedZckwmzfKCs8XJa/SOtKbzJTO3jL625RYuOaNmalFdq0r7rqSy5Z4wakuWFBQ4lb0wBZrQy/UbEVICCEkKJRLJ64L21smybySRFZp1KcACqusy+K8za8eD/rcuT6Z/915a0sfS4SBUWpq0Ze2ls/d4iWHPMpc+nxnCYTwffT5o43UkdzfAR1UykLz1iariQLVtXsrnZVCJU9l7HoIo0pLRO9qBqV2AiYiCtuzz40KL6j3yiNyUXLtG5ORfRtJnZAAjGldTWpH3L48/vSFBCTC9YXrsZBR48MDBBi11nWF9qwpHrkiSh4hSBSm97Ykf3+fuaZzgf2QDxwQgJpa+Jm1iW/vZhFzvn59lJobevSOpgXrDHpTmdQ/HfYnM8iFKLmFT89Hn12vREM133FQmN7T0vyHLwRFu3TsRiWdhVpa9MVNzX/wghIL1d1KwIU7Ols+M7KSm1RJT6HVGPWpplrDfUSgMzLDs19DZzxE4fj5wxdDO9fEDm4DUwNGtc5ky799LbJv4yOtoNc5PiGI3nSmePRq6eR14XiLD7gYcJ4t3X3KNGxqvS2POjkPmqp1NcGdmmjIRZAprow5TFCZMdShtsbrrlgHwptM1Szqfg8SDHj53C1esJlVpxorA7Upqnc2AaOI/Om6ZEIhgmwhyBaVeBhorRAOoPe3dv73382sOe5cn0LOte7m6EtbwsOD1NDmOXKlz9P97XBAZebGrqYf7DX65y2fAKAkI7HnNy/mIti+NJb74LQ/kyNckECUTo0Ujl3R+1rvrEo89JgUFto22Ps//TD76Tn3yiQRaG7tie7bqLbVzcdEIXihXDh62b4yufLqVUtPtVUX9UFV1I5E6797TYlaxWPXcofOOtemeMFu1BC8CjFI5QufX448t6lSrBQ0xVzbafS3EtKQUTEK1w/tWDPxH37mXB5ffLqA8AJv6t6SPAsZ1qYeJR4O5vKLv/phEdPa1HN3rhVd3705Q4RYAcN9UBVjsF2JherdQPiBfW1cOAvN2SJ6Y2l3ck5rq121FwCYpev9rTRkPH31jLnwJtLOzWmts4nVicRUU42BjtY/eyXIFRFRiYWYZVC9zrrJ/VR6L5QCoZoSPbDV2txLtQW+rIBS0Ba1JwI05W5nP0TkOTt/6Hx4xxpjsKNefV+qq1pXU/P391UusqmlU12texWCiH5QOnczf+i8yNuIsjaftIysuqhPQ3r89R2RZ9bTkG6s77a29qV//nn2/VMNX3sDVVHb4qBQcqc3FqgM1IbVeqOWHto+kPj27pmZnJjOLvLBoxe4t2Z50VFbsdLL3Nrca67rKhZsrLNK/QBQqN7VZA33V6M+Ii/Y9pXF5k8tawDM0sz1XdSsOx4VZde5PClcf4EniyRI5Z2rE+Fta2pnBQIAY3pfK4tZoug8XaV5kYsgUyoevxba3MfMWpP8pDpEVhJhJVF7vbweUChhd48IRGF6fyuz6mbMPSlE9ILyuduZd4+3/uuDkAjX3mIAAApjYXOe3L17hwy4P5Wd+8dPnMsTshyvtNw8nduFHw8Qwmho20DirT00pAOjlWIpWndzg4uxVNY1N/cm3txZtytJA84CVNdiB4bDu9Z8JUFvXugHztUJbypdmZAHCmprPPG9Z7SO5KLm+SmweDj60mZjqKNawx+xfO6We2N6yTclPjmgwCKWOdQ5T36Wnym447NkEV/lQbZsX56Y72qSgtbZpHUv7pVfZtAL8h+dLV8aRT5/75mH7zlPN7lq/9wHL45hgUL3Ty6Yy6d/9nn67aP+XP6JLl6xupw//be/LXx2RSzuSlqSvkmraKwPjKmtsdjBYb23BRglACiEe3OmdOI6un4DZ6eBsUrPPfVOGRbkIkgVeMFezB7iBQ5OKQ3paksMGKukC0Rf3FK+MOqNzs230nwHCuFPZ0snb4S29rOIWRnuR/ZtdK5N8p/ZQbqAvO4aM6hMiYdir++Ivbq9cjWDXPBsqXDkkj+TfcLntRyAqujr2pVkFOrs1EeB/nTWG0shX/jTgl7g3p7103mqN9WbClbiYWtzX/nEyFN3xYRceBOZ7HunjL42vbtlUdediIgYpAu8aOs9rbVXxAGoocFCk/kNhwH3J3OzPzqEvki8sUttidFHr6eJQqDr2zemUr84kn33pCg6cqAvLUOrKeprSmjHmvCeddXCXgJF2c1+cMq+PL6YeLno0xBQWWj7YHjnmmomlxC8UE7/8ovy+VtPns0LjOq9rS3/9lUlHgJGqaWHdw2Fdw9lp7O8fsC+R6Bw/cJnlyLPbQwN9wNjoDCtLZ78wV7CRebXx4J0AX1+p4N35b8AAISB2hKLHdzW8qcv670tlS9EdLzS2ZvFY9fq7WF7uoCphrYNVvoI1/g1Igbcm0wHc4XFZIFgwL3xlD+Z0Vri9aI+C5vmui4wVeLM1851ORIoSm7h04tKU6Tlj1/UWhMLBH5EDHiQKaZ/8yUvu+1/8TrQWmVuAailz5/x97VAggH3Rmbnfvy7IFtMfvdZo6cFNBUoELLQTEOlAbcQvOyUL43O/ejjwtGrwdx8hX4laQmtlqhf6TqT/N4zek91Pl+4vn1hNPvuCV4oN/RETGmOJr//rNZTDY287BWPXk3946fedKYBOYMASjykr2mPv7qdRUxCiNqRSH5/b/HoVTGeWtTlC6J9cTT1z4f1rialKQIKIxSM/ra2/+YNa0tf+uefly+M8qKNASeVbgKqwkKGPtie/O4z0YPDaqJa5Ae58CbT6Z8e9kZnV8D0PiFEbY1aG3rqZmUjEbbrjs3yorOoDQsCea5sj0yZ67vrhTGqK8aadq0j4RScpzHT25/NpX78qT+bbfnhi+b6HmpoNV49JASR265zcyr108O5D8/qPS3ij14CTXk44wEAWMR6qMExYqUEcqPUORKi8EZTc3/3SeGLy00/2Bfdt1FtiVFDm2/vACL6nJcdZ2Qq+9Hp3HunvfE0ek/bNZy0mqyWqE9DRvT5TaEda+BODpo3kU7982dBqtDIgT4hLGrFDm4L7RisZoQJ9MbnMv/ypTeZeqQtdvMIBGbfOW4OdZibeoFSqqnWxp74a9tT//xZkF5U4ztRcgq/u5BZ05n49m6lJQqUgqaweDh2cNhY01E6PeLenPbn8sLxqKYozVFjoM3aOqD3tbCwSSgQROQimM1l3jlR+OKKeOrGqXVQU/emMsXj12tu20OBPFeyz94WzmLXg0TRKR69ojXHlGjtTQEoRJApAlPuHg+F4Nli6dQIs+o0thFoX5moefmIXuCMTBWPX6sZpVAgL9r+bL7WQUmQKZbO3lSiVu0n4gXO1UlhPzijgz7n+XLu/TP+VC52YKu1qVdtjbGwWWk+i0KgF/Ci7U1ny5dHC4cvlk7cEGUPGMt/dkFtiT+8koKcu+MpvLcnBSs9rIuWtWAO/+K5t2d5wa5xqYoE/YDnuX1ubGryncJnF62t/ebaLq09wSIGNTRQKsn/iFwIPxC2G2SK7njKvjhaOnnduTrF8/b99TBqW+jVxoA7Y7M8b9f4mCFBn3u3Z4vHrtW/PEV/cr7+wtIqtzqiPoAx1JF4aw+LWcBoZT998fPLxS+voBc0MvOcgjHUkfj2biUerp7IC4rHrjX2ROgH5dMjhSOX9P42FjIIBWrpsdd3lC/cLnx+ZVGTz1z4M7m5f/yUxUPx13cyUyMAwCiEDHNTj7G+S5QcUXYx4JVFBBoy7m+ugwKDbDH9q6OZX34RpAtPfer+He716an/89eg1qkchwT9IJjLLyaVr4KXvfxH58qnb9Xdu4GEcOHPZO9WccCA2xfHxv7XfyT1ytEgEWVX1OpqI2xv7h8+Sf/qy3qPn3Dhp2pGfXSuTo79bz8BtW7rAWF7fqpQ465c8Fy5+Pll+8Ko1tOkD7ZrHUlmGsAoBpWQn3GuT3kTGZErV9a5/cnMxP/xC6jZt77yIt+9NEGCtpf68eHsL483MOcRXd+frb9VFRFd35/IZKeyhcOXlOao1p3UOpJKIsxMo1LgC/0gKNp+uuDdnvWnskG6+AjXvgu+2kjQ9f2abTARhe1nf3288OmluusOSIJU4XFqbkqrw8qP+sAoi4Xir++wNvdWc+t87lyfzH102p/NN7C2DDDKImbswLC5vqt6ooC7N6fzH50NMqUGnggFBtlS7qOz1raB8I5B0FRQmLm2M3Zg2Lk2FaQWtfMeA+7emp75z++Jsht/dZuSiNxNoQJKWdikIaNSbxUAHkii5pli+qefzf34E2/q6awmWwcvOcL2Krssa/2+unz7CEdEwQu2KLkLLHgLcW/cKZCXXXFrtv5d7vT0e/gXXPgzOTKXn/fx137DuO2J0QVOOs9nGDkG2TIvOc61KVBY9TODiAKRc/Q54eLuSye8wBtP13mdH3yRUYhgNh9AoZFp/GJxSwYCedERtudPZspshFB6/yQQCoEcMeCEc+SPtgCx8Ks9zydNiCBVCDKVWb06VaMf8fFIq8oqiPqGFtoxGHluA60k8SEK2819fKZ8YbSxlTJBVawtfZFn19GQTihU0p1yH54pXxxFv6HX3YgYcOfKeO69k+ZQB4szYJSFjcje9cUvr+Z/dwEfmomtQSB6gXNzevo/veuNzsVe2WasaWchgygMKBD61TiPd4sOVM8vPL8yGdDI57XkBDZ43zxWXqxHPGa1wvFjnA6RI3m8ZyDEE9WSQSSI6Ap0F/FRf6QnWKkhvVQEouCNT7l4kle78oKsrL886Zu00vfrAyjxUOKNnXpPy91NdO6t2exvTgbpGtOVT3IiFrPib+7S+lorq5XCD+yrE9l3TwS15kWfHC/YuQ/PlM/drl5SUKr1tMS/tYtFzcXvOELX98ZTs39/aPI//jL1k8Pli6M8X0afI+dEVFvIYyDQD4Tn3x18sKgV279F76uz+UqSJElarlb4WJ+aWmj7YOT5jfRObpQ/m0v95LB3e7axAwgWNiLPro++sImFDEIIQeJPZtI/P+LenHnyPfo1oUB/Np/62RGtq8lY015pUhJ5dn1k34bcB6d40Vn0gVDYbunUDefaRPoXX+h9Leb6bq2nWYmHQWUkEH664I3O8Vwx+QfPWxt7CQWqMn1tR+I7u72pjDee+jqenSRJkvR1WNFRH0DvaUn+YK/SHAXGqrl1R6/kD18UjtfIzWYAem9L8vf2qu3xSrKP8ILSqRv5Txt9ovshou+Xjl8rHLmktieYpVcKoCZ/sNe+OmFfHK1sI14UgcL2Kulazo2pwuFLlfpooDAMOPoBBoJqCouF9O5mGjaBUWZqsYPDpVM3MjNZDBZKWpYkSZKWh5U7QwtATS326nBouB8YJUCQC38yk//orDeRakDju/tPpKvRFzdb2wcrie7IhT+byx86509nvqaBfkUleyv/6YW7UxegMGtzX+zFLbReq7f5CaxstQrSBX86642n/OlskC7yfNlPFQpHLtmXJ6orspSq7YnYazvUlhiwBuZZSZIkSV+jFRv1qaGFtg3EXh5mMYsAVPY75T4+Wzx1A4NGNjalmmJt7o3u38JMvZot6Hj5j8+WTo9g8DU3pEGCXJTPjGQ/OCXKbiXlnkXM6EubQ1v763UPe9xzoXNjOvP2l/zO/itgzNraFzswzELm110mXZIkSWqIFRr1KSiJUPz1Hfpge6WTCgaBN5XJ/uZ4MJtv5JQ7BRYxYweHjTXtoDICBP3AvT2befu4P7PYPnhPBDHIlrLvHHduTAkvqNQDNoY6Y69sYxGjsW1deKGcP3SudOyqsD1CCKGgNkXjb+zQepvnK14mSZIkLRsrM+oDY8b67uiBYRY2Kv/Ci07uw9P2xdHFt6JfDKoq5qae6MFhdqfMVpAp5d47aV8cFU4jTzQP9AN3bC7zL1/e3SzAImbswFZjqLOxwRh97k1l0r/8whudrVzQUEOzhvsj+zezSO0qY5IkSdKyshKjPoDWmUx+d4/WFq8UyMOAl05cz7x9XDj1254+Fq27qVLbv1qxK+Cl0yPZ35yozrd/M5CgF+Q/OVc8Wi2OC4yq7Ymm39+ndSQafKqAF49fzx06J8ouEYIAUMtIfGuXNdxXSZ6QJEmSlrMVF/UpUF2NHdga3rMOVKXSDdafyWXfO+mOTC+mQepiAYCmhveuj+7fQnWNUKi00819eMYdm/uG64ogF954KvfhGW88hYEgAFRTw3s3RF7YRI06HeQej0CeK+UPnXWuTwqfEyDAqNHflnzrmUoPwIadSJIkSfoarLSvaVAVY0177JVtaku0MvQUtlc8eqV08oawGznQB4Vp3U3xg9tYLFQJq+gFxS+vlk+PLEE3GkTh+eUzNwufXRCORwghAGpLNPbSVr2vtcHz/Fy4IzPZ907xgl3JVQRDs4YHQrvXLkGDVEmSJOlRrKyoD0RJhONv7jLWdd3tButPZzPvHPOnMo2MxAAsasZf226s7wKlWtvfm8pk3j7mTaaXZvM6En8ul3n7uDeRxkpan8LMTT2xV7ax8CNU61sMni/nPjpTPnOz0oQNKKitscRbe7TOJjnclyRJWs5W1Hc0KIox1BF7dZsStSpxTthe4fNLxaN30s4bdSKVGYPt8Td2Kolw5US8ZOc/OV88ekWUF1ED/+shHN++cDvzzrFqYT4AJRmJv7FT625q7HBfeIFzYyrzq6P+dHWfArX0yLPrwnvXP2adAEmSJOkbsYKiPoASD8Ve3qr3tVYbmyI6V8Yzbx8XJaeRZXkIUZLh2MFhc21ndU88onN5PPOrL3jBXspOIYjC8XMfnC6dHkEuCBKqKcaa9vgr21jUbOyJMOCFI5fyhy9iwCv5g0oiEn9tuzHUIaO+JEnSsrVSoj4A1dXI8xuj+zdTTSEAGHB/Lp/5zQnnyngDu9wSAFBYeM+62CvbqHEniS9dzP72tHN9ailDPiGkktY3Opv74JQ/kcaAV16W2Cvbw7vXgsIaGY8Rg3w598Ep+8pEtZM3BXNTT+Jbu1nUlPP8kiRJy9MK+XYGRtW2eOKtPVpXUyW2oeuXTo/kPz0f5MqNTOKjoMRDiW/t0rqaq0l8flA+f7v4+WVedJa+HD0iL7nFL68Uj19Dz688Yr2vJf76DqUpAg1M5keCrm9fGc8fOitKTiWtj0WsyP5N5vouIov2SJIkLUsrJeorTO9pNoc6qV4tQxvkyvmPzvhTGdLQuX3CqNbbovW0gFYNbKLs5j8+6002NFvwSSD607ncx2d5wSGIBAg1NHN9l97bUl34aByeK+cPnffGU4iCEAKUKomwtbH37rsgSZIkLSsrJOojonB94Xh3J/MBADS10uq+wWdyPPTu7c0DRpVEGLRl1L0QNKbEQ6DQ6rQHInKOnDf8sgQUymIW6CpUC/QgcsFtt8FXWpIkSVKDrJCoTwLu3p4tn71Z3a1OCI2a0Rc2ae3xxq4xI0d3LGVfHEU3qPwLGFpk/ya9r2WZLGYDo1p3c/SlLTRkEHJnKv7SuDeWJkFDGwACKIlw7OWtWlu8utgRCH8qUz57s7rSL0mSJC0zyyJQPTkUGKQK6V9/6d6aqawxU0ML7RgMPbuehoxGZrEJIYpO9jcn3JvTleE+qIqxtjOybwMNN7jbzeOgQC098sz60PBAdfoB0b09m33/VJDKNzSrkYDGjA3dkf2bqXWn2UG+nPvtaXdkBht7eSFJkiQ1yAqJ+gQRuSifuZX/8Awv2sgFUMriocSbu6xNPY0tEY9ClC+NZd4+HmSKyAVQoKYee2lraPsgVZWl3bcGrFKZZ5jFQ0ABheAlJ/veyfKpG8hFI7MagWrtycSbu7S2OCiUIKIfFL+8mvvwjHD9RnY1lCTpsQGAQqmuUkOjugqqQhq+6PmVczGonKv2jwraEn9DSoSQZbQa/aQQg2wpd+hs+PmN1uZe0CkANTd2J956xr48zvPlBm6r45li7uMz4T1D4T3rwNKBgj7Y3vT7zznXJv3pDAZLFPMoZWEj+f295obuynIDeoF9eTz3/qkgU2zkiQDAUOMHh8N71lZmFDDg3lQm85vj7q0ZuagvSUsPgABQQ1U74lp7khoaBjzIFr2JFM+WMWjkGKB6QgZqZ0Lvba2bzCvQTxfsC7fRl3OBS2kFRX1CCAr39mzuvRN6dxNtiREAaurhvetDO9cUjlzCxlXNQ4HeeDrzznF9oF3vaSYA1NRCe4Yi+zbk3j8V5EqNOtEjoYYa2j4YfWETtXRCCEESpArZd094E+lGzu2TavGflz5JDQAAIABJREFU2Bs71ZZo5V9EySkcvlg6daOxjYwlSXo8oDKlORJ/c0f84Dajr42aOgbcT+WKJ6+nf/GFffa2cIPGBn7Q1MgLG9r+/FW1NV7zBuj6hSOXbv8vf899u4HnlR7VCov6hBfs/KHzod1ro89tpJYOjKrNkcSbu9zbs+6NxlXRQRS2Wzxyufz8JrUlSg0NGFWiocS3djlXJ/i5W998uR6gVO9uSnxntxIPVdr+CqdSseACLze0kACAkgzHX9thrGkHtTrQd8dS2XdPBKnCypjbB1VRmsMsYjUqUQNd35/OCkeufTwNAEChhFJQKKgKqAwUBhQIpUChMoYGAEIJAUq4IIiISAQi5xhw4froBhhw5GKp3m5gVG2Pt/zrl+Kv7dTa4qCplWl1JRHW2pJGf9vUX79TOjUiSo0sHw4UwFBZ2FRioZo3EI5HQwZZHlnPq9nKivqEoB84I1PZXx8zBtuNgXYChFpG5PkNxZPXvfEUNq7tHvrcm0hn3ztpbenT+loAgOpqaOea8N719rVJLLvf6PZ9ADDU8DPrw3s3gKERQhDRn87m3j/p3phC3sj5NGDUXNcVe217takPEmF7hU8vlI5fv7uB4mlHDbXpD54P71zTmP4FiP5cYfo/vetcn0Qh5zb/f/beK0qy40wTiz8irktvynfZ9qbaO3TDEiABAiA5xJBjNKvdnTOj0dmzz9KrdPQqvejoaLVHmh3NrsbsDGcIkkMSIAAChGk0THtX7buqy7v0mddH/Hq42a4qM6uqu6pRaNR3CsBBVd4b9968EX/87vtWNwCooardTTwR5skwS0d5MsxiYaarVFOpplCFEwrAGaEAACgkSkTPl44rKrZfqLgTWW80403l3cm8rDhEIkp8zGQeoLDIoU3pN47yROT+3iLgjCcjkV3r0z866k0X7OsTj/Oq1rBK8KRZfYIEfVn67Ep4/0atqynYpPOmeOI7eytnb9lXx1As2/RDKSunbxY+ONf0J8+DphIAFtbjz/eXjl+xrow8ztwVcKr3tsRe6FeaYkCBIKLrlz4dKH1+FYUgy7jgUGBRI/pcv9bdXFU1RLSujObfOyMs54lxZEFhxvr2yN6Ny8Vr5I5lll35cA0rAeBMX9/W8T/+MIiKV51+CFx8AhAwUwC586/q5EJEQohEIiUKKUzbm8lbV8dKJ65VTt/yp4rSfYxhHiA0pEWf2srj4Zp0nKDyUH+P1tfiDE4Fgh1r+EbhibP6hBBEv2Dm3zkdObhJ622hmgIMQv3dyVcPTI1n5bIK5Pi5cv7dM6HdfaEdPdRQCaP6xvbU7x2amsr52fJjamCjwEJ6/KU9of7ewEpJx3MGp7K/+ELkK8s5pQOxg6Pboke3Uk0JxA78bCn36xP2raknxuQTUq1GppqyXORLoCpV13BZTreGJQEAKBBGiZToLzT3KdCwrve1a+2ph87v8HhYbUkYG9dFD2+1ro/m3z9vnh10x7LS8cjjyP0BS4W19hQwWnujSSlPRJT2JOGMCCRrZv8bhiczxYKuZ9+YKPz2rChVy0ZYPJx4ZW9oe1eQil4uSMezbkzk3zvrZ0tBEI8lIvGX9oT3baD6Y2KlBYXpWzqS3zvIU5HgNyJfyb97xr41uby1dcCpui6d/tFRrbv5rpBx+cT10qeXRdFcxoHWsIZHBRACQCgApVRXeHvC2N6ptCUXDLdAQOtJ4ZFKOiiAwlnE0HtbEy/u7fwffr/t3303tKeXanwZW4gbja8poNZX2wICnFKNL6cwxxq+PngSfX1CCCGiWCl8cD5yYBOPhUDlQEFpSSS/u98dzTgjs/fSbDAnWIdL3fgGPPyxI1uVljhwDhSUpljy9YP2zUlxY+Ix5POU5kTy9YNKWwIoECTo+9bV0cLvLojl61kIwGLh+As7Q/09VQ9Yojedz//mtDedXy0aBGtYAwBQAIVRQ2XpiLG1M7S1U9/UobYmZ//+48xPjy9jjm9Rl0MpT0QSL+5W2pMT/+HX5pkhudwTcz78vCmKFkGsbfgRpe36Qf/emqP/zcMTa/XR9a1rY/n3z6rdTWpbMmhdjRzdWj5908+WUUiqKzSss6hBDRUURpCg60vLEUVLmI60XfT8xUSt0RPuyGz+g3PGti7eFANGQeXhvRsiBze541m5otnu4Kb2b4ge2Uo1lQCgkN5sqfC7C/atCfSWjxYXCDCmb2iLf3sPjehAKUEUllM5fbN88rq017r11vBVgwLVFRYNsWRYSUXVnqbQti5jY4fSkuDJCDU0gshioa+gtAIIcMYiocjuDa1//vLkf3zLPDu0Eu3y94AoS1Zl4Hbk4GZqqPO1SNATzu2ZKofmmtH/5uHJtfoS0XQKH5wPbe9Ovn4QFAYK17pbEi/vdUZmqcqNHV3Gti6to4knQmCoRKI0HT9bdoZnzEvD5oUhZ3BSmIuo+UeUjlf69HJ4V2/ye4eAqsCZ0hqPv7CzcuqGfXNy5cq2gVG1IxX/1q67tXXEF+XPrxSPXVrenhwCQENa7Jntof5uGtDyIDq3p3O/OeXNFp+ojP5KYO3xrDyAMWNHd/K7+/TNHXpPq5KKVsW37shCfcXMMBSopkQPbvGm8u5Y1p8urCiXl6w4xY8uRY9sC2/rDpp67gIl+sVK7r3TzuCTVYuzhkXjibX6AbzJXO6tk5EDm5TWBCgMGI0c3ETDOk9FlHSMhnVQWLUHlxAiEftkaFdv7Pl+dyxTOn658P45++akdP0F+ea8qXzuVydCu/r03lZQOVAa2tEd/84ed+J3omytyOwCoJoSe3p7OGgwA4Ke8KYL2V984U3klnkozkK7eqPPbr8bURAVu/DuGfPS8Dd64VjsrX+DH9HjAigsvLMv/cMjVFeBM2CUEFihJDr6IogFoi9RSmAUOKcaB4U3avUEoJoS2bshvH998YNL6NsrcnHBFUq0r01M/eU7TX/0bLi/l0UMoIBI0PXc8Uz21yfyb58RhbVanG8onnCrL23PGhgpfnIp+ep+Fg8TIDwRiR7ZercVZw6AEKITFtGVlri+vi3U35N587PyiWuiaDb2FaTjmZeGCx+c5z86qjTFCRCejCZe3lc5dbNydlBay5/JA4WpXenk9w/xdIwAEERRtgq/O28ODC93ER9TmuPp33tK722taus5nnl+KP/bcyL/DV04UEpZtkXZxkXFadGbzqPrLS9D4hruB1Cghspj4RVXwEIiytbszz+1royKTIUIBJ3ztoSxeV1oa5fW2VRtka+VSgBGlZZEdP+myhc3ZGUFrT5BlBW79MmAO5qJHtkS6u/h0bD0ffv2VPnzq+bFYZEpP34msTWsEjzhVp8g+vly7u1Txvau8M7ealnvgi4AAHDGU9HYszv09W3T/98H+d+c8qYLjQ6RKMp2/u1T4Z09PB0FoKBxva81+fpBdyLnDE0t4z0F4MlI8rWD+qYOqlW19ayro7m3Toqyvbz+Nwvr0aPbIke30ogR/MabzuffOumOzi5n6cDXCIjo+oXjl4ofXkTXX4zhl6bjjMyurbNPBNAvmrm3TtkDY9LxCAZVLxQUrq1vSXx3X/OPn+HpGNQpIKCGGtrVy+Ihb6a4ojWwKCSarjUwal8bB16t50chiS9QrvXof6PxpFt9QgghaLtzaeOQoOdL2/Vmi/50QVQcUChPx5SWOIuGglwAAQIKUzvTLf/6W8Bo9uefN5bwQV/aQ1PFTy8b27pYIgyUgsqjT28rn7zuTmTQFcs2yQGAs9DOntgLO6muBCF3P1cuHrtsXx8ny0sSQEHraU6+tp8nwgH/j3R9c2Ck9NmVJ4aJ7yGAQtiDU4UPL6LlLsqDlxK95XsB1vDVAgmK+wh3kSAK9KV9fTJbOs7j4dTrh+qx0gKlanOC6iqBx5L5QURP3MdSsOQepTU8eXjSrT6lLGrEnu/X+1rvr+vxi6YzOFU6NlA5N+jnyuh4hFEWDWm9LfHn+43+HiUdAU0NtvBqV3P69494U/nix5dExao7baSUFad0bCB6eEvkqS2gAjCqtCVjz+0on77pjWeXi7QHGFVa4vHnd+q9rcAYQYK+sC4Nlz655BfM5TQtFFhYjxzeEurvrVLuS/Rz5cJvz7rj2W+u54qEBCSspiMXU+85B9V28AZUGUiQoKzP4h6cAaB+RToSJIvSVgZCgAID4Owuy2z1FAHTnC+C7PWiAkiNbw1x7iVRCKYYcAqUBomq4N7RF+iJBW4hIMwPWPNU3lBQGwghwBmonDD6wDkRl6GiHgkhiI7nTeaLH16I7NvQwOrTkA6czTX690gC5t/DvG8TgufGQGHBc6vy//ui+jU1OtudE0pcgjzmnG+KAAnkB3yJviC+WJHsVXCbnIHCqiIId19L747SAd65PFqHkoggCiS4lPAGBQhUGPi9cUlAwCixOiOECN7VryOecKtPVR45sCn1w6d4KlqNcfnCuT2d+enxwu/Ou6MZ9Pxg+xvwbFbO3Sp8cC56eEvqh4cjT21lIT3w+LW+1qY/ec6+NWldGydYf6ogOkPTmX86pq9vU9qTwBlVeXjfhvjz/ZmffYblZbL6Ko8e2Ro5vIWGVAKAUvq5cuanx+1bk8ssosWYsXld7Pl+lggF3Xpoe/m3T5VP3nhMtINPHgBAYUpzjIb0uiYKCRHSyxRF0ay5rACjPBFhcaOukElQtzW2iI0mpSxmKE0xra9ZaUnyWIhqCqGUSBSm7efL7ljGHcl4s0VpOguuccCAp2MsFqptuRzPm87fk3qjwMKa0p7U+lrVdWklHgaFEyTScb1s0RmZdW5O+bPFun2hAKAyraeZGiohhBqa0hJreHHAW2LG1o4HdqsShem4Ixl0lydXhUI6I7PuZC60tXuhzz5g90FlSjpKw0aNRyeJdFxvKh8sVoQQqnHeEte3tOvdrTwZBQp+rlL8+KJ9awqlTwLHoDVBw1qdq7z7glmLWjEosIiutCX0je1qe4rHwsAZSpSW7U7nnFtTzvDs8pf4AIDGlea42tOsr29V4hFqaEBBWI6XLdk3x53BaX+mhEIE2qpqa4LU3PZJ4udKfr6yWFZECjSk8nRM7UxpnU08HqaGVtUzczy/WPEmc87wrDeVFyX7sTAtLj+ecKuvdqaTrx9UmuPAaOBqmAMjM3/zu9KxAb9QuT/oWv2PlCJfKR4b8Kby0vFjz2xnsRAhBFQltL07+sx2dyxzl++vJqTtlk/fLH5yMfHqAZ6MEEKUplji1f3mxWH71sTChKALoUo39NoBtb1KNCYrTunTy+VTN3DZVW6BaD3NPB0lEgmgdHzr+lj+7VN+prjMA32TQA019aOjscNboY7NRkRpu7M/+bjw7rmaARUWM1JvPBV7eht9sCnrLqTrW9dHJ/73X4pyndAUANUU3hwN710f3t2nb2hXWhMsrFNNAcYCnxt9IW3HL5ruaMa8dLt88oZ1dbwRoTUA6GryBwcT39pdo0cc0RmZmfqrd5xb0wQJDWvG1nXRo1vDO/vU9iSLhamm3J2kwnJEoWLfmix9frX0+VV3LDs/PwIUeHOs7d+9GjBFAmNKU6wxG13yO3sje9bfX4eBnrCujk78h1/7M6Xl2TEDQSlJfSIglFKYNvpijp/I09H0nzwb3be5xqMT0hqcmPp/3vHGsgSAJcPRZ7bFX9xlrG/nyQjVVQBwRjP2zQnn9gx6hAChYb3lT18K7+ytcw0oSpWZn3xS+nigccs+cEYN1djZHTuyNdTfo3akWdSgqgKUIiL6vqjY3kzBujKSf/+cfX1yucj+aEhT1iVjz+6I7Fmv9bbyZITpalX4wxfCdv3Zgnl5pPDxxfLxayiEsaur7c9e4dHQ/FNJz8/88vP8L09Kq2FGEgA4Y3HD2N4Z2b/R2NyptqdYIkQ1lXJGKCUE0ZfS9WTZcqfy1rXR8smb5vkhf7aI4nGrKz0inlyrDwAMIoc2h3b3gsIIAHrCnchmfnKs8P65ut10SFBIUTIrF4bwr95jET16ZGvQCMQiRvxbu8qfXTEvDTcYFoUUhUru7VPGjh4WCwGlVFNDO3qa/9Xz5qUR6T2qYQZK9b628N711RUfiTs6W3j/rChUlj/kLrFybij/65PJ7x9SWhN+vlL47Tnr+rh0vpFFfMsE6XigsNDOHhbSGlCnmQPDhQ8ukvlybUBYIhx5alPkwKbAzZ0PUTQrA4O1hwcARmlEN/q7Ut87GD28VW2Kg65AnXyBRkhoc2f08Jb4C7syv/y88O65qsDE/OkT1MGsS0UObAQ2r4ENkaciSkvCmyjQkBr/9q7U7x0xNrazsHGvdfYOOImSjrS+cV1k74bQ7t7p//SeO5aVtvuAfaJAdcXYvM7Y0rUoYwOgdqTVjvT9v5OOh0JQnS9blp0CT8d4snZ4nxCCQrqTGWnNDZyAxrXu5siBTfP3gugLGtNYMuRnSjSip994Kv3GUa27mSr87nNj4TLc+1+gumJs6ogc3FTvGrxskX94/k4KoGZACUBhvCkae6G/6Q+e0XvbWFif/00pTXGtszm8vcfY3p158zgNaYQ9kuEHhdGQFtrb1/THz0X3bmCx0P23GYATorWnjI0d4b0bZlK/Kx0b0De0V7Mqc95hJNL1il8OAK+fUANCgNKQqq5LJV7bl3hht97TQg2trooBIfqG9sj+jfEXdhU+upB587h7O4OO9zXKeD6xVh8o8HQscmDj3di+tJzCe2eKxwYWbqBHgp6wroxmf/6F1t2srmsChREKel9r+MBG68po4y9Yur55cbj4ySW9r41F9CCSmXj1QPzlvcuwsgABRqmqVJvopHTHs+5oZiXeORTCGZqa/pvflb68lnh5LyEk/94ZuXxqxd9EIKLrm5eG/VyJ6irUXCIBQFXUdWkWN0SmPI9BFlg8dI+XqRbc6XzlxM1qhfmcgzlV2hOp33sq9doBrbsFFD5/KZ93COOxcHhnn9qZDm3vmf3bD+0bk7VrOSVKr47vCEB1hScj+qa2xKv70t8/wmOhoJKgzqhAFaa0pVKvHuTJyPR/eq9y5tZqF4gDoLoaObhR62qu9xFp2pUzt8T8+hsh6zbcAlBNpZqqtidTPzzc9KNneCrawCYtC4CB1tfS9EfPJF89qCQjwOp+U8AoGGqkv1dtT9nDU9Sok1ZY1KjAm2PJ7x1Iv3FU72kFhdXbjAZRfaOvre0vvqs0x1jEgHmbA0JIUGkp7YYlt5SymBF/cVfTHz4T2tJVZTNs2OkFjDGD6j2tyo/ioa2d0//lg/IX1xvHgFcVnlyrz5naltR6W6txISn9fKXw4QU/szguOUTpeubFocrZQaU5DgojBFjMMDZ1sFjIL5iNCmGCZtljA9FDm8N71oPKgyWPoLIcDsUDryNQ0Dd1RA5tdoZnxLJXiVcjH5Z5btAdnQWVe5M5FGsZ/UeDRGdwyro5rrYm6yXmgYLamlCa4yJvzskdAqc8FVVSsdpOFRKU0r454dyenvueA4DC9I1t6R8fTb68n6ejVF2cQFRQLkeZkoolv72Xacr0f37fHBiZXwSHUqLvB5cxf9FkIT3U3xN7fkf86A6eigA0KL67c8EMaEiLHtjsZ0petuQOz37FFHv1AACMsmQ4emRL6tWDrE4pH/rCGZ0tfXZVzGvWRyHr1hYAoYbKk5HQ9u7k64d4MtKIC2g5ACpXO1PN/+ZbiRf3KOnYgvtCAgAKV6t1IbXjT4sYFXhTNPnq/uY/ek5tT1O1phV/cFDO1LZk8vWD6Pi0njwmEml59RZG4IylwsnXD6TfOGKs76Casli+hyAjEDEiezeCooDCix9ckIsjcf/K8eRafYWpnU08Ea5GzHzpDE5ZV8Zw8dFpid5MsXLmZuyZ7TQclPVxtbOJxcOiZDUo6QuMpX1jIvfWCa23hScjd6J2y7I3v5MQDFTFAJTWRPL7h0qfXraHpparKOkBSCkd6Y5nl//MX1MAIRRA5TSsAdAFd1ooJfryfm4Df6ZY/vJa9MAWxusIowEoyajaknBuTc319FWub2xlIb12RziitBzr2qg3XcAHN6ZBhVf6x0fT33+KxcP1qgoaADhj8VDshZ1etuhO5vzZ0gNxCCREIqm/9aRhPfmdvTwZYWFj8Vw6QCmPh2NPb7cGRjJTX6wG6nigQDWVGipyRgJnV+W8KRJ/cVfqtYP6+rYa2ykkKKUomoVPLpnnBmusQkLKOpMXAJih6b0tsWd3aB3pGtmT5QUFnoqkfnAo+fI+nojMrzOoDQBgwMLGww5Kqc7jL/Q3/cGzek/rYsMYAKByvbeNINatkiEoLae2rw/A4kbi5T2t//oltT0Ji9wE338CRsHQwjt7m//keXds1r46sbwMaSuEJ9fqc662J++WO0nHMy8MSctZHJlaFeh41rVxYTocMdjO82SERfXFrFmiaBbeP6/3tUWf6+eJyDKTgwKhqhI061OF6+vbUm88Nf1fPvAml5mLdw01AQoP9/fij59ZTBe+KFuVi0PWwOhdP0BUbPPCbW86R7ta6vltNGZoW9rLJ64/ODChuqpv6KgX4EUpvem8eXlUms6cHjkW1dM/Ppp69SBPRB46OAyU8kgo/q3d1s3J3C++xDmF/Yj1TBchhKpcXde0sONYY1RQmuOJ1w8WPr7kmm6jJprHAhbWY8/uMDZ2EIGgcBYztPUtoe09WluKGmrNLxRRirKV/c2J7M8/9/M12mtRILp1XFIAFtbj39lr9LattJcflHlGj25Nff8wj4YWa/IfGVRXwvv6mv7oOb2nZamvBzBaM7ZUBZLaXCkAoLDYszta/+xltSPdKPG/EKimhLZ1pX90dOov33PHMl/5rnRBPLFWnzCgYf3uJEEhvak8WWKxJUrpZ0oYpCqBEACqKkHR7IJnQSm9meLM331UOTekNMdJvdbZhwOAsXld9JntQSCBGmrs+X7z/FDhg/PS9dfy7isLAMp59MDm8M6+xcxwbyY/+dfv2pfH7pVt+9IZnLaujystSVbP6hua0dcWKCzc3+HF0xG9s6nevhN9YQ9OusOzc1Lg1NAihzenXj/Ik5Gax6Lr+2XTGZ0VuTLhVGlOaB1pGtJqrPsU1JZE6tUD5plB++bkA+ElbDi/AGrUMTRYr+8/lHNjfbuxo8ufKVaLsbFKAIC+X2UICJq262M+60DQ87206QLAokbzHzwbRB2AUVAVUFlQ2V7j2SJK1/emcvkPz8/+4yfuaLZOEBhJ/c0MKDy8rRuUFTb5hACjandT/KVdant64R3GvQf3aJIHd2L7+vq2Be4RCbm/0/ruoI1GR3RqlCKBwvSN7cnXD6ptqSrrw5zDfCFt15nIeNMF9AVPRfSOpoB+be6HAVjYiD29vfT51Ua9pqsGT67VJwTYfa8FonT9JbMqIEH/QSNajasv7ljPt29NOsMzyz9dAYwtHSwRjh7ZCpQCo1p3S/zF3ebA8KK6tNfwiKBAdbVe49wcSNuZk+xEIUXRqlwYCu9ez8J67RE0RetqZomQX3zANdTWt/J6LWpIpOubl0a86fwDbzqA2pVOvnZAbUsGbEsPHoUopDOeyf76i/IX17xsGTjV1qWT3zsYf7qfRWpE46muhrZ1hw9t9CZz/n1WH5GQam9qQ2OOBBGJL6Tno5AAEEhiNggDAKMsokcPbS5/fp1UrT5K17cHJxERgBDGlFRUbU3WHxS96byXKVYtByGEEOkJZ3gaXX9JCwMoXGmKL+aTKKV0POf2dObNT/PvnfMm83VzcBIbTVuARb5sjwQgoLLIwY2R3eup1ijcjb5A15eWK4UAAKopgejRw4kgAKf6hvbY09tZSK/r6COikNL2pO2i64PCqKFSTa1psB88kEh3XlYIgIW1+Is7Q9u7a9wpEkTpZUuFj88XPjjvjufQ85XmeOzo1uT3DqvNifnrOShM62yJHtlaOTskJ/Or3O96cq2+RGnd66YACiwWWoyP/gAAWNi4x/mFd+S2Fl+ygQGX0/KbYevqePbN48aWdUpLAhiluhI+uDH2/M7sz46L0prVX+1AT1RO3fRe3qe2JGortXCqtCfVriZ3PHfPVFDQe1p5IlLnpCgrdvnMjQd0lgGorkT2b4js31gzc4m+cMYz4//HL4ofD8hKkBcA5/qkfWtaVJz064eors53bqihxp/eXv7smp+r3D3THfa9he5dSlEyzcsj5sXbzlSO6mpo07rooU1KU7zGpuTumIwZGzuU1pjIlYOT+BP50f/lH0HlhBBqaE1/9EzbX7xSbz+Evsz88/HZf/zkgW4XRPSEKC2OrGbpEGW7eOLKzH9+3746LgrmvHaM+y6ksdWvB4mISIAsKXFZF0BZNJR4eR9PRht8CqV0RqaLxy8Xjw+4I1ka1cO7+5Lf3lu1oEtP37CoEXtum9KaahBmR08445ncu6eKnw54I1neGos9tyPx4h5jfXuDd6YKOdfdA07V3pb4S7sDSpW5Y6EUBTPzs+Mzf/uhyFXQl4SgMzhj35zy8pW2P3uZp2Jzm0UBgLPIgU1632l/Oo+rewF+Yq0+CulnSneXS1C4vrEdFEaWEgAHhandTXcFqlFKv2DKir20NWJlFhS03fKJ66VjA4lX9rFYiAAoTfHEK3vLn1+1nZUp61vD8gGFcEcz9tB0aFs3MFZD/pFSJRFVO5vgzGD126TAIrra3cTqNEdJ33dGpu3rk/cXugf8zZH9G3kqWrOv3S+a+ffOlL+4Lov3GHjQI+7IbO6XJyK7+vS+tvkLK3Cm97WpXWn7xsS9kHXjCH/wESn9XCnzyy/y75x2bk2j6xMKhXTEenlv04+f0Xpa6kbpgfBUVGlJ2FfGCakacj9fCf7EwrqsOPVDDEgQRdn2Zooo5nl+K+aZAad6ezr5yv5yKmZeuO1N5usm4BZP74oobdfLlqoFlbZLKBVly88UH7G/hipM39Rm1Pq670K6vjM2M/M3HxTeP+8Hwn0A9tVxZ3Cq9U+/Hd67YX57fWMAgNrbHN7ZR5U6la1B892Fh0+kAAAgAElEQVTg5PR//bDw23MiV0FfuJM5dzjjjmTa//3raluqUTICkcxrNmERI3pok95XO6GAnqhcGMy/e9afLty3ixX+bLH42/Oxw1uih7fC/NALELU1aezsKZ+8SeTSokePGU+u1fd8ZzxbpUkHAJUb2zp5Kiptb7F7aiAsrIe2dbOQepfN15vI+sWF2v0fC1BIUTBzb53UN7aHdvcBUKoroR09ie/um/nbD/1s6au+wDU0Agr0MyX7xri03dqBTQCqq/rmdhbVZdkmQSVdKqx1NtVLGKHtFU9cEwXzgep9RrUNrcaWdTX79BDRHc8WP7ooCnOVpaTtOjcnrWtjakeazTcDFHg6qnU2AaWId+woEvQWKLVDT5TP3Zr9u4/csezdvamsOLlfndC6m9X2FNTzFwFYxJjLbx+s5kGOf0HjHWxKHuPkZSE9tK1b622LHt5SOnEt80/H7BuTtRvJJBJ34XUJpZSmUz53M//eWevKmD9dRNcLHpcoW49I/Qm6EtrZSyNG3f4OJKJk5t87k3/vnDeRu2vYhOOVP7tGDVXtalJbU7VZKOqBQXh3n9qRrrdXQJSiZOXeO51/+7SfLVe/Pl9604XCBxdCu3rT33uKRRqlUNGZu89TWuPRI1tZSK+xxUSUllP44LwzND3neaLnu2OZ8umboR09NRMu1NBCO3pA4eiJZWJ9WhE8phLNxw/0hDs644zPBt8cMKq2p6JPb6vLTT0PQKnW1xp5akt1W4coy451fULky6tEKB09YV64XfjwgshXUMog7pp87UDk4Eao1xK2hlUCROn61pVRb3Zui909UAht7bobzwdOlea42pIkdXq33Kls5cSNu2zt1aMUFtrWpbalal0DQU/YQ5P20HSNPngk0nKtW+M1qUwBgBq60poA7Y5vF3TuLWR4RL6ce/uUO569f0QU0psqVE7f8vOVupMLCNVUpj8CCcxXAgCmq3pva/r7T3X9z38Se3EnDWs1eBokLmyzJcqynXv7xNj/9mb2Z1+Y54fcsYw3XfCm8t5UXpTtR+xu4KmwsbmD1nf0UQj71mT+rdMiW55j1KTpVL68YQ6MLK11jQKNaMbWTlaLTLc6qCesKyPFjy6JfOWB3ZJEWbbLX173cg0JwnFeLIeC1ttibO6q2fuKQjqT2cql29J05v2NoJDmlWG/UJl/ICEEONM60iyqLRcz8QrhybX6UnozRevisAgC8gAsYiS+vcfY1HFvnaqPqq7dt3bqG9urPD+IzuiMee7W6pFMRZSiaJaOXa6cHwzawYFRdV06/uJudd0j9aKsYVEIfMeFf0jtjb9EZ2jauj7WgNleW9ektMSD1xU0RettYVGjxpqCBIW0ro25w7MP+LIAVFNCu3rqcKcgkdKbKRCJLKKzeGjODw2psmjX3pQAAKNKc4yGtbmrZ8PJ4Uxk3GCTMUf4zhPudN7P1eXDBwKg0MdQx74g0BeiYouiKYqmKJmiYkvbrc1SHIACKJxF9NDWrpZ/81LshR0sPJeMGXFh51DYTvnszem//dC5MSXLNjpV3bngZ372eqngyajSlqxLqYtEup45MOwMT+O8sAQKKUzHGZmWzhIEuIFSnoxqnU20/teKjle5eNsdz6I/t2QEpfSzpWqWZ7FDEmDU2NbJwlrtZJBEf6YoyzYL15gRLGqIolWPKgoosLDOW+N1ZbFWB57YCD+RKE2n9PnV2HM7WLQbGFBNCe/bmPz+IW+2WC10r9MdCwxYxEi8vC/+0m4eD1XFSFy//MU168b4Y7+T+gjogG5N5t46FdreAyoHSqmhhvdvjBzelH+rJPz6usBreBQgSl/M8arrQdhOvWXCz5bLJ2/EntpOajGRAQCLGtr6Fvj0MgqkmqL1ttbm3keUlm1dHfMzpQd8ZSBUU7Tu1rrGEiC0uav5j5+rORWoyrW+lrrV40Bo1KC6KpYSVfKyJVGxaz43Ubb8SsPCOoCHqxJfTiCKip37zUl/pkQkQkhhiZDSmtDXNStN8Ual7ABUV8Pbupv/5HlnaMa+MrbU8j0/W85/cM4ZnF5ASOZhwSKGkogA1LNYKEqWfXNCFOsUNkn0sqX72agWBgUeCympWAP1SOF41rVRUZ7LZlj9q+nUJoeuCwDO1M7m+okkorYk0j88UlNtBCiweIjH6kYmQOUsEQa6xLLxx4sn1+oTQhDNS7fz75zW+lpZSCNAWURPfu8gixrTf/WeMzQt5jCZkCp1g9qWTL62v+lffeuuipd0ffvWZO43p0Rh1ZEtS9MufXKp9MyO+Is7WcQgAGpbMvWDpyonb8phd62Lb/mBKF2/ePJq+cS1xSTwRMWuXBiqGbgWFdu8eNuZyhpGLQIWIFRT9Z7WQNiUhlS9u6V2el4IdzJnDYxI+4HWZGCUNUd4PFzXDik8cnBTeHdf7UsHAE7r1XYBANM1UPiSerWl5cg6hgFdb6lNdF8JRMnK/OoL58oEeoIEQuwKY1EjcnBj4uV9kT3raUivlxoHXQn39yW/f2B6IutnyksYFdGdyFTO3FopTmIKLKw3EoAmxC9WnMls3W0ZIjreksomgFIa0VnYaLDVkI7rjGVq3zUSImQjcvQaIwKN6UqqLucgcKavb1c7m+rdCHDWoHgQOG3Uf7g68ERbfUJkxSm8fz68d0Pk0OaqEE40FH9xN4+G8r87b1687c8UhOkQgYQSqqs8EdE3tMee748e2ao0x4L1Dn3hTeZyv/jCHZldhUYUfekXzNwvPtd7W4wd3UApaDy0ozv+7T2Zf/50raxvJYC+b14YyvzkOC5CiwgF1gssoSecwWn72pjWnq5B1wMAnCltSZYI4WyZJcJqV5rUStygJ+wbE858ESZGeUsMOKtN30sIoUA1hTRszm6AQI5ySYdgkP6v+Sf5WEvtHhoopDQdUbar1YhACAF/puhN5s1Lw+kfP514cY/akqi50wJKqaHFjmwrHRsoHbuy+C0OInqZkiiaK/KIAk2vmNaI/R6JLNv+bKMkOi6+EyEApywRAqWhIoMn/Gy5jmlf6niEUGAxg4bqp94BQGHsoRNJlFK+tC6Gx48n3OqjL9yxzOw/fsLi4fDu3ruaudHn+43tXfatSevKmDedE6ZDVUVpjmu9rca2TqUlfi+qKaUoWoUPzufePiWKNag0VwPQ8yvnhwofX9R6m1nEAEppWEu+ut+6Mlo8NrCkvfAaFgYSIhFdX5btapPIQ0OiKNmV84ORvRtr0vUABZ6K8pa4yFs8FlZaEjVp2KXjVS7d9jOluX3JFFikVh3AcqHKq7Oq17gVBxJCEAWKkmVdGp2xfkc1JfXaoYAwe/7HAYi2rim8d2P5yxu1yWLrjCItWzp1hWQeDUAogKY0TkhL25M1I+0PPSoDGlIbZW2QoJCyUodI/2GGBGqoK1cdAkAIezSmwpXHE271CSHSdktfXAVOW/785fCOHlB5wNzJm2LhRDjU34O+RCmBQhC6CbLjwbHo+X6ukv3F57N//5E3lV+9CsqIomgWP7oY3t0XObiJ6ipQqq1vS7y6z7454U3lqyEKqP6zOvcu30ygLyonb7qvHFDbkrWMBPB4RG1OuMMZ3h7n0dB8E44SRdmsnL1Vo+qYAFWXTpyyeEhcVB3aNwYopHN7tvD++XDAc1AzFByoxG7u4KmIP11sQN0z9+S+JEukD14CAAilCxCHC7kE9bLFjbqowjdEWL6XDDhbOX0BRELEo5ZVrjSefKuPQmLZLh2/Im2v+b95PrSrlyfCoPBqeqYBzyWiN5XP/suXs//wcUDF/BiveolAgr5wbk4W3j1jbOkEhQOjNKRFDm6KHtlaPDZACGERnYY0qinoS3Q86XjSdETZko63eroSvokQ0p3I2YMT4f7eGvSiQFhEU3ub2ZXRO2w58wnDfXtk1r4xWTP3uaIidSjEWiTpASCi49nD0/bItNZdV1oJOFOa4ixi+LMlsuh1BRfDSfDQQCRCLNAIwBnoD5kMqjvoQpUcQGk1HrBcC/AS1ViWBomrX4v8ybf6AUTJKn9+1Z8pJl7eG39pt9bbAppyx22C+wRO8O6yi4jOyGzh/XPebHFphalfEUTZKnx4Ifp8f+yZ7cBUoKC2JVM/fEppjvNUROtt4U1xqitEorQcP1t2R2etq2OVC7ed29Nou6s3kvFEAyWKXNm+Ni5sh4eN+Z4W1VWtt4VGDG1dGmiNDKi03fLJa7Jo1/gGEefU99W6AvIwfhQSRJSOtxqkb1cbRL7iTxdJ/QkFFFhIW9kwzNKAREhpLbAIUENhsYfV0q05qpCiZDfaOAIBhfF01B3OkhpmH+oWrNSH9PyFqREealuAiCiEtOcVia8yfFOsPiFEer59Y2JmOp//4Fz00Jbw/g1aZxNLRpihEk6JRGl76LgsEaEhDRgFoFpva+TQZntwSnwdVJNRop8pZf7hE60jbWzrJACgKuHdfcbmdYRRqnLCaLDRQYlESPR8Ybp+plg5cyv/m1PmwIgoN5yBa1gJIEpPmNfGvckc61WBzp2SVOVaW1ppjirNtQvE3Ils5eSNmrEoFNKfLTZYytEXzuisOzKDkizZ9kusnL7pF826LEOrCkHCld6/xV8xBBupBvYIoIZ021cIJChQFmxp168bAMJjIaU1SchQvdMsWYDHlyJvSqvKoFrzlFRT1I60dWEEa+SvCCh8YR7++yGlKJrSduuRN6OQfq5k35h4GPFSJO503hnNrlSfxTLhG2T1iUTpejLj+fmKc2sy984pradF62riyQhoCnpClExZNKPP9cdf2MliIQKEJyOJ7+wpHrtkm87XwN1HRF+Yl4aLxy9rfa1UV4BRCGk0NJfO7M7brrFYWGmOab2txtbOzM8/Kx0b8GeKS2PXWsOjQ6I7PGtdH9O6mmFeABU4U5pjen8nT4bn/g0JSmleHnGGZ2ubXiH96aKwHC6xpsotSix+emn6r9+XlvsQxeHScqW12j0bQkiglUlDKnCK3oqbfRbVWTLcyKgHfA+rareEKExblE2CtWgcCSGEsHhE724pKgznMdsTEuhE1GfzrTmmlKJkeYWyKprq1EAQqqvGpo7yp1ce0JSq/hVYRGfz1reGI6IoWqJooZRAa42IaN+cGP1f/9mfbrRdrnt+1xeVOsRWqwbfJKsfAAn6QpSFKNvuyGyJ3FHORUIQQeXuVEFblw7v20AAqMaNLesS394zM5n/WrTAoURp2t5UTloOaLxG+AsRCbn3eyDAGYuw8L4N6rqU1tWcffMz+9bk12Edf6Ig8uXyqRuxp3dQTZ3rglDKU5Hw7j4Wn8cNgihN27o86mfmMqRW/y5RVlx3Oq+2pWosx0AAgKdj6Et/trSqK1ceHUBYLASaQmxvZY0+BaU9pXU2NbB/KFFULFypgvyHhF8y/WwJJdZROwYW1o1tnTwd9WdqFCECo2pLsqauYz2gRD9f9iZzuLW7bg2EpoT3rC90nfdminM2psBAbUvxeB0JytpDErR9dzqHvqipekWA8HSM6qqfLT+p/s+qJg58TAgEORAJIehL6/JI4cMLXqYUyEmBria+u+/rwWxPgRpq7IX+1A8OB7LCwa/RE36hYt+YKH1xNf/u6fzbJ4ufXDIv3vam8neTvkBBaY6n3ziS/sNntM46++41rBiE6ZiXRtzJ3HzTC5TyeDi8rYdH5lp99IUzlrGujKBbz36gdDxz4DbWWb+A0dDWztiz22hktVOLLAC8IztbE0CAUq27maciSyUYWBKAU6UtET26VetsaVCdjr7vTuf90so03z8s/Omic3uG1N/8gcLC/b3Rp7fS6FwyH9AUbX1LaFtXXSbHmpDo5yrW1TFZqct+BpyFNnXGX9yltCbu/+5A5UpzPPZCP0/Mi4E1ACIKaV0fk6ZTM+QDlKqtycR39yrttRNqTwC+eb5+Y0jpF8zisYHIgU2Rw5uDmjituyX+7T3mpRFvKreaEzZUVYytnS1//oq+qaOqHeALabnO7enS51crJ69bNyZk2UZEqipqRyq0uzd2dJvR38PjIWAMFK60xJOv7vezpcxPjoniXBG2NVQBhDBKI4bSlsCa+mnzgEiIEKJkSbu29UVPOINT1pURrbNpLkMIBRY2WKhGoZ90Pev6mDuWrVudhAQd3zo75H9rD4vWqsOioLam0m8ccafy5ulBUbHRlwTnEp5Xez4BgEFAFEiCAPWqsVlIEF0PfQFVCoF5oKCvbwsf3CgKpqw4wZ4+2PGjqBWvXhIAICDbT4Tir+xJvrSHR0N1bQaiqDj2tXHRQGroq4Ao2eaVEel4NDRXJiBAYBFTP3zKHctYA6N38/HAmboulfrBYb2vjTZ2GBgFft+ZEYknyuduJV7ex1OxmkcAozwRTr56QJSt/NunRb6CvgROeUs8+dr+6P5NsFSOKSHty+PORIbFwzXSXgDUUBMv7XXHs7lfnRK5Cnp+7Vcd7nzvjBEg6MtleJEeC9as/jxI6dyezv/mlLG9m2oKAaC6Et6zPvrUlvw7p4W36hh570JpT6Z//6i+vpUG0wBR5CvFY5czPz1mXhyWZRvJnbYcIN5Uzjw/WDo2EH9xd+qNp7SuZlA5AVBaEuk3jtjXJ8pfXBWV5WTkeIIAVFXiz+3Ue1ruk99uCCG9TCHzk0+ty2P1OMxl2amcvRU5uLkGXQ/U5v2QlmteuN1YfQSFsG5O2IOT2ro0qdWmTHUlvLOv/d+/nnv7ZOn4ZXckKy0X7+oGBUsbAKFAQypvjmntKen71oWRqq7VKoFEYTnS9Wh9hmC1LdXy377II4Z1ZdQvWcAoAHgzBW8st/imeUIIAUIoJYwG3jwAIZTSiG5sbo8935967aDalmrMPOOOZyoXhuZr2Hy1QNczLwz5hUptc0gIIYQaanT/JvyLV3JvnTQv3hYFEzRF7WpKfnd/8pX9zNAa+8fAKeH0/oJKRLSvjJlXRoxN6+qGYQC0dU2t//bboR3d5qXb/myJN8fDu/siezawWOghmu/dyVz55PV6IwJnanuq+Y+fV5rjhd9dsK9PiIKJ8r4ZQQhQIEBBZSwV1tpTNKLb1ye8ifzXIk22ZvVrQJpO6dPL0ef648/toGGdAKityeRrByrnB6W1KpntAaiuRg5sjB7ZSjWVABCJ3mwx+y9fZN/8zBmdkZb3QHE+EiSIUjpD05k3j7vj2eZ/+2JoexdwBpyqHenUG085o7Pi+tjqceZWEYAAo3p3i9aRWuTzQV84Y7P5d842+oyQlTO33PGs1p5aVLBdol+oVC4OodlIfQSFdEcz5ZPXQzt6eKJWfBsAOAtt6VJbEomX9thDU87orDdbECWL+AI0hUZ0Ho8oqajSklCaYzwRsW9MjI//QlouytUyF1BIL1sUZYuFNCC13U3KubG+vfVPv+Pny9J2CaWiZGZ+/llh+sySwlo8Fkq+tt/Z0Y2uD4xSQ1XScXVdWu9pUdtTPN4wiSBR2k7x00v2lbGl3uNKA4V0x/LFL6+mm+K1I0OEEACqKtEDW4y+NmcyJys2KJyno1p7ijUIb9w5NggYkQfNvsibxU8GYke2KelY3ew+pTwZiT/TH92/CT0BCqchjepqfQL/RhC5cvHYQOzpHVp3C1VrGEGgVO1Ip394NHp4qzM0ZQ/PuFM5Uaig44HCqaGyeJinompTXGmJ81RUWu70X79X/JoUx6xZ/RpAT7gzheybx/UNbcbGDkIBDCW8f0PsyLbMRE6UVp27DxSUdDR6eEtVYFeidLzix5dm//5jZ3i6vloGkY6HM8X8+2dZMqR2pHgqCoyCxsN714f6u53BydrFumsAoContdaLmkBf0JC2gPaxlO5EzroxFtm9vgZdz/yP+74zMmNfm1hgoZEoilbp+JXo4S2R/ZuA1uoRB6CGqupptS0V3rMePYFuENXEQFG3SlvJGaE0OFrpSLjj2YXv/LFBSG8s688UlFSsJmkxIVXRAbU9pbYlg184E1mWCC9NFxWARY2WP3z+7tSoPh+FA6ULZoKl65k3xvO/OS0K5hIGfTyQKCt24bfnons3GOF1de8lqJwP61p3y93Y4SKLQoJn9UDzJBLp+OaFofLpG/Fn+1m4Tn0JEGCMRQwWWQbCAOn65vnh4qeXUqkoTUZqjkhVhaYVJRUNbemUnkDPRyGIQEIBKBDOgDPKGWEMgHizRa23hX55fYXkEJcXa9V8tYG+qJwfKn50UVgOkRhoZiRe3W9s7VqNRU+MahvbjG2doDACgEI4I7OZf/rEncgsrA0jpaw4pY8Hih9fDLoTgVGeioa2dbGGAlxrWF4EPUX21TFh2ouhYJOWWz5zU5rOwm1CEu2bk5lffO5nS43ODIRQoApnIY3HwzwZ4akoT0Z4LMzCOtUU4CzImrOooa1vXUF6/6UDhfQyZfP6+KLqrgGCH6CwwFas5tGMsZDOoyEeC/NYmEWMRgK791+klO5ENvPmcWcks0qdQiGtS8PF45eDda/RJ+GO8HG9QoraR9XSSkb0pgqZX3xhD888ploiiaJk5X590ro6usD0AQDOmaHyaIgnIjwd5ckIj0d42GC6CpwHMwI0rnY3gbGEHsKvEGtWvw4QRcEsfnTRujQsXY8QAhT0TR3J1/arHSka1qmuLuPP0ogm5gEUHtrerbRWPRhRsYvHLtlD04utPUR0p3L5d89WGfsBqML1je28KbaiBc9reACI6Av75qQ7liELcocR4oxnKmduob+owgJpuqVPLs/+9Jg7nlmgFiGwiBSA0uCnuqzft7KzkK53tdSsEvgKIYtm+fhlP1taUnQKGH0Y9aC7Bm/ew6kNRPSFMzwz+9NPC++fl2V7debOUKKfq+R/e658+oZ0lqgshYie7xcqsl5HCRAIiiHm233brZy6MftPn9iDk0uoiZMoLefh+uvQE9bV8cybn1rXx+u3wFQvu8aMqH7v1Y9QhWsdTcxYSv/CV4e1CH8dIEHPt66OFT44r61vo6oSSDTGXtjpzRSckQxZLrJlJEjQny5Uzg2ieChyUwCqsPt7ZvzZknnmljSXQJ+ClmddvG3fmlRaEoHXorQmlNa4OzqLy8Z/vYaFINEdzZhXR/TeVmiQPkCCKM2LQ87wzCJbv9AXfraU+efjhLGmN47ydIwulUbtPlBd1dY10ZAq7Yfh9lkhSNsrn7hhDtxWWxNUVxflgC46NP3wQIJSouu5U7mZv/sw98sT3mxxdZp8QghBRNe3Lg7P/tMxratJbU9TVVnUpghRer4zljGvjcQPb4NYDXFnIACcAmcP5PWDo30pcpX8r04Co61/+m2lKU5V3nhbib6QjlcZGFKSUWPjuiXfqZSybBc/vIRI2v67V/TuFtCVh1blAcaUlgSLhwiF1TMj6mHN6jeCKJmFD87Fv7WLx0KBFp/akWr9719Bbzm5x1HK0qeXzSujaMqHYw0DzpSOdLUQBtHPl52RmSWFEFFKUbGdoenwnvXUUAkhVFeVlsRqTGc80fALZvnsrcS3dlOjrt1ClKJsWQMjIlte/AuDQnqT+cxPjolCJf3jZ/Su5qW1Vt8H4FRpT/DmmMibq6ugbyqf/cUX2rqm0PZu4HWL+R/jNREUwi9UKuduZX/1ZfGjAVmyVq/JvwNRcUqfDEwlI81//JyxaV1tNpsHgb7wJnOz//iRX6hE+vtYdB6jFKnm5kFhALWeARJRMHO/Oomun/7hEWNLJ6vTQEgIQSm9bKl08lrurRNNP36mrtUPtlz1nR+/YBY/OI+W2/THz0X2bmAh7SEjWAx4Iqy0J+AiQ3e1s7iuWf1GQF+649nszz5T2hJad8sdJjuDkOXk9EQpaUQnMH8HvGhQ4PFqAS0iEWVblJfeVYXoZ4p3X1ngjEVr9IivYUUhLccaGHHHMyys18v7oC+ckVnr6hi6S9l9IkFfelOF7C++dG7PxJ7vj+xZr7anWEivMlAt+F0jokT0hShb0nbpo6Wllh+I6GPl1K3Jv/xN04+fCe3s5fEwsMZ1kcv/fldFLnxflG1vtmDdnKh8ea1yfsgZnpFl5+vBgSGlqDj5d86Iopn6/qHwrj4eCwc1Q3M/icH7YJsDw9lffVH8ZEDram7U0qkwUFi9x45Cinwl/5vTzuBU9Oi2yP4NanuaxUJBqDW4MOl4ftG0b06Ujl8unbjeeJVDRHQ9IusrCQopy07p+BUvU4o9uz16eIvW1cLjIVB4XeKHBwcIaH+E5fhFExhb/Vs6smb1FwCidLzi8YHQrl6lJRG4+3caNpdtjOXwp+9oYwcnFHIBxcw6F/JARg0C6etvpNkXUjqeKFuPWG9xF+gLWbEXU2aBnnAGpyvnh5TmBK2TJpQVxxy47Y5lH6IiDF3fny0WP7xoXrht7OiKPbsj3N+jdqRZWK8ayFore9Xeu76fL7uTWevqWOnENWd4dr4XJV1flK3aFiI4me3Vs3zoS2m7dR+7RFlxFnSk/Hy5+NGAO5lP/eBQ7JkdalMcFBY4cACEEKheMyKRKE1HOh7Be9dTlU0zXVGxgUJVkPP+ewFyZ1LcmWKB1g4iSiRSiortZYruaMa8MlI5N+jcnPRnS9L1Fwj8IkrPF2WrXgMCCom2d5dFtCEQfSFtr163EUopKzZWJW7rmkN/plh4/7x9YyL5vQOxo9u1ruaq9Q2eBhKCKF3PncyWvrya++UJ68qYNF0eDXlTebU5Mb8HD32Bttd4SUFP+Jly+cvr5sBI/t0mo787tHGd0pqgYY0AyLLtTmTNa2OVkzf96YL0fGN7Z71pEjwJYTqNFfZQSFG0zDO37GvjhQ8vxJ7eHjm4Ue9u4fFItUKz9owgiJL4UpRMdyZv35wsn7tVOTt4/7u0arFm9RcCojdTzL93Vt/Ubmztovo8mvRHPT/BgBL4kU6CMqi5pQQAaEgL+IWWdhIAFgvdm6vBKvO12LsuN4TpzPzdR/nfnluuMnVElKZj31iEwIFEWbJm/+Hj0pfXqFrbAEjPdwan/czDCkMgQV/6M8XSsek+1HoAAAt+SURBVMuVkzfVjqS6rknb2Kp1NfFklIeDZBZUFSscV1Qsv1DxJnPuSNabznvTeX+2JB0PPTHnvUWJ5S+v3f6f/q7Bc3MmMiJXqfkc/Mn89F/9NvuzL2sfjgR9YV1bqM0dibRd6+Lw5Gim8O4ZY0e3vrFdbU2xkHaXsFKYjl+qeLMF6+pY5eTNB9hyfGkPTo3/n/+i9jQpTTEa1lnIYIZKFQ78nmplcLNESvSEsB1hOaJU8WaL/njOnSr4maI3XRBFG31BpMRFCLqj65c+uXR7plBXOhbRGZ2VFWfhGYlEVuyp//e97L98Ue9U0vWt62MLqiRLy7WvT0z93+/k3zljbO8Kbe8OgkOEEGk5bqZgXhqxLo04g5OiZKMvCKI7kZv8v97iqdj8LxERZcX26ilF3f9JIUXRsi6P2dcmcoxSQwVDAQBpuWi6KCT6EqWkCuepKE/U5eFHiaJsSs9f8KGhkKJkWRdGnGsTuV99qa5r0npbtPUtSjrOoyGqq0FdMwopXU+Ytl+s+LNFdyTjTeTc2YI/WZCmg94qU1SqgzWrvxCQoCfM84OT//HtUH8Pq6WA/shDoH1z4lFqBYKMptbbGoRqeTystiedkRlcfHErBWooWncz3Nk4S9v1pgurvzJlJYC+MC8OweWF05lLOSkusqUCBVrXxu1bU/VsJ0pETzxS6xciCiRCCk/Y1x1naKZy5iY1NFAVymk1boR3Q/o+er60PWl76PpESKzncSK641lvptBoZF9inUpYWXEqZweB1qjxvvMJXFSEXCJKIbLlyulB6+p40HEDnAKjRBJEib5E35eOJyu2NB8QlUdEkSsX3r9ADZVqHDgjjAJjQIHQgGWGBN5q4O4Fl4SiekK0PXT94DdVKrfFAYV0RmbdyVyjz/gysKwLn80VlTO3GjUlIkF/7qatBoInWbKty2PO0Ezpk8vVHsUgfOV6omTJioPevauSplM5Mwi1CvWrJ1zMLVTfPRFMGWm61QRooAddJQkAUHloa6fSFK97HiHcyRza7sLeS3VEX/hCWq43njcv3g7cJ+D83u0gQSFRCPQFOp60XHR8FBKl/BotlWtWfxFA9POV0ieXyp9fXRqhx+IhJLoPLQWG6Pn2jfHwvg1EVwghvClmbOsqnx0kgYz0IgCcad0t+oZ2qlbZfP18xZ3Mriqe8McHeW/F+QqAiI6PzmOpCQru1BfScgkpP/r50H/47QgKScSyvXCB6ZWOR7JLuS9EFIgVWz5mOmrER3l0c08mJZFyCZv+xpCIri9cfzHMQtUv8eGGrso9kLkbplr7J1CY0p6IvbCzAW+PdH13aFaYiwiQ3DcWCkQhieOJ/OpjUloOrFn9xSLIa67kAA9/IHq+OTCSKFkBjyaLhaJHtubeOS3L1iKrh3giHD26Te1MB/4BSnRGZv1MiXwdAlZrWMMangAApaArhALa3gKsoBSU1njyh4dDm9Y1qCoVZcsenlr9RfWPGWtWfylYrdy06Ev72rh9bUxpTQCloDBjR3fyu/szP/vMm84vEHqiVQ7/xHf3BV3OKKQoVKzLw6JofkN9/TWs4f9v7+5628jKAI6fM+MZ23mPE2/SJA2kLaJbsSrQXmwLEipikbjgYlG5Q0j7LfbjcAMIIe1KCAECtl3Esi/d0lVa+pJulKZtQps4TuzYHs94Zs7DhZNWVMlupHTjxOf/u3bkuYj9tz0zz4MD5+T9oZ+e9ydGwvvL0YPVpNIwjdCE28OhlVJKac91+3LZ6eLgG2eH3/ius/u+n/Z5z+a9Zar/AqrfDcSYaGmtfn2+5+yMO9ijXScz0FP42YW0Fqz/8VNTD3cdd+VoJ+vlT08V3ryYOzG+NYkvScOFleDmogn3tEYWAPZLa3e4d+jS2YGLZ+L1zdbSWjC/HC6sxEvrab0prUSMOL6bKfTnz0wNvP5q7uSxzGDvrtcsi0gUB3cfRw/2PKLUGlS/KxgxjbD2yVz/hW/2njulc75ydHZqtPiLS9r3Kn++HpdrO3zgdbQ70NNzZvqVt37Ud/7U1t1WxqRBVP3rjXBhheQDODDZmaI/WXBynj827I0O9rw2077gKWmE0orFiONntrYe+Bnt7np3qFJKjLRWNmqfzKWVxpG4rv4gUf0uIakJF56u/+GaPznqTxS0n9F+xj9eLP7yh7mZsdpHd8PF1bQaSCtRItpznXzWO1boO3dy8NJruZPHdHuCqUhSaVSv3qpevZXWD91qQQDdSSvt6NyJiUxhoL36+fktxJJzh/ueLffTe9h6IKkxjbB6dbZxY+FojEU6WFS/e6SbQfW9WX+iMPLz7/vjw0prJ+dlj496ly8O/OBb0YOVcHE1WatKYtyh3uzx0ezXx/yJgtu3vdrSiGkl9evzpd+8Hy2tcTIMwAHR2unN5k6O73BBvta7zjDYkYhErcZ/HpTf/Tj5wptIrUX1u4hIWgvKv/+Xdp2Ry9/LjPS3Z5w5XsYbG8qM9Pd8+4QyRolSzvYajGfzSo2YsBXcXFz77T/CueVDugYUQDfSjpMZ6c9+reh4O0+m2isR00qCe49Xf3UleliSlHOUO6D6XUSUpCYuVcvvfJg2ouGfnPOni25fTrvO//1i9sIfpUZaSVyqNv49X373o+DWQ7Pnu/wBYP+053rjQ/5YYbeBxF9OROI0qQXB7Ydrv/tn/dPPhYuRd0H1u4soSdLo0drar99vzi0N/fg7/a+f9saHHd/dGn/xwoONSWvN8P7yxl9ubF652Xq6wbd8AAdMe64/Perks0q1b5Dewy6oZ0RERJI0elTa/OBO+Z0Pw/mnEr2sEUVdiOp3I5G0GdWvfR7OP6m+N9t3/hu9Z2f86VEn52vXVY6SVCROko168/aj+o35YHaxtVxOGyFXvgA4eCZKmneW1v90beDC6exk0cn52nO3ZzPv9AlARLUnpyWpCVvx6sbmx/dqH9wNbj9O1usSc03SF6H6XcqIaUatJ624VA1uPfSKg5mxQb845A7kVcY1QZSUa/FqJV6pxOWahK1dJ6sDwFdM4iSc+2+pdKX699n8q5P5U5P+xEhmqNfJ+47vPf8EIO2liEbixISttNZsPdlo3l8K7jyOFlfT9bqJEt7HvhTV72pG2ufs41JV3VVaO+21oVtb/nh5ADgM2u9UTyvxSqW9vMfpzWZeGcgM9WZ681srf9p7IFMjcZI2w6TaSEqb6UbQHuDDu9neUX1rtBdCK7W1Tg0ADhtR7aWO6WbT1MPYcZ5vuN/eeqdEKTFbm473sMUYL6D69uE1AuAwE1GpSKpEcXHxy/fV7I0FAACHD9UHAMAWVB8AAFtQfQAAbEH1AQCwBdUHAMAWVB8AAFtQfQAAbEH1AQCwBdUHAMAWVB8AAFtQfQAAbEH1AQCwBdUHAMAWVB8AAFtQfQAAbEH1AQCwBdUHAMAWVB8AAFtkOvz8WitHK9EdPgwcTu1/DwDAS9LZ6munJ+v258WYjh4GDimttZPzdcbt9IEAQJfoXPW1drLe1NuX01qzY8eAw8/R2anRuFTt9HEAQDfoRPVFSZrGK5Xg9iMRUSIdOAYcHeHiSvxkwwSR4jchANifznzXlyip/O2z+mcLHXl2HDnSilvL65JQfQDYlw5VXyQp15JKoyPPjqPHiKSGn4UAYJ86dF5fRFJRKV/dAAA4ONyvDwCALag+AAC2oPoAANiC6gMAYAuqDwCALag+AAC2oPoAANiC6gMAYAuqDwCALag+AAC2oPoAANiC6gMAYAuqDwCALag+AAC2oPoAANiC6gMAYAuqDwCALag+AAC2oPoAANiC6gMAYAuqDwCALag+AAC2oPoAANiC6gMAYAuqDwCALag+AAC2oPoAANiC6gMAYAuqDwCALag+AAC2oPoAANiC6gMAYAuqDwCALag+AAC2oPoAANiC6gMAYAuqDwCALag+AAC2+B+spD9ZnR7QCgAAAABJRU5ErkJggg==;" vertex="1" parent="1">
          <mxGeometry y="276.57" width="229" height="89.37" as="geometry" />
        </mxCell>
        <mxCell id="16x7G8k1rGI-6FZ7YI0F-5" style="edgeStyle=orthogonalEdgeStyle;rounded=0;orthogonalLoop=1;jettySize=auto;html=1;entryX=0;entryY=0.5;entryDx=0;entryDy=0;" edge="1" parent="1" source="16x7G8k1rGI-6FZ7YI0F-2" target="16x7G8k1rGI-6FZ7YI0F-4">
          <mxGeometry relative="1" as="geometry" />
        </mxCell>
        <mxCell id="16x7G8k1rGI-6FZ7YI0F-2" value="" style="shape=image;verticalLabelPosition=bottom;labelBackgroundColor=default;verticalAlign=top;aspect=fixed;imageAspect=0;image=data:image/png,iVBORw0KGgoAAAANSUhEUgAAB4AAAAQ4CAYAAADo08FDAAAgAElEQVR4nOzdXayl13kX8LXPHM+cc2bcNk6TuMIFuVRN2lRtHdlJmzRjSm8QKRKUAhc4F6UVkouEmxLnBu64QUpC+BJU4kMItSA+grhI1bu2dkppY0KQTBUjCAbVVRMjnEIyn56ZzYVP69l71jnrWc+79j7vOfP7XbVr/s+z9n7zekaav2amFAAAAAAAAAAAAAAAAAAAAAAAAAAAAAAAAAAAAAAAAAAAAAAAAAAAAAAAAAAAAAAAAAAAAAAAAAAAAAAAAAAAAAAAAAAAAAAAAAAAAAAAAAAAAAAAAAAAAAAAAAAAAAAAAAAAAAAAAAAAAAAAAAAAAAAAAAAAAAAAAAAAAAAAAAAAAAAAAAAAAAAAAAAAAAAAAAAAAAAAAAAAAAAAAAAAAAAAAAAAAAAAAAAAAAAAAAAAAAAAAAAAAAAAAAAAAAAAAAAAAAAAAAAAAAAAAAAAAAAAAAAAAAAAAAAAAAAAAAAAAAAAAAAAAAAAAAAAAAAAAAAAAAAAAAAAAAAAAAAAAAAAAAAAAAAAAAAAAAAAAAAAAAAAAAAAAAAAAAAAAAAAAAAAAAAAAAAAAAAAAAAAAAAAAAAAAAAAAAAAAAAAAAAAAAAAAAAAAAAAAAAAAAAAAAAAAAAAAAAAAAAAAAAAAAAAAAAAAAAAAAAAAAAAAAAAAAAAAAAAAAAAAAAAAAAAAAAAAAAAAAAAAAAAAAAAAAAAAAAAAAAAAAAAAAAAAAAAAAAAAAAAAAAAAAAAAAAAAAAAAAAAAAAAAAAAAAAAAAAAAAAAAAAAAAAAAAAAAAAAAAAAAAAAAAAAAAAAAAAAAAAAAAAAAAAAAAAAAAAAAAAAAAAAAAAAAAAAAAAAAAAAAAAAAAAAAAAAAAAAAAAAAAAAAAAAAAAAAAAAAAAAAAAAAAAAAAAAAAAAAAAAAAAAAAAAAAAAAAAAAAAAAAAAAAAAAAAAAAAAAAAAAAAAAAAAAAAAAAAAAAAAAAAAAAAAAAAAAAAAAAAAAAAAAAAAAAAAAAAAAAAAAAAAAAAAAAAAAAAAAAAAAAAAAAAAAAAAAAAAAAAAAAAAAAAAAAAAAAAAAAAAAAAAAAAAAAAAAAAAAAAAAAAAAAAAAAAAAAAAAAAAAAAAAAAAAAAAAAAAAAAAAAAAAAAAAAAAAAAAAAAAAAAAAAAAAAAAAAAAAAAAAAAAAAAAAAAAAAAAAAAAAAAAAAAAAAAAAAAAAAAAAAAAAAAAAAAAAAAAAAAAAAAAAAAAAAAAAAAAAAAAAAAAAAAAAAAAAAAAAAAAAAAAAAAAAAAAAAAAAAAAAAAAAAAAAAAAAAAAAAAAAAAAAAAAAAAAAAAAAAAAAAAAAAAAAAAAAAAAAAAAAAAAAAAAAAAAAAAAAAAAAAAAAAAAAAAAAAAAAAAAAAAAAAAAAAAAAAAAAAAAAAAAAAAAAAAAAAAAAAAAAAAAAAAAAAAAAAAAAAAAAAAAAAAAAAAAAAAAAAAAAAAAAAAAAAAAAAAAAAAAAAAAAAAAAAAAAAAAAAAAAAAAAAAAAAAAAAAAAAAAAAAAAAAAAAAAAAAAAAAAAAAAAAAAAAAAAAAAAAAAAAAAAAAAAAAAAAAAAAAAAAAAAAAAAAAAAAAAAAAAAAAAAAAAAAAAAAAAAAAAAAAAAAAAAAAAAAAAAAAAAAAAAAAAAAAAAAAAAAAAAAAAAAAAAAAAAAAAAAAAAAAAAAAAAAAAAAAAAAAAAAAAAAAAAAAAAAAAAAAAAAAAAAAAAAAAAAAAAAAAAAAAAAAAAAAAAAAAAAAAAAAAAAAAAAAAAAAAAAAAAAAAAAAAAAAAAAAAAAAAAAAAAAAAAAAAAAAAAAAAAAAAAAAAAAAAAAAAAAAAAAAAAAAAAAAAAAAAAAAAAAAAAAAAAAAAAAAAAAAAAAAAAAAAAAAAAAAAAAAAAAAAAAAAAAAAAAAAAAAAAAAAAAAAAAAAAAAAAAAAAAAAAAAAAAAAAAAAAAAAAAAAAAAAAAAAAAAAAAAAAAAAAAAAAAAAAAAAAAAAAAAAAAAAAAAAAAAAAAAAAAAAAAAAAAAAAAAAAAAAAAAAAAAAAAAAAAAAAAAAAAAAAAAAAAAAAAAAAAAAAAAAAAAAAAAAAAAAAAAAAAAAAAAAAAAAAAAAAAAAAAAAAAAAAAAAAAAAAAAAAAAAAAAAAAAAAAAAAAAAAAAAAAAAAAAAAAAAAAAAAAAAAAAAAAAAAAAAAAAAAAAAAAAAAAAAAAAAAAAAAAAAAAAAAAAAAAAAAAAAAAAAAAAAAAAAAAAAAAAAAAAAAAAAAAAAAAAAAAAAAAAAAAAAAAAAAAAAAAAAAAAAAAAAAAAAAAAAAAAAAAAAAAAAAAAAAAAAAAAAAAAAAAAAAAAAAAAAAAAAAAAAAAAAAAAAAAAAAAAAAAAAAAAAAAAAAAAAAAAAAAAAAAAAAAAAAAAAAAAAAAAAAAAAAAAAAAAAAAAAAAAAAAAAAAAAAAAAAAAAAAAAAAAAAAAAAAAAAAAAAAAAAAAAAAAAAAAAAAAAAAAAAAAAAAAAAAAAAAAAAAAAAAAAAAAAAAAAAAAAAAAAAAAAAAAAAAAAAAAAAAAAAAAAAAAAAAAAAAAAAAAAAAAAAAAAAAAAAAAAAAAAAAAAAAAAAAAAAAAAAAAAAAAAAAAAAAAAAAAAAAAAAAAAAAAAAAAAAAAAAAAAAAAAAAAAAAAAAAAAAAAAAAAAAAAAAAAAAAAAAAAAAAAAAAAAAAAAAAAAAAAAAAAAAAAAAAAAAAAAAAAAAAAAAAAAAAAAAAAAAAAAAAAAAAAAAAAAAAAAAAAAAAAAAAAAAAAAAAAAAAAAAAAAAAAAAAAAAAAAAAAAAAAAAAAAAAAAAAAAAAAAAAAAAAAAAAAAAAAAAAAAAAAAAAAAAAAAAAAAAAAAAAAAAAAAAAAAAAAAAAAAAAAAAAAAAAAAAAAAAAAAAAAAAAAAAAAAAAAAAAAAAAAAAAAAAAAAAAAAAAAAAAAAAAAAAAAAAAAAAAAAAAAAAAAAAAAAAAAAAAAAAAAAAAAAAAAAAAAAAAAAAAAAAAAAAAAAAAAAAAAAAAAAAAAAAAAAAAAAAAAAAAAAAAAAAAAAAAAAAAAAAAAAAAAAAAAAAAAAAAAAAAAAAAAAAAAAAAAAAAAAAAAAAAAAAAAAAAAAAAAAAAAAAAAAAAAAAAAAAAAAAAAAAAAAAAAAAAAAAAAAAAAAAAAAAAAAAAAAAAAAAAAAAAAAAOZmcdIfAObst579hj+1KMsnQ+GJ/zUtBv/XuFgsJy4YGkuEK+NTv9M9+4auO1xaO+r43DN77kc/own/W1Sf0bT5eOyIz72RZzRB1zOqfKe5vUfVw/E/R03+n2Lyu5n/TvVnlF73xnh4ftrPUZ3v0T/f++nXP9czAgAAAHCUxUZ+cw5Ov92T/gAwc08uy+KZUIG3LJN+s365HFskLZeLaYVp8Pt0fe3Jz2jid7pn3wbKu8p3XJZFvASe2XM/+hktSroErj6j8d+nHjvic2/kGU3Q9Ywq32lu71FtdLmYVgJPfY82sXPCd6o/o57LKzvD72bHf8/T//v9z6UUBTAAAAAAbNDOSX8AOA2W0d/anthNLsf+AdeyXE5spTr6gNE7jxyf+p3u2Td03eHS2lHH557Zcz/6GU1ppkJHXfPx2BGfeyPPaIKuZ1T5TnN7j6qH43+Omvw/xeR3M/+d6s8ove6N8fD8tJ+jNvGfAAAAAACQowCGICXwkFgiXBlXAvfGEuG1USVw+x4lcG5UCdy+RwkMAAAAAHRQAEMHJfCQWCJcGVcC98YS4bVRJXD7HiVwblQJ3L5HCQwAAAAABCmAoZMSeEgsEa6MK4F7Y4nw2qgSuH2PEjg3qgRu36MEBgAAAAACFMCQoAQeEkuEK+NK4N5YIrw2qgRu36MEzo0qgdv3KIEBAAAAgAYFMCQpgYfEEuHKuBK4N5YIr40qgdv3KIFzo0rg9j1KYAAAAADgGApgmEAJPCSWCFfGlcC9sUR4bVQJ3L5HCZwbVQK371ECAwAAAABHUADDRErgIbFEuDKuBO6NJcJro0rg9j1K4NyoErh9jxIYAAAAAKhQAMMASuAhsUS4Mq4E7o0lwmujSuD2PUrg3KgSuH2PEhgAAAAAWKMAhuN0/I61EnhILBGujCuBe2OJ8NqoErh9jxI4N6oEbt+jBAYAAAAA7qIAhhYlcGDB0FgiXBlXAvfGEuG1USVw+x4lcG5UCdy+RwkMAAAAABxSAEOEEjiwYGgsEa6MK4F7Y4nw2qgSuH2PEjg3qgRu33NKSmAAAAAAYLMUwBClBA4sGBpLhCvjSuDeWCK8NqoEbt+jBM6NKoHb9yiBAQAAAOC+pwCGHkrgwIKhsUS4Mq4E7o0lwmujSuD2PUrg3KgSuH2PEhgAAAAA7msKYOilBA4sGBpLhCvjSuDeWCK8NqoEbt+jBM6NKoHb9yiBAQAAAOC+pQCGDCVwYMHQWCJcGVcC98YS4bVRJXD7HiVwblQJ3L5HCQwAAAAA9yUFMGQpgQMLhsYS4cq4Erg3lgivjSqB2/cogXOjSuD2PXMsgQEAAACAjVIAwxRK4MCCobFEuDKuBO6NJcJro0rg9j1K4NyoErh9jxIYAAAAAO4rCmCYSgkcWDA0lghXxpXAvbFEeG1UCdy+RwmcG1UCt+9RAgMAAADAfUMBDCMogQMLhsYS4cq4Erg3lgivjSqB2/cogXOjSuD2PUpgAAAAALgvKIBhFCVwYMHQWCJcGVcC98YS4bVRJXD7HiVwblQJ3L5HCQwAAAAAZ54CGEZSAgcWDI0lwpVxJXBvLBFeG1UCt+9RAudGlcDte5TAAAAAAHCmKYBhNCVwYMHQWCJcGVcC98YS4bVRJXD7HiVwblQJ3L5HCQwAAAAAZ5YCGDZBCRxYMDSWCFfGlcC9sUR4bVQJ3L5HCZwbVQK371ECAwAAAMCZpACGTVECBxYMjSXClXElcG8sEV4bVQK371EC50aVwO17lMAAAAAAcOYogOEYk0sXJXBgwdBYIlwZVwL3xhLhtVElcPseJXBuVAncvkcJDAAAAABnigIYGpTAkX1K4Pa+oesOl9aOlMCrS0NHXfPxmBI4EUuEA6NK4PY9SmAAAAAAODMUwBCgBI7sUwK39w1dd7i0dqQEXl0aOuqaj8eUwIlYIhwYVQK375nZrysAAAAAQI4CGIKUwJF9SuD2vqHrDpfWjpTAq0tDR13z8ZgSOBFLhAOjSuD2PTP7dQUAAAAA6KcAhg5K4Mg+JXB739B1h0trR0rg1aWho675eEwJnIglwoFRJXD7npn9ugIAAAAA9FEAQyclcGSfEri9b+i6w6W1IyXw6tLQUdd8PKYETsQS4cCoErh9z8x+XQEAAAAA4hTAkKAEjuxTArf3DV13uLR2pAReXRo66pqPx5TAiVgiHBhVArfvmdmvKwAAAABAjAIYkpTAkX1K4Pa+oesOl9aOlMCrS0NHXfPxmBI4EUuEA6NK4PY9M/t1BQAAAABoUwDDBErgyD4lcHvf0HWHS2tHSuDVpaGjrvl4TAmciCXCgVElcPuemf26AgAAAAAcTwEMEymBI/uUwO19Q9cdLq0dKYFXl4aOuubjMSVwIpYIB0aVwO17ZvbrCgAAAABwNAUwDKAEjuxTArf3DV13uLR2pAReXRo66pqPx5TAiVgiHBhVArfvmdmvKwAAAABAnQIYBlECR/Ypgdv7hq47XFo7UgKvLg0ddc3HY0rgRCwRDowqgdv3zOzXFQAAAADgXgpgGEgJHNmnBG7vG7rucGntSAm8ujR01DUfjymBE7FEODCqBG7fo8QFAAAAgFlTAMNgSuDIPiVwe9/QdYdLa0dK4NWloaOu+XhMCZyIJcKBUSVw+x4lMAAAAADMlgIYNkAJHNmnBG7vG7rucGntSAm8ujR01DUfjymBE7FEODCqBG7fowQGAAAAgFlSAMOGKIEj+5TA7X1D1x0urR0pgVeXho665uMxJXAilggHRpXA7XuUwAAAAAAwOwpg2CAlcGSfEri9b+i6w6W1IyXw6tLQUdd8PKYETsQS4cCoErh9jxIYAAAAAGZFAQwbpgSO7FMCt/cNXXe4tHakBF5dGjrqmo/HlMCJWCIcGFUCt+9RAgMAAADAbCiAYQuUwJF9SuD2vqHrDpfWjpTAq0tDR13z8ZgSOBFLhAOjSuD2PUpgAAAAAJgFBTBsiRI4sk8J3N43dN3h0tqREnh1aeioaz4eUwInYolwYFQJ3L5HCQwAAAAAJ04BDMeYXXmnBA4sGBpLhCvjc3uPqktrR0rg1aWho675eEwJnIglwoFRJXD7HiUwAAAAAJwoBTA0zK68UwIHFgyNJcKV8bm9R9WltSMl8OrS0FHXfDymBE7EEuHAqBK4fY8SGAAAAABOjAIYAmZX3imBAwuGxhLhyvjc3qPq0tqREnh1aeioaz4eUwInYolwYFQJ3L5HCQwAAAAAJ0IBDEGzK++UwIEFQ2OJcGV8bu9RdWntSAm8ujR01DUfjymBE7FEODCqBG7fowQGAAAAgK1TAEOH2ZV3SuDAgqGxRLgyPrf3qLq0dqQEXl0aOuqaj8eUwIlYIhwYVQK371ECAwAAAMBWKYCh0+zKOyVwYMHQWCJcGZ/be1RdWjtSAq8uDR11zcdjSuBELBEOjCqB2/cogQEAAABgaxTAkDC78k4JHFgwNJYIV8bn9h5Vl9aOlMCrS0NHXfPxmBI4EUuEA6NK4PY9SmAAAAAA2AoFMCTNrrxTAgcWDI0lwpXxub1H1aW1IyXw6tLQUdd8PKYETsQS4cCoErh9jxIYAAAAADZOAQwTzK68UwIHFgyNJcKV8bm9R9WltSMl8OrS0FHXfDymBE7EEuHAqBI4fw8AAAAAMIQCGCaaXXmnBA4sGBpLhCvjc3uPqktrR0rg1aWho675eEwJnIglwoFRJXD+HgAAAABgMgUwDDC78k4JHFgwNJYIV8bn9h5Vl9aOlMCrS0NHXfPxmBI4EUuEA6NK4Pw9AAAAAMAkCmAYZHblnRI4sGBoLBGujM/tPaourR0pgVeXho665uMxJXAilggHRpXA+XsAAAAAgDQFMAw0u/JOCRxYMDSWCFfG5/YeVZfWjpTAq0tDR13z8ZgSOBFLhAOjSuD8PQAAAABAigIYBptdeacEDiwYGkuEK+Nze4+qS2tHSuDVpaGjrvl4TAmciCXCgVElMAAAAACwRQpg2IDZlXdK4MCCobFEuDI+t/eourR2pAReXRo66pqPx5TAiVgiHBhVAgMAAAAAW6IAhg2ZXXmnBA4sGBpLhCvjc3uPqktrR0rg1aWho675eEwJnIglwoFRJTAAAAAAsAUKYDjOWSvvlMCBBUNjiXBlfG7vUXVp7UgJvLo0dNQ1H48pgROxRDgwqgQGAAAAADZMAQwtZ628UwIHFgyNJcKV8bm9R9WltSMl8OrS0FHXfDymBE7EEuHAqBIYAAAAANggBTBEnLXyTgkcWDA0lghXxuf2HlWX1o6UwKtLQ0dd8/GYEjgRS4QDo0pgAAAAAGBDFMAQddbKOyVwYMHQWCJcGZ/be1RdWjtSAq8uDR11zcdjSuBELBEOjCqBAQAAAIANUABDj7NW3imBAwuGxhLhyvjc3qPq0tqREnh1aeioaz4eUwInYolwYFQJDAAAAAAMpgCGXmetvFMCBxYMjSXClfG5vUfVpbUjJfDq0tBR13w8pgROxBLhwKgSGAAAAAAYSAEMGWetvFMCBxYMjSXClfG5vUfVpbUjJfDq0tBR13w8pgROxBLhwKgSGAAAAAAYRAEMWWetvFMCBxYMjSXClfG5vUfVpbUjJfDq0tBR13w8pgROxBLhwKgSGAAAAAAYQAEMU5y18k4JHFgwNJYIV8bn9h5Vl9aOlMCrS0NHXfPxmBI4EUuEA6NKYAAAAABgIgUwTHXWyjslcGDB0FgiXBmf23tUXVo7UgKvLg0ddc3HY0rgRCwRDowqgQEAAACACRTAcIzwb26ftfJOCRxYMDSWCFfG5/YeVZfWjpTAq0tDR13z8ZgSOBFLhAOjSmAAAAAAIEkBDA1K4EhUCTwglghXxuf2HlWX1o6UwKtLQ0dd8/GYEjgRS4QDo0pgAAAAACBBAQwBSuBIVAk8IJYIV8bn9h5Vl9aOlMCrS0NHXfPxmBI4EUuEA6NnsQQGAAAAADZKAQxBSuBIVAk8IJYIV8bn9h5Vl9aOlMCrS0NHXfPxmBI4EUuEA6NKYAAAAACggwIYOiiBI1El8IBYIlwZn9t7VF1aO1ICry4NHXXNx2NK4EQsEQ6MKoEBAAAAgKDdk/4AcNosS7DKCQePGF8uymIx7rfSl8tSFlP6g47vsyyLsojUAJOf0cTvdM++Cc98sVN23/po2Xnw7aXstH9q3ea/gjnyPXpj39B1h0trh7nPvbz2Wrn9f/57Wd66cc+28Eef8G4e/V4uSroeq3yeTXyfeuyIz72RZzRB1zOqfKdJz2hEODC6XJQy5b/nqe/RtnYCAAAAAJMogCFBCRyJ3h8l8OL8xXLpyZ8pB+/98bJz6W3jPgiTLG9dLzde/Dflyi//9XLn/77y5nlRAudiSuBELBEOjCqBAQAAAIAGfwU0JPnroCPRs/3XQe88+HD55p/6pXLpj35M+Tszi929svfYU+Whp3+jPPDIEys/5q+Dzsb8ddCJWCIcGPXXQQMAAAAAx1AAwwRK4Ej0jJbAi53y0If/Rdl9x3eNvZihFvvfVL7hz3+67Fx6x8q5EjgbUwInYolwYFQJDAAAAAAcQQEMEymBI9GzVwLvf++PlQe+9fGxF7IROwdvLRd/6K/ec64EzsaUwIlYIhwYVQIDAAAAABUKYBhACRyJnq0SeP97/8zYi9iovcc+XHYefPiecyVwNqYETsQS4cCoEhgAAAAAWKMAhuN0FZzjd1bHlcDt8S2UwLtve+fYS9isc+fLwfufqf6QEjgbUwInYolwYFQJDAAAAADcRQEMLUrgwIKe6NkogXcuvnXsBWzc3uM/UXYOHqr+mBI4G1MCJ2KJcGBUCQwAAAAAHFIAQ4QSOLCgJ3o2SmBOl8X5i2X/fU8f+eNK4GxMCZyIJcKB0VNSAgMAAAAAm6UAhiglcGBBT1QJzPbtv+/psjh/6cgfVwJnY0rgRCwRDowqgQEAAADgvqcAhh5K4MCCnqgSmO1a7L+l7D/xE8dmlMDZmBI4EUuEA6NKYAAAAAC4rymAoZcSOLCgJ3pKS+Cx69ii/fc/Uxa7F47NKIGzMSVwIpYIB0aVwAAAAABw31IAQ4YSOLCgJ3o6S2BOp51L7yh7j324mVMCZ2NK4EQsEQ6MKoEBAAAA4L60e9IfAE6tZQn3M+Fox87q+HJRFotxv7u+XJaymNIfdD2jRVlEmoHJz2jid0q69b//W/n6c5+ctKPrY0/8jifxjLotSlns7JZLH/pEWezudY3uf+Cny7XP/9NS7tw6Ntf1uk14N49+Lxcl3ZhVPs8mvk89dsTn3sgzmqDrGVW+06RnNCIcGF0uSpny68LU9wgAAAAA2DoFMEyhBA4sKErgUsqdr3+lXPv8zx8dCH6e7ZbAY/+o3kae+aKU3W/5vrL/3p/sGjv3lkfLhXf/6XLjxX/ZzCqBszElcCKWCAdGlcAAAAAAcF/xV0DDVP466MCCnuh9+tdBz+yvky1lhu9RdWkpV3/1U6Xcud09enD52RKtsPx10NmYvw46EUuEA6Nz/OugAQAAAICNUADDCErgwIKeqBJ4QCwRrozP7T2quP3V/1Wuv/ivuud23/6d5cI7PzS7564EDtyjBM6NKoEBAAAA4L6gAIZRlMCBBT1RJfCAWCJcGZ/be1Rx9flPphbvX/7oG//HzJ67EjhwjxI4N6oEBgAAAIAzTwEMIymBAwt6okrgAbFEuDI+t/doza1XXyo3XvpM99wDjzxRHvi2Jw8/VGxGCZyNKYETsUQ4MKoEBgAAAIAzTQEMoymBAwt6okrgAbFEuDI+t/dozdXnPpGaO7j8sTf/n5k9dyVw4B4lcG5UCQwAAAAAZ5YCGDZBCRxY0BNVAg+IJcKV8bm9R3d5/bc/X25+6Ze6585/2x8pDzzyxF0fKjanBM7GlMCJWCIcGFUCAwAAAMCZpACGY0wqu5TAgQU9USXwgFgiXBmf23t0l6vPfTw19/v/FvDvmdlzVwIH7lEC50aVwAAAAABw5iiAoUEJ3No3dUFPVAk8IJYIV8bn9h4duvnyZ8vrr7zQPXfhXT9Szr3tXWsfKjarBM7GlMCJWCIcGFUCAwAAAMCZogCGACVwa9/UBT3RU1oCb+kZKYHzfwr44pMfu/dwZs9dCRy4RwmcG1UCAwAAAMCZoQCGICVwa9/UBT3R01kCT37mMyuRSpnhe1RKufFff7Hc+spvds9d+O4fK+fe8mjlQ8XmlcDZmBI4EUuEA6NKYAAAAAA4ExTA0EEJ3No3dUFPVAk8IJYIV8Zn9x4tc38KeOdcOfjBjxyxM3h1z31K4LsogROxRDgwqgQGAAAAgFNPAQydlMCtfVMX9ESVwANiiXBlfGbv0fXf/Hfl9msvd89deOypsvPgw0d8qNgOJXA2pgROxBLhwKgSGAAAAABONQUwJCiBW/umLuiJKoEHxBLhyvic3qM7t8rVz36qe2yxe6Hsv/8vH/OhYnuUwNmYEjgRS4QDo0pgAAAAADi1FMCQpARu7Zu6oCeqBB4QS4Qr4zN6j65/4efKna/9Tvfc/hM/WRb7bznmQ8X2KIGzMSVwIpYIB0aVwAAAAABwKimAYQIlcGvf1AU9USXwgFgiXBmfyXu0vH2zXP33f6d7bnH+Ytn//qcby4OfoediJfBdlMCJWCIcGN3Sz1EAAAAAwDgKYJhICdzaN3VBT1QJPCCWCFfGZ/IeXXvhn5Q7V1/rntt/39Nlcf5S40PFdimBszElcCKWCAdGlcAAAOFaD1oAACAASURBVAAAcKoogGEAJXBr39QFPdHtlMCjKYEj+xIzN6+Ua7/+s91zOwcPlb3H/0LgguDn6LlcCXwXJXAilggHRpXAAAAAAHBqKIBhECVwa9/UBT1RJfCAWCJcGZ/Be3T11/9+Wd680j138IFnSjl3PvChYvuUwNmYEjgRS4QDo0pgAAAAADgVFMAwkBK4tW/qgp6oEnhALBGujJ/we7S89rvl2uf+Yfc9Ow8+XPbe8+HgJUNjifDaqBK4fY8SODeqBAYAAACA2VMAw2BK4Na+qQt6okrgAbFEuDJ+wu/R1V/7e2V563r3PQcf+EgpO7vBDzU0lgivjSqB2/cogXOjg/97BgAAAADGUgDDBiiBW/umLuiJKoEHxBLhyvgJvkd3vvblcv0LP999x7mHHi0X3v2jHR9qaCwRXhtVArfvUQLnRpXAAAAAADBbCmDYECVwa9/UBT1RJfCAWCJcGT/B9+jqZz9Vyp3b3XccPPlsWS46frmc2XNXAgfuUQLnRpXAAAAAADBLCmDYICVwa9/UBT1RJfCAWCJcGT+h9+j2V/9nuf7iv+7ev/v27yoX3vnH4+9QKbN77krgwD1K4NyoEhgAAAAAZkcBDBumBG7tm7qgJ6oEHhBLhCvjJ/QeXX3+E6mX7uDyR9+4Rwm8tjR01DUfjymBE7FEODCqBAYAAACAWVEAwxYogVv7pi7oiSqBB8QS4cr4CbxHt159qdx46Re6dz/wyBPl/KOX37hHCby2NHTUNR+PKYETsUQ4MKoEBgAAAIDZUADDliiBW/umLuiJKoEHxBLhyvgJvEdXn/9EavfB5WffvEcJvLY0dNQ1H48pgROxRDgwqgQGAAAAgFlQAMMWKYFb+6Yu6IkqgQfEEuHK+Jbfo9df+Y/l5pd+uXvv+T/8Q+WBRx5/8x4l8NrS0FHXfDymBE7EEuHAqBIYAAAAAE6cAhiOsYkCQAnc2jd1QU9UCTwglghXxrf8Hl197uOpvb/3bwH//j1K4LWloaOu+XhMCZyIJcKBUSUwAAAAAJwoBTA0KIED40rgTY/fu08JHNh39I/dfPn58vorL3TvvPDOD5Xdt71r9R4l8NrS0FHXfDymBE7EEuHAqBIYAAAAAE6MAhgClMCBcSVwe3zwe6QEjuw7+seuPv/J/oWLRTn44F+59x4l8NrS0FHXfDymBE7EEuHAqBIYAAAAAE6EAhiClMCBcSVwe1wJ3B7f0nt046VfKLde/WL3vr3v+bPl3Df+oXvvUQKvLQ0ddc3HY0rgRCwRDowqgQEAAABg6xTA0EEJHBhXArfHlcDt8W28R8tl7t8C3jlXDi5/5IjyTgm8ujR01DUfjymBE7FEODCqBAYAAACArVIAQyclcGD8fiiBJ1ICB8a38B5d/y//ttx+7eXuXXuPPVV2HnxYCRxaGjrqmo/HlMCJWCIcGFUCAwAAAMDWKIAhQQkcGFcCt+9RArfHN/0e3blVrv7q3+7es9jdKwc/8JcOl1buUQKvLQ0ddc3HY0rgRCwRDowqgQEAAABgKxTAkKQEDowrgdv3KIHb4xt+j67/p39W7nz9K9179t/3F8ti7xsPl1buUQKvLQ0ddc3HY0rgRCwRDowqgQEAAABg4xTAMIESODCuBG7fowRuj2/wPVrevpn7U8DnL5aDH/ipuxZV7lECry0NHXXNx2NK4EQsER42CgAAAAAkKYBhIiVwYFwJ3L5HCdwe3+B7dO2Ff1zuXH2te8f+9z9dFucv3rW0co8SeG1p6KhrPh5TAidiifCwUQAAAAAgQQEMAyiBA+NK4PY9SuD2+Ibeo+XNK+Xab/xs9/zOwUNl//EfX1tauUcJvLY0dNQ1H48pgROxRHjYKAAAAADQSQEMgyiBA+NK4PY9SuD2+Ibeo2v/4R+U5c0r3fMHP/hMWZw7v7a0co8SeG1p6KhrPh5TAidiifCwUQAAAACggwIYBlICB8aVwO17lMDt8Q28R3eufbVc+9w/6p7defBbyt5jT1WW1o6UwKtLQ0dd8/GYEjgRS4SHjQIAAAAAQQpgGEwJHBhXArfvUQK3xzfwHl39tb9blrdudM8efPAjpezsVpbWjpTAq0tDR13z8ZgSOBFLhAEAAACAbVIAwwYogQPjSuD2PUrg9vjg9+j2//tyuf6Fn+ueO/fQo2Xv3X+y/oNK4MDS0FHXfDymBE7EEmEAAAAAYFsUwLAhSuDA+CkugbdFCRwYH/weXfns3yrlzu3uuYPLHy1lES8TlcDrS0NHXfPxmBI4EUuEAQAAAIBtUADDBimBA+NK4CYlcGB84Ht0+7WXy/UXP909t/vwd5cL3/HHjg4ogQNLQ0dd8/GYEjgRS4QBAAAAgE1TAMOGKYED40rgJiVwYHzge3TluY+n5g6efPb4gBI4sDR01DUfjymBE7FEGAAAAADYJAUwbIESODB+P5TAk5/RmI/x5j4l8FFuvfrFcuOLn+mee+Bb31vOP/rB40NK4MDS0FHXfDymBE7EEmEAAAAAYFMUwLAlSuDAuBK4Pa4Ebo8Peo+uPP83U3MHlz/aDimBA0tDR13z8ZgSOBFLhAEAAACATVAAwxYpgQPjSuD2uBK4PT7gPXr9tz5Xbv6P57rnzn/7D5fdP/CedlAJHFgaOuqaj8eUwIlYIgwAAAAAjKYAhuNspLDdxE4l8PH7pi4Y8jGG7lQCB8YHvEfZfwv4YuRPAZeiBA4tDR11zcdjSuBELBEGAAAAAEZSAEOLEjgXnUF5t7pv6oIhH2PoTiVwYHzid7r5pV8pr7/yQvfche/8E2X37e+KhZXAgaWho675eEwJnIglwgAAAADAKApgiFAC56JK4I3vVAIHxid+pyvPJf4t4MWiHHzwZ+J5JXBgaeioaz4eUwInYokwAAAAADCCAhiilMC5qBJ44zuVwIHxCd/pxkufKbdefal7bu97/lw5901/MD6gBA4sDR11zcdjSuBELBEGAAAAAKZSAEMPJXAuqgTe+E4lcGA8+52Wy9y/Bbxzru9PAZeiBA4tDR11zcdjSuBELBEGAAAAAKbYPekPAHO2LIuyWP9d62WZ1F1U71mWshi+c1EWi+TvuHd8x3B04nOb9H2q+8Y/88kmP6Ox32nyMw9+n66vfULv0fUXP10u/fBfK+ceerRrbu89T5Urv/I3yp2vfTk+VPmO1Z+LOuYnxBLhtdEj38tFSbeC1Wc0/vvUY0d87o08owm6nlHlO83sPTpJ3/F9T570RwAA+P/snXe4XFXV/z9zW25PI5QECDX0AIGQBJKQhGIBBAugIgq8KqKIBdDX8vP1fe2iIPZeQFCxIGhQkRZIILSE3qvSQ4Dk1tw2vz/WveZmMvfO2WfvM2dm7vfzPPPAney99jp7zpxzZn/3WksIMTKzgL2BPYDtganAdKAJC35qB54CngX+BTwIrAbuS8FXUfrsBuyLnVPbA9tg59NE7BdtF3YePQc8jZ1P9wB3puGsEEKMhgRgIQogEThg0zEsAlc1TaZ+r6OjNfb0KdQxDbS/TO/z90BvR3wjJSgixTqPBvroWH4hrW/6llO3TE09jfM+SPvVn3MbTyJwLH8kAucapTRFYCGEEEIIIYTwZwrwVeC0Au22AHbIea8H+C1wLvBScM9EOTIe+ApwMtBcoG2+el+/Bj4FPBPYLyGEiI0EYCEiIBE4YNMxKgLXbrUHk99zafIDBSbb20XnHRfTdvX/ku1eH9MIJSVGQrzzqHvVxTQv+RRVzVs59WuYczodN36TbPc6p34SgeP5IxE41yilJwILIYQQQgghhD9vo7D4OxJ1wLuBu4Hzg3kkypk3Amd49H8X8Djw+SDeCCFEAFQDWIiI5K3DmUAkk2oCR+heajWBK5hMbQNN897PFh+6kerWqfENlWBNUdfzKNu3gY7l33YeJ1PXROPcDzj3s0HzvaWawJsajfSWU//ozVQTOEYzIYQQQgghhAjB+AA2mgLYEJXBhAA2GgLYEEKIYEgAFsIBicABm0oELitqttiZCSddDBmP20aJiZHgfh513fZTBrpecx6nYd6HyNTF/F0pETiC0UhvOfWP3kwicIxmQgghhBBCCOFLdwAbnQFsiMpgQ4nYEEKIYEgAFsIRicABm0oELivqtj+I+n3e6mekxMRIcDuPsj0ddN3yfecxqhon0XDgKc79Ng6c7y2JwJsajfSWU//ozSQCx2gmhBBCCCGEED70BbDRG8CGqAwG0nZACCFCIwFYiBhIBA7YVCJwWdG8+GyyvreOEhMjwe086lz5I7I9Hc5jNB5yFpnqOud+/0EicASjkd5y6h+9mUTgGM2EEEIIIYQQIk3000UMoc0AQoiKQwKwEDGRCBywqUTgsqF2672o3+MN/nNeYmIkRD+PBjrX0nX7z53tV7VOo36/dzr32wSJwBGMRnrLqX/0ZhKBYzQTQgghhBBCiLQIu6Akyhn9hBVCVBw1aTsgRDmTJUMm9/kgS/DHx2wWMsFtZshkYj7bOBxj5Kae8+Z1PHntjT7nAx1rqapvDTZeOdG8+By6H7jKf84jfuZOp0aRzqOO5RfSOPcDUF3rZL9x4dl0rboIsh6ZhfIcY95rkUN/j2YxGud0HfG7liH276+8cxT+ePI3G8HvRObIA6c5ynNMSZxHIk2qhr0yQD1QO/jf6sE2GWxXfDtWb21g2EuLJUJULhls3aAO2BLYCmgFxg2+1zDYrh+7NvQN/vc14FXgRaCLMGk6hT/bAHsAuwLbAltjn2k9VrfwReAF4HngceCuwb+FEEKISkc/XYUQFYcEYCE8kQgcsGkZicB9ax6jZvKOwcYqJ+q2O5BxOx/KhseXjVkReKDtBbpWXUTD7P9ysl09aUfq934L3ff+Ib6DIBE4pj8SgXONIhF47FALjAdasIX+XYAd2bjwPwWYCEzGBN8hIXjov0NkMZFnAGgD1mICzwvAs8BzwKPAk4P//homKAghyoNm7DowHZgF7A7sBGyPXSNqMdF36Dox9AK7PgwM+2/f4KsHeBl4DBMUHwUeBp4C1gPrUMrFYrAQ+DCwCGhio3A/Ghuw6/gK4ArgUiTkCyGEEEIIUTZIABYiABKBAzYtExG4864/Ur/7EcHGKTeal5zDhseXAQHmvMTESIh2TB3LL6ThgFOgqnrUdrk0Ljyb7vv+6J/bVyJwLH8kAucaRSJwZdIC7IyJNjOB/dkY8RXq+X9ISB6JJ4H7gNXAKkz4eQAThoQQpcMOwJ7AwcAC4ABMIIzDSA9FWw6OMZwB4BHsunAfcA8bxWFtHAnLPsCfMRHfhXHYtf4tg6+tga+HdU0IIYQQQgiRFBKAhRgNJ4FTInCwpmUgAneu/j3N8z9A3bb7BRunnBi386HUbT+bnn/dDoxNEbh/7RN03/cn6mce72S3Zut9qJvxOnoe/nt854aQCBzLH4nAuUaRCFwZ7AHMAfYDZmOib5QIr6TYcfB1zODf64DlmBh8I3BNSn4VYjs2RjBGYehL0Q28kpRTKVIHTMJ+N0adk14sMrwSIwWrsQjZWqLfmKqwyPnnk3IqBpOAN2Gi7xGYCFxsqrAI490xcREsc8CtbNw4ch3wUgq+VRq74S7+5uPgADaEEEIIIYQQRUICsBCFkAgcoTNjTwQe6GPtr05iyvuvoGbKaAFQlUvzorN55aK3/+fvsSgCdyw7z1kABmg69NwwAjBIBI7pj0TgXKMUTQQWQXkd8EZgL0xEmZauO6MyHjhq8NULrMRE4IuwVLBp8w7gDKw+Zha30zWLHdPLWCrsnwHXh3awiEwDTsM2EgzVe60m+pz0Yal9nwGuAn6RgI/FpBZ4H3AkG+fD5Xd0BhPPXwAuBC4P7aADewLvB5ZgUaGlRgtw+OAL4EEsOngZcBmwJiW/yp3uQHZeDWRHCCGEEEIIUQQkAAsRBYnAEToz5kTg/tee4aVvL6bliE/SdNC7qapvDTZWOVC/5xup2WpP+l584D/vjTURuO/FB9jw0FLG7X6Uk83a7eZQt+MCep68Kb5jw5EIHMsficC5RimKCCy8aAEOAt6G1XPckXSjfONSi6WaXQB8AIvyOx+L+EuD/YFfs7GWqS/HAl+gPFOlvgX4NuE2E7wNizQ9jfIUj3YGLsGi633ZDTvXngTuCmDPhblY/dcjsJrf5cIeg6/jgU9gWQR+jG0gUZro6Gj/lRBCCCGEEGMQCcBCREUicITOjDkReKB7Pev+8hnWX/V5aracQVVjhOxqDsdTLC1l3I7zaDnys879Wpacw6u/OW2T98aaCNyx7JvOAjBYLeBgAjBIBI7pj0TgXKNIBC49MphwdAwWhbgjlfUMvw1wEiYUXgR8DasXXEwOJ5z4C9CMHcdKLN11ubAjYcXfIY7Dol/PCGy3GFxAGPF3iFZgHsUTgHcCzgH+C0vnXc5sD7wTE4NXYNHUf07VIyGEEEIIIYQoYSpp8UiI5JEIHKEzY04EBsj299L7/P3RjTiJwBF995ijDU/dQuNBp1A9YVunfg37vJm2q79I39onNnl/LInAvf++jZ4nbqRup4VO9up2OZyaqfvT99zq+E7lIhE4lj8SgXONIhG4NMhg0ZhvxQSPSn9uH4cJ3CdgkbMXAF1FGjupFB6fxdIGlwunklwa8ZOxyM2AN73EeRMba1iHpBhR+7XA6cD/Eab2aylRCywafF2KRds/lKI/QgghhBBDKOuGEKKkCLnTXYixgcOtPJtvBTyBR4FsIjZ9lLIEmnoeo9fx5LXna8ClqYOiHpeBPtquP9+9X1U1zYd+NL87vnPuoFmGtjli9xGOqWPZebHsNR16ro87+cmrLzp8FiU27yN/18Jeo5I4nvzNRvA7kTnywGmOinOvG0NUYULoP4A/YLVpK138Hc544EvA1Vi662KQVMTxEVi0ZzkwGUvTnBRNwLsStJ8EZyVkd21CdoeYhX1/vkPlib+5vBNLIZ+EUC+EEEII4Upf2g4IIcRwJAALEQeJwBE6J9BUInBQm7l03nkJ/W0vOvdrOOAkqsfnDxgaKyJwz+PX0/vMHc62xu1xDNVb7ObnUD4kAkcwGuktp/7Rm0kEFiNyKnA7Fil5RMq+pM184O/AKUUYK8mo1LcnaDskB5Bc9O8Qc4H6hMcIxW7A7ATs9gJPJWB3iPdim0cWJThGqbENcDmWRl4IIYQQIk30K1gIUVJIABYiLhKBI3ROoKlE4KA2N+nW20X7Td9z7peprqV54chBMmNFBO5Y9k13Q5kMjQs/XkTxTiLwpkYjveXUP3ozicBiE7YAfgf8DIveE8ZE4OfA5xIe52mSSyFbLimgFxVhjD2BXYswTgiOIZnU4E8BDyZgtwb4BvAT7Hoy1qgGvovVPBZCCCGESAsVQxJClBQSgIXwQSJwhM4JNJUIHNTmcDpu+QkDXa8592s86BSqmiaP7M4YEIE3PLSUvjUPO9tp2PdEqidsJxE4SleJwIXHkQhcjjRj0WsnoAWDfGSA/wUuTHCM14AbErI9DdgnIdshObgIY0wA9ijCOCE4MCG7dwIvBbbZitXCPTuw3XJjK+DMtJ0QQgghhBBCiFJBArAQvkgEjtA5gaYSgYPa/E+Xng46VvzAuV+mtoHm+R8a3Xali8DZATqWfcPdSFUNjQs+NmjPz5+8SASOYDTSW079ozeTCCw4B0t3LEbnLOCrCdq/KSG7zcCChGyHYhKwV5HGmlmkcXyYgEUrhyYLXBvY5mTgr8Dxge2WK/OxaGAhhBBCCCGEGPNIABZiFJIQIyUCB2wqETiozSHaV/yIbE+nc7/Gee+nqn70bImVLgJ33/N7+l992tlGwwHvpqp5y0F7fv7kRSJwBKOR3nLqH72ZROAxzHjguLSdKCM+CZyRkO07gJcTsJuh9AXgudi5WAzmUPp1gA8kmUjl54GlAe1NwrIHlPr5VUwmAlPSdkIIIYQQZYmyMQkhKg4JwEIUQCJwrk2JwKPb8zXg0jQZEXig8xU6Vv7UrRNQVd9K49z3FnankkXggT46brrAuX+mpp7GgzdmLZQIHKGrRODC40gELgcmALuk7USZ8R1gSQJ2HwWWJ2AXLLq2MSHbIZgH1BZprAOBbYo0Vlz2xWrqhuZuTAQOQTXwfST+5lJPMrWbhRBCCFH5DKTtgBBChEYCsBARkAica1Mi8Oj2fA24NE1GBG6/8btk+7rdOgHNC84kU9tQ2J0KFoG7V1/CQPuLzv0b57yPTP3GACyJwBG6SgQuPE4pisBiOHVAU9pOlBlDwteWge1mgZWBbQ4xndKuA5xUvdt8TAB2LOJ4cZiVkN2rA9r6P+DEgPYqhSqSEe+FEEIIUfn0pe2AEEKERgKwEBGRCJxrUyLw6PZ8Dbg0DS8C97e9QOedl0bvMEhV0xY0HvSeaO5UqAic7e2ic8V3nftmxrXQOPf0HHt+/uRFInAEo5HecuofvZlEYCEisBvw5QTsLgPcayAUppXiiqwuNAI7FXnMUp0LsOjkgxOw20m49M9vAz4dyJYQQgghhBBCiApFArAQDkgEzrUpEXh0e74GXJqGF4Hbrj8fBvqjdxikeeFZZKrrorlToSJw560/Jtu9zrlv48FnkqndNEuoROAIXSUCFx5HIrCoPE4DXh/Y5p3AfYFtDnFAQnZ9mQNsV+QxD6Z0ozR3AXZIwO5qLM24L9sD3wtgRwghhBBCCCFEhVOqP7yFKFmyRFzGjtzQhJdM7rK5Q/+oZLOQCW4zQyYTU1lwmqPw8563u8/x5LXnOee+55GHzf5X/0Xn6stoPOAd0RwYpHr8tjTsfyKdd1wcqb33nEc8HqdTw/M8GtjQSect36dp8aec+lU1TqJh9ql03rzp2m4S3918xxj5HBqhv0ezGI1zuo44RxliK6d55yj88eRvNoLficyRB05z5PFZiCRYD7wIrAVeBjYA3UAv9mFVY/U064DxwBaDr63ScDYPGeBLwA2Y3yHoBW4GDgpkbzizgInAqwnY9mE2ULh2Q1gOxqKiXynyuFFI4rMH+FMgOxcSPv15FHqBe4CHgKeA54CXsMjmTqCHjRf4DLbRvBYYh6W5nwhMAaYNvnYA9sSuL0IIIYQQQgghEkACsBAxkAica1Mi8Oj2ylcEblt2AY2z3u58AM2Lz6bzzksgOxCpfSWKwB03/4jGQ84iU+dW3rPxkA/TdetPyPb3bOqORODCXSUCFx6nJERgUUR6gA7gceB2LALxceAJoA3oYqPwOwD0D/4XNorA1ZiQU4+JOc1YxOiuwL7AAmBbTNArNrOAE4CLAtr8G/BBwgtT+wC7A7cEtuvLvimMOQXYA1iRwtijUQMsTMj2NQFsvBk4LoCdKHRj14mlwPXAw9jmhXVsvEbEpQ67jkzAUm7vCczDNgZsQzrXEiGEEEIIZUoVQlQcEoCFiIlE4FybEoFHt1eeInDfiw/Rdf9fadj7mGiDD1IzeScaZr6Frrv/ELlPpYnAA51r6bz9FzQdcqZTv+rx21K/3zvouvNXm7sjEbhwV4nAhcdJXQQWCfMUJtysxKJZV2ERvr2OdrJA3+BrA9A+7N8eZqOgVQfsCLwJeB2wHzA5nuux+BBwKeZnCJYDzwPTA9kbogoTPUtJAG4CZqQ09hxKTwCehAmRobkT23jhQw3wmQC+FOIVTPD9AXATtokkND2D47yCXatWAD/BriU7A0cCR2DfF9f61Fn8BWohhBBCjE2kkwghKg7tbBHCg8hSgoPmoJrAAZt6HqNqAhtt150XfeBhNB/6UWeVqdJqAncs/zb0u2ou0LTwbMjkv0WrJnCEriP2VU3g/3Qt2nkkisAGTKj5HvAOYC5wGCYWLcXETPcLUXR6MEH4POBwTLz5PpZauhgcBBwd0F4nNp9JkFR64bjsgUUlp8EhKY07Gnth0cmh+QsWie/DO0m+jvQl2Pf3bcC1JCP+jkYP8CCW5vpo7PvyQeCPwJqINjYAryXinRBCCCEqHf18FUJUHBKAhfBEInCuTYnAo9vzNeDSNIwI3PvsXXQ/cm30gQepnTqT+t2OdO5XSSLwwPrn6Vz1a+d+1ZN3on6ft4zsjkTgwl0lAhceRyJwufNP4BOYYLMYOBP4LVbXN01WYVG5R2CRucXgnVia6lBcGdDWcA7F6iiXCnthqXjTYD9Kr/7rkoTsLvPs3wScEcKREVgLnAS8C4tWLhXWYpHIb8M2l/w3cH+BPi9gtYmFEEIIIYQQYswjAViIAEgEzrUpEXh0e74GXJqGEYHbr/9m9EGH0bzkE7H6VZII3HHTt2Cg37lf04KPjxpBLRE4QleJwIXHkQhcbqwCzgIOxFIunwfciNXuLTVWY6LSe/GPfizEm4FdAtpbhtU7Dc3uhE8t7cN+KY69Zcrj52NRAjbvB+72tHEQFtmfBI8Dr6d4mzXicg/wNUwIfgdwNZvfWrJYKmmlgBZCCCGEEEIIJAALMTopi5ESgQM2lQjsZXPDE8vpeWpl9EEHqdt+NuN2WuDcDypHBO5f+wTd913u3K9mm5mM2/WI0d2RCFy4q0TgwuNIBE6T9RSO2H0O+AWwEIv0/Q4WpdedrGvB+BlwAtCW4Bg1mDAUijX4R22ORNJpfKPSBMxKcfxmrA5wqbAVyaTDvh7/zQTHhnAkD68B7wHuSMh+EryAZTo4FtgX+BSWIvoPWATzL1PzTAghhBBCCCFKDAnAQhRCIrCHTYnAo9vzNeDS1F8Ebrvu69EHHEbz4nNi9YPKEYHbl8WLoG46tHAEtUTgCF0lAhceRyJwWryE1d3MZR2wAjgbEzlOw+rSri+ea0G5ChOakuQ4wv22yQJ/C2Qrl1KpfbsN6UfglooYDnAwMCEBu7d49m8ibI3r4XwSu86UI93AvcBXsRTRx1P6UcxCCCGEEEIIUVQkAAsRBYnAHjYlAo9uz9eAS1M/Ebj7kWvpfe6e6AMOMm7XxdRtF3+NtxJE4L4X7mPDQ3936wTUTp9L3Q6FtQKJwBG6SgQuPE6RziOxvY6KsQAAIABJREFUCVngi1hU798wAeMzwBuA+cD5wMupeReWy4HPJmh/HrB9QHs3k0yU9UJM1EubGUBryj7sQdjazT4swSLJQ/IkcI2njb2BnQP4kssyLLOAEEIIIYQQQogKRQKwEFGRCOxhUyLw6PZ8Dbg09RCBs1na4tYC9ogCtqHLXwRuvyFeBHXToedGaicROEJXicCFx5EInAavYnV934jVzP0y/lGDpcqXsJrFSdBA2Bquj5BMdOR0TNRLm1JIv7wLsGfaTgxyYAI2b8ei/H2IV0ejMBcCvQnZFkIIIYQQQghRAoTe5SxEZZMlsk4QuamTzQyZ3JV0h/5RyWYhE9xmhkwmpgqQ8rzn7e5zPHntec6573kU0WbXvVfQt+YRaqbMcHKvfo83UrPl7vS99JBTv03c8Z3ziHPkdGo4NO799+30PLmcuh3nR7UOQN2uh1Ozzb70PX93YXcS+O7mO8bI59AI/T2axWic03XEOcoQW6nMO0fhjyd/sxH8TmSOPEjgXiXKls+SnAh8KOFqgPYA1wKHBbI3RAbz89bAdl2oxVIep80kYH+g8A0uWXYBdkrA7rUBbOwbwEYuj1O+qZ+FqDSqB19VQB22malh8P+Hnpz6sYwUXUDn4N99wECxnR0DVGPrpA1YWYBGNn4OfVgpjnXYBpo+ymebY83gqwWYiB3X0Dk2gJ1f7VjWmQ3o/HKlCpvfKmxuG7FzqJaNc9yDfX/XY/Pbh32XxchksHmtxuZ0PJteH7PYd7ED+14Ovz4KdzJsvCdVYxmLGoH6wb+H6MXmugO7dgzNeblcD4UYc0gAFsIVicAeNiUCj26vDETg7ABtN1zAxON/4OZbJkPL4nN49XfvdeuX606Zi8Ady77hLAADNC06l3W/eVc0dyQCF+4qEbjwOBKBRXKsAJYCRyVgO3RN25Ukc+amLb5OwL/+7iPAFGwh2Ye9PPuHYB6wZWCba4F/BLCzawAbudyGf2SyEMKNVky82A67V20HbIVdRydhwlwLJm4MLbYP3XuymCjXjYkc64E1wHPAv4D7Bl+vDr7KkRpMbBjHxtIA/Zho1o2JDUmwFTAN25i1G5alYytgC+zzqs5p341d318GnsU21NwKrAZeJJnSEa7UY+fV7lh2i12wEhlbD77fhAmVQxkhs4OvPuzYXgKeB57GjmsldmyvFe0ISpsq7JlhV+xZalfsHNqKjd/z3E0cYCLwBuw7/Co2188CT2Ab4e4ffG99MQ6iBGnCnim3xbLU7AhMxeZ68uC/tWLzn2HjD+Asdq1ow76XLwLPYPN6B/DA4PtdxTuUkqeWjfO5N1YWZiob70kTsPtRK3Yu52pHWeza3IFdF9Zi14zn2Djv/wZewc55IUTKSAAWIg4SgT1sSgQe3V7pi8Cdq35H6xGfoXrCtk6uNez7Vtqu+RJ9a5906reZO2UsAm949Fp6n11F7bRZUS0DUL/nsXRMmUHfmkeiuSMRuHBXicCFx0nqPBJjnQHgEpIRgLfCFjCeC2RvFXAvMDOQvSH2xha501oU2QN/4XYpNtcnetrZG1tgTzMKxlcMz8e92OK5DzXYOR2axxOwKYTYlEZMGNoX22SyJ7bIvnVMe82D/502wr+3AQ9igt01mJj0YMyxisUO2BzNBfbBjm0iJgRlsHvkkNj9BHAzJnTfj18K++2wjVivAw7BPpeoNGFiVG6ftZhQejWW/eF+D//iMA7LqLEQE7P3w+7RrrRiwttwerDzajl2fHdgws5YY1dgNnA0JqzH2aDVgm0uyMdr2Pl9E3YO3YOd+5XMROw5cBFW8mJPRr7GFaJ1hL7PYQL7MuAG4E7GZoTw9li2m4OBWdhvgR0xgTcuk7DraT6ewK6DK7HMTw9i10khRApIABYiLhKBPWxKBB7dXomLwAN9tN1wAROOc6wHXFVN08KPsO7yj7r1y+dOGYvAHTd8gwknXRrVqpHJ0LjwbNb/8fTIXSQCR+gqEbjwOEmcR0LYwtYThE+7OxETa0MJwOuwBefQAvBUYD5hUgTHwT0Vxebcgy0G+wrAs7Dz4FFvj+JRT/jIcYArA9jYEosgCs0zCdgUQpgItxh4AybGzcSiAYtBC3DQ4Ot0TDhaAfwF+CN2PyslPgucxuZi42icgQndtwHnAHc5jnkocBImNoXOrjAZ29h2FCZyXANcjG2WSpIpwCnYObeQzSOWQ1CHRWTOAc7GBLTLgUsBv53d5cES4F3AkcQXJ6MwAXs+mw98ChMtVwKXAdclOG4azMeeH+diYnqSTB18vQETfm8ArsBKxrQnPHba7IKVsjkMe97euYhj7zT4Ombw76HNSVegMiRCFJ2qwk2EECPioA9EbupkM8+qfALRVdlEbPoorgk09TxGr+PJa8/XgEtTB0V9kM47fk1/24tuPgGNB55MdUvcje857vjOuYNmGdJm94NL6VvzsItVABpmnkD1hJE2WI7gThLRlnn1RYfPIqV5H7HriH3DXqOSOJ78zUbwO5E5EiI2L2GLAKGpx1I4huR6wtfBa8CijtLCVwDOYimgl+OfUm8ojWJa7I4tioWkB/hrADuTMUEpNG0J2BRiLLMH8CXgFkxwPQuLZiuW+JuPKcBxwM+wa/VngW1S9Gc4U4CP4ib+DtGCiRkfcOgzD/gbJsa+j+TvOZMxcetKbKNXEvf7KdhnehPwdWzjQRLibz4OAL6IPR99gXTP8ySZA/waO29OJVnxNx/7Yps5lgJXAW8p8vhJ8Abse/E34EySF39zqQEOB76DiZAfxi8CthQZh11/lmIbB34IHE9xxd987A+ci332/wTemK47QowtJAAL4YtEYA+bEoFHt+drwKWpmwic7e2iY/n3nV3KVNfSdOhHnPuN6E45isDZATqWne9i0aiupXG+e/S0ROAIXSUCFx5HIrAIz+0J2Y2zoDwaN5BMxGRo0TEqDfjX3X0Ci9h9iTC1ZPcJYCMue2GCQkhux+bIl3Eks6A/FlMfChGaekxIuAJLb/lpbIG7FLPs7Y0JdXcAH8J8T5NG/COSo6SAnowJ4H8DXo+lby4mVVj06FXAdwkjNNUAJ2Of5RcIv+nNhemYCH0zdpzlzPDvbQvwNeAfWMR42t+Xekw4/Q3wd8pzrudjwu8fsYjQ5tGbF4WZwLexKOvFw94v1kaK0EwF/hvL0PNrTGB1ix4oDi3YvfMPmEidRBYeIUQOEoCFCIFEYA+bEoFHt+drwKWpmwjcfvOPGehy/+3edNCpVDVNdu43ojtlKAJ33X0Z/a/9y8UiAA0HvoeqpinO/SQCR+gqEbjwOBKBRVhuJ5laUHFq3o3GS1gavtDshtXOKjazGLn+XFTuY2Ndujs8bYFFE6UlmiRR//evhKlpXE3w4i5AaSy8ClGu1GECzFKsHuqb8L+mFoupmBD5Fyz7QVr04n+NLJTJ4AQs8vk00o9QbcWE96W41RvOZTqWdvkirJ5nqbAnJpaek7YjHrw6+N99sKjJT5D+eZNLHVa3+hos6jtMWrVkmQT8LxYtfgylGW07E5vTzw3+/UCKvsRhF+AzWEr8r2DXmFLciJRLAyZSr8A2kiRR8kQIMYgEYCFCIRHYw6ZE4NHt+RpwaRpdBM72dNCxIkYUcF0jTQe7ZO2K4E65icADfXTceIGLNQAyNfU0HvJh534gEThSV4nAhceRCCzCcT/JRNaG22G0kX8S/qlqJ5IRHwsxF4u+8uG+Yf+/3NMWWHrMJD63QrQSph5yLqFq9XUTRkjOpVTSwApRbiwB/oSl9V1CMhs0isHh2LX7pJTGz+J/Tx3t2nge8DvSFbnzsRjLKrIgRt8jsUjz40M6FJAabN6/m7YjMXkSez66keKnJXYlg6XSvQar+V2qzMIilj9H6QuSVZhQ/Uvs8y+HX7yTsFT6K7GU7O5RAqVBI5bN4E+Ux6YGIcoSCcBChEQisIdNicCj2/M14NI0ugjcfvOPyfZ0OrvTdMgZUBs2C1e5icBdqy5hIE4d5YPeS6Y+3oZkicARukoELjxOOfwkFuVAH/BsAnZbCb+L/C+Er5taRzppoOd69u9l0/TdKzztgUWlhU7dHYXtCZ96bjXwYCBbSQnAeyRgU4hKZkcspea1wFEp+xKKydgxfT6FsXvxT0Wf7wF3PJaSu5QjUbfBRLFFDn0+hqWxLqWo35H4EHBh2k44kgW+gUUxT0jZFxf2wjacnZa2I3k4AfNtdtqOOPIe4AdpOxGBd2H3owtIZwNlEhyFHdOeaTsiRCUiAViI0EgE9rApEXh0e74GXJpG832gfS0dK3/m7EpVfSvNB58e/DwqJxE429tFx83fc7EEQKa+lcY573fu959xJQIX7ioRuPA4EoFFGB5NwGYzMDGwzaew1Gqh2T8Bm6NRj3+9wBfYVAB+gjBC/pwANlzZD6gNbHMp4TYLrCVanUtX5qMoYCGi8iFgGelFyybN/2DpZMud7TFh9U1pOxKBRmxjWZRngO8A51Nea7dnYaJ1uZDBMrK0pu1IDJqwOtefK9SwiHwUi8AvtRTaLpRqdoftsJriF1OZtXP3xCLb90nbESEqjXJ6iBCifJAI7GFTIvDo9nwNuDSN5nv7jd8h27fB2ZWm+WeQqW0Y0yJw58ofk+1e72IJgMZDziRTG7+EjkTgCF0lAhceRyKw8OfJBGw2kswi3lUJ2JxNcdOd7YEtHvnwL+C5YX+vw9LP+eIbmRyHOGk4C3FzQFsvA+0B7Q0xHasjKIQYnbOwlLa+181S51zg00UcL7S4siOWPjSN+0hcmoGfMrpI9kPgzOK4E5zzSabEgsjP/wJfStsJ4GwsKlWEZwvgEuANaTuSMNtgx6l00EIERAKwEKPgtbgtEdjDpkTg0e35GnBpWtj3/vUv0HnHJc5uVLdsReOBJ9s4Y1QEzvZ00HHLD12sAFDVOJmGA09x7rfJ2BKBC3eVCFx4HInAwo+XCJ/idhwQf4fMyFyTgM2dgF0TsDsSs/BPb7g65+8+4FZPm2B17MYFsBOVemBhYJsPA3cEtplEnWyAj2BzIITITwY4Lm0nisiXgDem7YQDQ/f5icCfsQjOcmMWJtzl43vA6UX0JQnOo3QjKSuRT5Nu+vNTsFTaIhl2IZmNi6XIPsAvkGYlRDD0ZRKiABKBI4wjEbhw9woXgdtuuAAG3NfwWxZ9lEy1ZV8cqyJw583fj1VHuXH+R8hU+5W5lAgcoatE4MLjSAQW8XkZ6AlsMykB+GHg7gTsFnPR2jddXD/5I1xzReE4TAN2D2AnKrsSXnxfDqwJbDPE3OZjP9Kp/SlEuZAF3NP0lDe/ALZN24mIPIHd6/8OzAxkswfYQPjnktH4CDAv570vAR8MOEYvdlxJlBQYjblYCvWxRA+WGeUVLIOHb61rV84jnTToS7CI9WKTxc7tYn9v0yD0htlS5/XAp9J2QohKoSZtB4QoB7JZyMRd688SWSeI3NTJZoZM7sq+Q/+oeM3RiDYzZDIxlYWU5z1vd5/jyWvPc859z6Nh9L/yNJ13/Z7GWW93cqF6wrY07H/CfyKIQ59H3nMecY6cTo2cxgOda+m645c0Huz2O796/LbU73siXasuduq3mTsJfHfzTUihc6hQf49mMRrndB1xjjLEVk7zzlH448nfbAS/E5kjIUZlSAAOKdhWkcwm13bgSmDfwHYXYpE+SS/M1uNfU6sNuCnP+49haaGnetgeh0U2JCGy52MJUB3Y5vWB7QHcloDNIT6JfXY/TXAMIcqZ7gRsZoFHsXT6D2E11F8BXgW6MMGoGrtmt2ARrhOwFP57YFFgSUXvbwn8ADgmIfuh2IDdj76AZY9wpQOrZX8L8Dh2/2oftDv0NDwOS9O8AyYwLwD28vR7JC5gY/rqM/BLx/0QsALbPPQvbJ662PS4GrH79W7AIdgc1nqMORqfBy7FzvFKogt7XlkNPAI8jR1jF/Zc24/NaR12Hm2FzfdcrPyHbzaW0fgFln77wQTHGM40rCZtkllcuoG7sHP7ceB5bINONxtF9qHzuwk7v3fANlnuT2WkE27HNheErq38CnateBR4ALsXDW1g6AEGsHtS8+DYE7GNQrtj53SSm4Y+B1yNXa+FEB5IABYiIhKBI4wjEbhw9woWgduuP5/G/U90dqhl0cfpvPM3kB2wccagCNyx/Ns0znkfVLv99m5aeDZdqy/5z9zFRSJwhK4SgQuPIxFYuNNOeOGzmuR+4ywD/l9gmwdjiykvBbaby07A3p42Hid/SuKnsdTHvlEnc7B6m8Xg0MD2ngGuDWwTrL5yB7agmQQ/wjZM/Dgh+0KUM3cBJ3ra6Mbq3d8M/BO4D9v81Aa4pACqBiZhC/AHAu/CrmPNnv7lcjR2Lb8ysN2Q1ADfxGpiRqUNuBETI28FXsStxvoUYGesJu/bCCt2HYiJKVOB78fo/wRwEfAX7F7k8jzRioljxwHvx44xJJOB06iM1MAvAzcAfwDuHPz7NUcbjZgYfABwMrAI+wxCMgkTgYtVE/sn+G0AHIkubNPhr7HNGmswAdSFeuy7uytwAvA6TBguR9Zgz9s+GQ+y2Byuwu5HN2GbkNqwc9klyrgJ+/0yDXgrdl3c0cO3fNRhNepPCGxXiDGHUkAL4YDSQUcYR+mgC3ev0HTQfS8+RNf9f3UevmbKrjTsc+ym44yxdND9656la/WlLr0BqN5iF+r3DlOeTOmgI3RVOujC4ygdtHCjj/BPIzXYgkES3IsttIZkKyyiK2l2xRZifbhlhPezmKjhi2+EclSqCZcydIi7gRcC2wSLTBtp3kNQhYnAXyQ5kVmkj+7O8fi7R99HMZHyUEzgey/wO+B+THx0rf/SjwkAjwG/xQS7ucAlhN9I9QlKe62wmuji71osy8GB2Jxdim1mchF/weZ+JSbaLSFsxodq4FdY9LULj2Ci7X5YLeFVuG8mWz9o5+uYKHk+4c+nUyjt86kQD2HfiX2wDSG/w76HruIv2Pf+SUxEfgt2Xv4CE+BCMofi1AM+A3hDYJsbgMuwDZJHY9HFj+Eu/oJtwPk3cB3wAWwj5PtJrrxGkryM/Q6J2/cf2HdxJpZe+atYRPVT2HXSNcV0B7bh5Fbs+7Efdj6E/p10PBbRLoTwoJxvwkIUgc0XxyUCRxhHInDh7hUqArddd16s4VsWn71Z6OBYE4Hbbzw/ViRv08JzgoVdSgSO0FUicOFxtMwsotOFpRYrF17Coj9CszABm7mEEDxXjPJv9wSwPw1LcZo084BtAtv8Z2B7Q/QBf0rI9nA+g0X8HVKEsUTxqfTaiEnxCCYcRKUXuAoTCffBBJjbcBd7o9CHicnvwkSp5wLaPoTSTwMdhauBI4H3YZ9liHqsWSya+3DgwgD2hjgImBGxbQeWjeRALPoylHi4DjgbE1zWBrIJFlW8OKC9YvFv4H+wFMLnYZu8Qj6z9mMbRU4DjiJ8yYePAdMD2xzOltj5EpJ7sWjSE7EMDKE3I3Rg35lZwEeBhwPbT5rLcPuV/hCWYn4JJvpehJ3XSZSdWY/VgZ4N/Cyw7Q+jDLZCeCEBWIiCSASOg0TgCN0rUATufeYuuh9xz4BYO3Um9TMO23ycMSQC9699gu77Lnf1iJptZlK3y+HO/UZ0RyJw4a4SgQuPIxFYVC75auD6kvTCaB0WDeJDP5bycCRWYTXZfJhMcVIWHoqlYQzFa8AVAe3l8nesJlvSLMHO759TvGhsURx0V45HJ/ApogmHv8LSix6FpSzdkKBfuVwOHIYt9ofi7ZTveuFrwLuxz2NVQmMMYAJSSBE4CndiovYXCR81OsQVWBrwUHV767H0sOXEFdh36v9IphZ4LjdhzyYXBLQ5FauhmhSfJGzK8N9gKbGXBrQ5Ghdizz0/KdJ4IbiSaJsCH8OicRcDHyd+5HAcXsEyXnwmoM0TsFI2QoiYlOsDnRBFRiJwHCQCR+hegSJw+3XfjDV0y5JP5B9nDInA7cvizV3TovxzFxeJwBG6SgQuPI6Wm0VlspzwqX73x2q2JcXWWNSrD/cyusD7GBZh5UMGixxIGl8xPJfVWAq9pHgS+H2C9oeTAU7FIud+jITgSiHsD46xxW2YCDwS/wDeiKXWDJkW2JWHsAivpwLZO5JkoweT4mEsOvfiIo33UeCaIo31W0zUvrkIY92MpcwNxRzCbrxKkk8Db8aic4tJNybWfTKgzXcBewW0N8RuWCrlUFwIvJNwmw6i8hx2HO8kXorpNDiDkcuudGLn72FYNG4SpUmi8mXgKwHtHRXQlhBjDgnAQkRGInAcJAJH6B5QBK5unkLzoWcx+T2XMOWMpUw66ec0zT2FzDiHsm6e59GGJ5bT89TK6EYGqdthLuN2yl/eY6yIwH3P38uGh//h7E7d9HnUTg+btVEicISuEoELjyMRWFQejxE+omgilv4xKabjLzCvYPSaiVngAc8xAHYPYGM0tkhgjL8GtpePX+Jen82HrbG0qcuAv2B1+CYWcXwhSolvYDVWh0cCP4VFOb0Z+FsKPuXjacKJR5MIv1kmae4EjmD0bBVJ8CHCpkzOx08xMS/pcYbz+8FxQ7A95RHB935MtErzF8zXgS8EslWHpc8NzSlAcyBb38U2UqTJb7DU5+tT9iMKa7A02bcPe68Pq009Dzt//5WCX/n4DOHujycjDUuI2OjLI4QTEoHjIBE4QvcAInDTnPewzafvYcLRX6Bh76MZt9N8Gvd7KxPfeiFbf2IV9TMcMkx6nkdt1349uoFhNC8euYzMWBGB22+IN3dNi84tvYjyvEbzvSUReFOjkd5y6h+9mURgISJwS2B7NVjqv6Q4IICNOyK0uRP/J8kZJLtIvD+wQ2CbSdX/Hc4tFEdozmUiJv7+BViJiUsHAC0p+CJEmnweE+B+gy2wL8DqHHal6FM+LsPShIZgCeUTPX4fJuD8O4WxHwEuTdD+JVjUXzE3AQ1xPpZS25fJlH5E+YcpnXTAnyPcOXUSsGMgWwDTgP8KZOt64KxAtnz5J2Gjr5PkESzzxDewbAcnYWn770nTqTxksTrRIUoi7ELpX0OEKFkkAAvhjETgOEgEjtDd43iaD34vk47/Npm6/JmVqlu3ZvJpv2fcLgsdHHJpuqnv3Y9cS+9z7s+f9TMOo3bafiOPMwZE4N6nb6PnyeXOrozb9XBqp+4rEdi9WYzGOV0lAhceRyKwqCyuInztvaRq32aAgz1t9AH3R2i3Av/0fdNINu3wgUBtQHu3Urw0kf9LceuK5jID+Cq2GWApFtlxGLaBQYixwO+wVKGfBp5J2ZfR+AxhftHvTbgovyR5CjgGS5efFt8iWq1oV27CxLYkbEfhQWxTQQh2CWQnCW7CIlFLiQ9gUf2+NGM1sUPxVmBKADtrsEjiUvqV+EPsnC8HXgbOxT7bUN/RJHgQ+HkAO40Up0yMEBWJBGAhYiEROA4SgSN0j3E8NZOmM+FNXy7YLlNdy6S3/4hMbYODQy5Nh/mezdIWuxbwuaOPMwZE4I4bYtYCPtQiqCUCOzeL0Tinq0TgwuOU0s/7sU09sC2wLyYMHgkcm/M6evD9BYPtdsZS5wpjFVZnMCQ7A1sGtgm28OcrAD8APBGh3UOEib6aGcBGPjKYABySP2N1+4rBamxxshRYAHwRi5i5DosSexMSg4UoBe4jTKaKGZR+3db1wIkkW4c9Ck8ANwS2+RhwHOlu/AH4EWFS44a+/4bktrQdyEMbll48BCcFsjMO+GAgWx+jdFIVD+f3aTtQgfwG6PW0UU2y2ZKEqGj0A02I2GTIXQnPZiETd60/S2SdIHJTJ5sZMrkr+w79o+I1RyPazJDJxFQWUp73vN0dj6dlycfJ1IyL1LZ6/FSa5p5K+03fd3CIWOdR171X0LfmUWqm7Bp9LKBhr6Op2Wp3+l58aORxAp9HXucQRJ6jqFO54dFr6H12NbXT9ndyo36v46jZYlf6Xn7U/5hySOK7m29C8l6LHPp7NIvROKfriHO0+f0iutHN/UniePI3G8FvzzkSRaEKaMWid/YGdsMiL7bEBMEmbFG3DouGzI2IzGLRJn3YwuPQqwOrA/sKFv30b2zx5ingcWw3eh+ltZs/KW4g7GLmNGA+8KeANgH2wOq5+nAn0esOrgJGTuURjf3wunCOyDTCpMMezg2B7RXif7Aal3sWedyRyGBi8ALgTCwt4W3AH4EbCR8pL4SIxsX4b/6ZDOwKvOjvTmJ8itIR7y4FDg9kqxsT2nyzaoRgFbbB6yBPO9MwATFtQTsf9Wk7MAJLgcuxWuM+7AwsxlIu+7AA+03hyzIstXkp8nzaDlQgdwB34R/BOyOAL0KMSRQBLIQXigSOgyKBI3SPeDzV46fSNNttQ2fLorPIVNc5OuTSdND37ABt15/vNg5AJkPLoR8rPE6FRwJ33PANdx8yGZoWfnzjWIoEdm0Wo3FOV0UCi/SYhtXr+zImvDwKXA38APgoFtV7ECYcTcfSt43HhODanFfd4Putg+22xRaPZmILykdjqem+BPxqcJz7sDRfS4GvAydjYtt2jBxBlMBWs6KxlLDfhCqSSW02D9s174NLTYebPccCO2+2CWAnl90IWz/sHmxRvJiso3Tq5eVSC+wFnIptZHgQuAhLzbptin4JMRYJcS0GE4BLld8BDruaE+eugLZ+THHqy0clxLFNwp4rS5FSfha9IICNKqyGuS9vDGAD4LxAdpLAIV2eiEgXlk3Ily0p7e+qECWLBGAhvJEIHAeJwBG6RzgeE3PdStlVt25D40Exnv9jnEddqy+j/zX3ElmN+59A9cTtC49TwSJw9wN/pe8l9wyjDfudSPWE7TaOJRHYtVmMxjldJQKL4rE9lvrwZ1iU5rVYNMwhWMrmYixiVA2OMwkTid+A1aS6CNvxfQ9wBVY79B2YgDx1sO+LlGYkSBRuI0y64+HMJPzCxjzP/v24Ldrcgn+twunADp428uGWVqMw1wKvBbYZddzPpzCuC3XYppSM2mXPAAAgAElEQVSTgSsx8eAX2AL03in6JcRYYShThy/jA9hIgi5MJC0lXiTMnD8GfDaAnZAsw//JfyKWgaYU6UnbgVG4Hf/IXfB/BqojTArem7DSEaWKY6SEiEgIAbgBaAlgR4gxhwRgIYIgETgOEoEjdB/leKqaJtM85z2x7LYuOQeqYlQBcDyPsv29tN3wLfdxqqppWfzxwu2oYBE4O0DHjTE2/FbX0jT/w5uakgjs2ixG45yuEoFFshwMfA1bQPktcBqwVaoejcwELCXiJ7H0iCuwqJZLgW9Qvj/kO4GrAtucCewY0F4N/vV0H8Nqz0blCaLVCy7EvgFsDKcOS10YkhsD23PhK8BfUxzflcnAKVha2puw69aZwKwUfRKikmknjBhZqqlxX6X06oe+gmU+8OU+Si99/p34b9gbj6Ir49CN3TN92Qk/EXgeYcpPLMU2cJQqEoCT4WH8Vw5qsVJGQghHJAALEQyJwHGQCByh+wjH07LwQ2TqRsqqOTrVE6bRNOvEmA65NM3QefvF9Le5l45qPOCdVLdEK1tYqSJw112/o3+d+9pNw+xTqWqcvOlYEoFdm8VonNNVIrAIz2Ismu4fwCewiNtyZE8sGvhsTCAuV0ILcNviL9gOZy/8Uyk/AqxxaN9NGGH0YPxTVw9nK2BRQHuPYUJmWvRg36HlKfoQlwlY5oLvYOnjr8VqG++SplNCVBjthKllGfI6HJIMtsmplOjGbcPUSJRiitPn8a9H3IjVAC5FSnHOh3M18IKnjfH4pXCejf+GkDXAXzxtJE2pnwvlyjrsGulDDaV7DRGipJEALERQJALHQSJwhO45x1PVMJ7mQ97nZbPl8HPjRQGD0/EM9HbTsfwHzkNkauppXnhmdJcqUQQe6KNjmXsUcKamfrMoYJAIHKNZjMY5XSUCizDsAVyGib/HoN3PpcJq3MTRKOwX0NZc/AX2u2P0ucVzTDDfQ0aH70HY2oMrgbUB7cWhHXgr6QrRvkzGapd/HjuOq4F3Y6lChRDx6QOeDmCnVNcMM5Smb88FsFFqwjZY9K+vAFk7+BLuPEWYDV8+2VX2CjD+rYRJBZwkpbrppdzpxF8ABgn0QsSiFB+YhChzJALHQSJwhO7Djqd53mlU1futY9ZM3pHGmcd6OBS9aduKHzPQvd55iKa576WqcVJ0lypQBO6682IG2l9yHrpxzvuoqt+8bJdEYOdmMRrndJUILOIzHvh/wM3A8Uj4LTVeIExdtuHMJtwCqW+9t16sjrMrd3mOCxYNum0AO0PMD2gL0k3/PJyXsGjav6ftSAC2Bo4AfgXci0UF75aqR0KUN+4/vjanFMXIUqYjgI2+ADaSIERaap1P8VkRwMb2xIugbCSMAHx7ABtJIwE4GboIU2tbKw5CxEACsBCJIBE4DhKBI3TPZsjUNtBy6ObRnXFoOfyTkPG4FUQVkXo6aI8TBVzXSPMhp7u5VGEicLa3i44V33MeNlPfSsOc/8pvUyKwa7MYjXO6SgQW7swB/gb8H+WdJrmSGcDqGYdkDjAtgJ1qLOrVhzXY5gNXnsVSJPtyUAAbQywKaOtFwtd/9uF54C3Aj9J2JCDTsKjgu4ALCHsuCDFWKFUhsZIJMef9AWyEZoAwdVu1Bh2fVfhvMNideHV898RfAO7BsqeUOvo1mww96J4kRGro5itEYkgEjoNE4MI0zTmFqqbJhRtGoHar3ajf6yg/IxGPp33Fj8j2dDqbbzr4A2TqmtxcqjARuHPlT8jGiaA+5MNkahvyjyUR2LVZjMY5XSUCi+h8EIssnZe2I6IgtxImymqIycCMAHZmYAt9PjxGvBTXcYXjXA4JYANMTAxZW3k1JnKXEl3AB4DTgddS9iUk9cBHsevhj4Dp6bojRFkRYrFdKXvdKEXxNgQDKHovbe4EXvW0MZ54z4ZbY1HAPvyLMGmsRXnSh11HhBApIAFYiNHwfjyVCBwHicAjk6muo3VRmOjfIcYf8Uk3US0fEY5noGMt7St/7my6qnEiTfPe6+5SBYnA2Q1tdNziHthT1bQFDQe+Z+SxJAK7NovROKerRGAxOk3AD4DvAfl3b4hS4wHCRzSESFe8L7Clp424xzUA3OY5NtgGiBA3qgXYomcolga0FZofY+dPKfsYh0bg/cAy4L/ROoYQUdBie/HpTduBBAkhbiu9bnw6CJNCecci9cnlHqwOrBib9ON/DalCm5KEiIV+OAlRCInAOU0lAgdrGuMYmw58O9UTQmSG3Ejt1H1o2ON1/nMeoX/7jd8h2+++ebh5wZkjRrKO6lIFicCdN3+PbG+MCOoFHyFTXTfyWBKBXZvFaJzTVSKwyM8E4FIsik+UD/3ALYFtLgBGvnBHY2/P/ln8jutBz/HBagDvEsDOggA2huik9Ovt3g+8DXgv8GTKvoRmOvAVLD3+rJR9EaLUCSHYhf2hUPlU8nyFODbfZ5uxzqoANraP0WfbAOM+GsCGKF8y+F9DMkjHEiIW+uIIEQWJwDlNJQIHa+pyjFXVtB72MYcO0Wk9/FxzJ2ERuH/9C3Tefomz2eqWrWg84J3xXKoQEXigYy1dt//Sebjq8dtSv+/xo48lEdi1WYzGOV0lAotNGQ/8CXhT2o6IWNxE2LpWB2KpoONShb8A3A7c4dH/IeBxTx+asJrIvhwYwMYQd+F/XMWgG/gZMBu4EEu9WEkcCVwHvC9tR4SocBRt5UYlC8Ah0C8DP0Lcy7fCLRK7mjCb8SrtOUSkg64hQsRAArAQUZEInNNUInCwphEbNu57HDWTQ2Tf2Zy67Q+kfsYScydhEbjthm/BgPuG9JZFH4eqmnguVYgI3HHTd6DfPbNY06FnQ2b0W75EYOdmMRrndJUILIxm4CpgcdqOiNjcgkVdhqIZP9Fye0z48+E+4HmP/s8B93r6UAUc7GljBmFSFw7xZ8rrqrYWq6G7CPgy8ESq3oRlPJby+kIkugiRD4m3QlQW/8b/GWRroMWh/SRgJ88xofIykgghRNkgAVgIFyQC5zSVCBysaaGGmQzjDzs7+sAxaB1mP0kRuO+Vp+i86w/OJqsnbkfj/ifEd6kCROD+dc/Qtfo3zkPVbLEr9XsdW3gsicCuzWI0zukqEXisU4+lffYVuUS6dAK3BrbpsyFgR2Cq5/jL8U8fepdnf4D9PfsfCkwJ4McQVwe0VUyeBD4DHAacDtyYrjtBOQv4NVYnWAixEW2MKD4b0nZAVDTPAu71tDZlEm73y3psw5UPbdjGQiGEECkQL5RKiDFCljy/mvK+6UKG3JXwbBYycW06+BO5qZPNDJnclX3vOcozjs8cjWgzQyYTU5Uo8rw37Pl6arfZM9qAMRm383zG7TyfDY8vN3d853yU42m7/nwTcx0HaFn0MTpX/RayA/FcCnweeZ1DEPnkGN6sfdk3aTjgZOcDaVp0Dt33XV54LN9j2sxe+O9uvnnLey1y6O/RLEbjnK4jztHm94voRjf3J4njyd9sBL8TuDdUAF8FjknbiRyywMDga+jvoU9uqPZSiDpOlcbfgNMI9/tqoUfffQOMvyKAjbuw88hn0/H2g6+4qQMP8hg7l9sp/xp2T2FRs7/BxPU3YvWCd8AtJWSp8U5gHPAOwD1VihDFo3rw1QRMwISYeqw26tD9ow87jzcAXcB6TEDpwzbmRP0hFOK7oHu9G/F+pI4dtCXUj5cHX9M8bEzGTQBuwF8AfglY52lDJEM19pxeh92TmrF70jjsnlSNfW/72Xhf6sTuS+1Evy/pXiJEikgAFqIAEoGjNJUIHKzpCA3HH55s9O8QrUs+zppBARiSE4F7X3yIrgeW0rDX0U7marbcjYY9j6br/ivju1TmInD/2ifovvdP1M98q9MwtdvMZNyMI9jwyD8LjyUR2LVZjMY5XceSCCyGeDfwkRTHX4Olh30WeASLEHwZeAVbpOnCftB3Y4s/GWxxoGXw71YsimAysCUWcbr14Put2ALCWIrIux5b4PKNvB1iB+IJn9X4p38eAB70tAFwJ3Z+bedhYxvseOIIwDXAXh5j57IUW/SqBNqwKOAbsdTQ84ATgfnYOdyUnmuxeSvwfVQXWJQG47B75FbAztjGnJ2xa9oWg//WzMbF9+Ebq7LDXgPYdec14NXB/64FXsBqrT+D3XvWYvfrLqADu3+/FOA4lEbaDYkco1OXtgNlTi92HfAVgCc5tK/FrlU+rPfsL/zZAvscp2KZgvYBprPxfjRh8FXLpvekfPelfuxesw47H9cALwKPYfelpwbfa2PjZ/9v/KPXhRAxkQAsRAQkAkdpKhE4WNOchvW7LKRue59SgNGp3+0w6qbPpufp2ze6k5AI3HbtN5wFYICWw86l674r/TLklrkI3LHsfGcBGKwWcBQBGCQCx2gWo3FO17EiAgswQeyrKYx7DxaVeSOwkrB1a4eowxa5t8cWGHbHaodNxY57ywTGLAXWAbcBxwWyNwFLDe4qfI7HP6X4Kkxc8OUZbGOBjwCcAfYD/hij797AHh5j57K8cJOyZD3wj8FXFZZ+/BisDvUsbMNHufBeLM3khWk7IsYkO2Obd/YHFgAzB//2pQUTkkdjaBH+JWyh/Tas9nelokwk5Uk5Z5ooBfqxTSC+uDyL1+Ev3HdikaLlQKVcVyYAM7DfYfOBOdj9qDWQ/VZGvy89CzwO3A3cgInB0qCESAl9+YSIiETgKE0lAgdrOqxh6xHnxnKr7cbv0bLwQ879Wg87h5d/fuKm7iQgAvc8s5ruR66lfsZhTqZqp+1L/W6H0/3wNWNWBO59/h42PHI142Yc6TRE3Q6HUDd9Lj1Pr4zmkkRg12YxGud0lQg8FqgCvoNFARWLX2Epiv9G8rvwe7Do0dwI0npgt8HXrlhk5ixscaJSFluuJJwAXI2lgf6tY7/p+AsOtxDuPFmNXzprMBElDvtjC2AhuB8TxiudAeDawRdYDeW5g68jKI/I4P/DFhvvTtkPMTaYDLwBeB32ffHZ8OLDxMHXjMG/3zH430otwDEUHS3KC/0o8KMHeD6AnRaHtiGy+bRTPt/Xci8jsQC7Jx2OPQenpftMG3wtBD48+F5/Sr4IMebxqcckxJgj79Oq9yPs5r/Hsj42HfpGbupkM8/vywQe873maESbPmpiAk2zMG76bOp3WeDszoYnV/LqlZ+l9wX3DI4Ne76eummbr7V6z3me/m3Xnx/LVPPis0e06ULo88jrHILIx5MFOq4/L9YQTYvcNhR4H9Nm9oKaGzSa7y0Hvx3mPbTNvF1H7Bv2GpXE8eRvVonrjl4cO/gqBn/Adn2fAvyOdFOwdWOCzGXAl7CanYdjaYIrhWuw1JuhmBWjz9wA494WwMYQy/GP+tiLeKm1fVNhD+c6LMJurLEM+BrwZuxa8l/YpoRSnotW4Cf4p6wUYjR2wTJ5LAMuBt5FeuLvaFTqQ9hQPcpSo1LnW5QGfVi5Fl9cInpdxOKRGCorUw6Ui1A9nAxwPHAFcBXwKewZuNSC/pQBQIiUkAAshCMSgaM0lQgcqmnrYfFq/6675huQzdp/Y9B6WH6RMLQIvOHx5fQ8fauzmXE7HULdDvPy2nR2qUxF4A1Pr6TnyRXO5sfNOJLaqfu6uSQR2LVZjMY5XSUCVyrNwH8XYZxnscXodwDuF4ri8QxhFrJKhWcJO987YanbXPBN/7wBq98VipVYemwfdgb2dOwzgTBi+BCVmv7ZhbuAn2PXlv2ANwG/BJ6j9Oq6zQZOS9sJUZFMBL6JXes/Sdg64yI6pfpgWY7ikSgvQtxvXWp7h4gA3kD5RH+X6rVlJBZgmXsuxZ7LtPlNCLEZEoCFiIFE4ChNJQL7Nq2duhcNe73e2YWeZ++l+2HL3Nd51+X0rX3S2UbDPsdQu1X+NefQIvD6a+NFsrYc/okRbbpSriJw+7JvxjLftPBjzn0kAjs3i9E4p6tE4ErkdcBBCY+xGkv9dQnlUW/Lt65YKTEALA1obwpuUawZrG6rDw9iNbtC8QzwdAA7rkL4dOKnjs7laSQAD6cfq039F+BU7LM5DvgxVme8Kz3XNuG/KVw3VQgXTsaE349TufXsy4lSfLAstc0wovIIscnAJRIzRBRpD9ocEZqJwLeB67H6vqUW7SuEKCEkAAsRE4nAUZpKBPZpOv7weNG/66/95sZJyQ6w7p8xBNZMhtYjPjHiP4cUgbsfvobe5+51NlE/4zBqpw2LZB2DIvCGR/5J73PuJe7q934L1ZN3dndJIrBrsxiNc7pKBK4kqrBF4yS5GzgKcL+oilAsJ+wi1/4ObXcHtvUc727Cp/e9OYCNWbhdQGYSLtXcKizKVeSnDasvfjqwLyYGfwuLSEmTbYCPpuyDqAxqgO8BFwF7pOyLEGJsE+IZ0yUCOISw2E/5RACXA7Ox564Po7TKQogISAAWwgOJwFGaSgSO07Rmi51o3Pc452F7X3qEznuu3OS9zlW/p/+1Z51tNc48jpotdhrx34OJwNks66+PF8nasiRHJB+DInD7DTHSfGcyNB8ab4OBRGDnZjEa53StOBF4zLIQ//S8o/Eo8Hrg+QTHEIV5iLA1dGcBDRHbzgeaPMdz31VUmBDRs3OBLSK2rQIODTAm2GXs74FsjRWuBj4GLAaOwcTg11Ly5WQUBSz8mIBdAz6YtiNCCEGYdXxF45Yvb2Vj1K8QQkRCArAQnkgEjtJUIrBr09bDPg4Z90v0+uu+BdlNn+ez/b2suzaGwFpVTevh+WsB/8d2IBG4654r6FvzqHP3hr2PpWbLGXltxnapzETg7vuvpG/NI85mG/Z7O9UTtovnkkRg12YxGud0lQhcCZySoO3OQfsvJDiGiEYnJoCF4gBgl4ht5+IXZt+FRbuG5jag19PG7kDUm1YLsMhzvCHWAlcFsjXW2AD8FROD5wJnAQ8U2YdpwDuLPKaoHCZhaf0PS9sRIYQYxCV6dyR8n8lEOpwK/B7/zZ5CiDGGBGAhAiAROEpTicBRm9ZM3JamA090Hqr/tWfpXPX7vP/Wcful9Le96Gyzcf/jqZ4wejbJICJwdoC26y9w75vJ0LI4T0bVsSQCZwdoX3a+u83qWpoOOTO+SxKBXZvFaJzTVSJwOdMMLEnQ/vmESbObBpVYs+rWgLaaiV7/dh/Psf6F1XANzYvAfZ42MsDeEdvuALjXOcjPvVgdY+HHw8B3sCj10wlbZ7oQRzHG6w+IWNRgKZ+TzNwBtvFmLXb9vRO4BrgcuBirq/1T4BLgz4P/difwFLAGS7/el7B/QowFyumnSojn5mJHAFeh+7AvbwB+RrLz2Ausw57bH8F+W/4d+BN2H/oZdm/6A7Y58kbsOfk57D7WSXl9l4QYM1TigosQ4cgS+faat6lD//xkyL1/ZrOQiWvT93i8bWbI5D4PeM9RnnF85mhEmxkymZjPMo7z3rLoTDLV7hs711/3LbL9+TdzZnu7WX/dhUw89stONjPVtbQedg6v/nH0Emrec56FztWX0XrkZ6ieMM2pa+P+J7D+H1+k/7Wc9VnPcyv0eeR1DsGox9N192W0HPFZqse7lX5smH0q7dd/nYHOtfFc8j2mzeyF/+7mm7e81yKH/h7NYjTO6TriHG1+v4hudHN/kjieBC735cRiYOuEbD8HXJiQ7WIwLm0HEuB2TPDaLZC9WdiO/9HYCf/6v08Qvv4v2ILQCtzqGefjIEyQKcR8z3GGo+jfsLyKiVq/Az6LpdVtTHjMA7HaxHclPI6oLL6MbR4ITTdWsuEuTMx9CHgaK9+wLqKNZmAK9lyxPbbpZT9gBjB58NUc0mkhKpxy+YlSDYwPYKfHoW1/gPHqKJ85LkWmAz8hmTl8CngSuA7L0vI0JgCvwTK5FCKD3XO2AKZiv0V2x57ZtwW2BCaGdloI4YYigIUohG/krCKBc5oqEng0qpu3oHneKc7m+9tepP22i0dt037rrxjoeMXZdtNB76K6tbBu4Tvn2b5e2m6IEQVcVUPL4o+NYNTTp3KJBO7vpePGbzmby9Q2eEUBgyKBYzSL0TinqyKBy5HDCZOyLR8XAC8nZLsY1KftQAKsAW4JaG8BhRfzD8K/1umdnv1HI0SE+nyinS+LA4wFFgnx10C2xKasA87FagTfn/BY44F5CY8hKoslWMrykPwb+D5wLHY+vhvbvPUPTASOKv4CtGML9rdgmym+BrwDqwm5GDga+Azg/sNPiLFJXdoORKQWE9R8cRGAuwOM14CJ1yIeP8JKWoTk78D7sZIpS4AvYpG+d2KZb6KIv2A/71/G7mPXYRs1P4399l0AvB44A8tsEdWmECIwEoCFiIJE4MA2JQKPROuiM8nUuK+Ft934Q7K9oz+bZzd0sH7Z95xtZ6praVk8egTwf8bwnPOO234dL1X17JNHFqnHiAjcecdFDLSvcTbXOPf9ZMa1+rkkEdi1WYzGOV3LWAQeo8xKyO46rD5huVJN5e4KXxbQ1hwKR/fOxu+33QZguUf/QtyPf825PSm8ANaIieEhuA1LgSeS4zpskfCmhMeZnbB9UTk0Al8nXHaKduAr2AL7h7Aa8R2BbOfShwnDy7AI5v9JaBwhRDrUAhMC2Ol0aNsWYLwWJADH5QPA6wLaW45tRHoDFlX8dEDbuazBnqV/CLwFE4mFECkgAViIqEgEDmxTInAuVQ3jaT74NGeTA93raV/xk0ht22/+KQPd653HaJ53KtXNUyK19ZnzbG8X7Tf9wLlfpqaepvlnjGI4vk9QHiJwtreLjhXfdTaVqW/9/+ydd3xc1Zm/nzszqqPmXjFgwMammGKwwWAbTAmEhNA7oaVAQoe0zSbZ35JdUugJAULAlJClZNMWCNjGGBswNrhhY2xsg3u3pNGMyrT7++NIkTyeke65ZZre5/MRMtI573nv0Z1bzve870vlhBtcmCMRgTWb2Wic0lVE4EJhMO7v2u7gHQr7ZboPxZkCGmAWsM0lWwHgyB7ajHU4xi7crV2cygacR3qW0LO4ezzuRMeAqrmZ7Tp5vZFtqIVBL1M0HwY42+0m9BbOA451ydbHwDRUNNQal2zq4EVNd0EoRgpFnPThTnp3nfpPIgDnjjLAWiSGNR5BlTb4u4s2rVKs73uCUBCIACwIOogI7LJNEYG7Un3SN/GV669NNb3zGMnWsKW2yZZGmuY+rj2GESinaor1VMFO5jz83hP2ROoTv4WvopuSOL1ABI588CSmjbkLTvouRkmFiMA2+ztoZqNxSlcRgQuB0ThPzZuJjyjsGR+Ed6mxc81G3E1te2I3v9sPGOPQ/hqgwaGN7mjAnRTTE3v4/WTcW2RyM4pb6J5dqEVOr9IDHoJ3ddiF4iEAXO+SrY9QqZgXuGTPDvvlcGxBKCQKZW28DOeZc5rQE4BbcJ7BpS+FM8f5xBWo90g3+CGqtIH+YpE7VCEisCDkDLkAC4IuIgK7bFNEYACjLEjN5G4iWDOZiTZ3CroWj7Fp7mOYUZ2sP4rqSd/EV9nXum8259xsi9iLAi6tJDiphzkschHYbA0Rmf+Ethlf1QAqjr0qrU1tl0QE1m1mo3FKVxGB850DUCkl3cbE+9qZXnMAEMy1Ex4y00VbU1HiRDrGAPs7tO9mzeJMLHbBRk8RwBNcGANUNOoql2wJ1pgDPOmR7T5AP49sC8XDcbhTQ3wLcAkq80Eu6Z/j8QVBcJcBOBeAd6NEXau04Vw0HIwSgQXr+FGpmt3gIeBel2zZxURWCAQhZ4gALAh2EBHYZZsiAldPuBpfUP+ZODz/GZKRLhs4LRxjMrKbpvee0h7LKK2k+qRvafWxO+fhdx+3JVJXnfRtjNIetIQiF4Ej7/4GM959Peh0BKfcDr5AWpvaLokIrNvMRuOUriIC5zNDPbLbiLd1m7LBQRT3bvB/4F6tx0NR85WOw12w73UNVoDlQNShjQOBIRl+V4d7kRKvk7soid7MvcAej2yLACz0xNku2bkWWOuSLUEQvKc01w5YZDCZNwNapQE9AbgFqHc4ZpCeS5kIe3MkcJoLdpYBP3bBjiAIBYwIwIJgFxGBXbbZe0Vgw19Kzam36ndNxAi99VBamz3RNMeeSFg1+abu0yynwc6cJyO7Cc/XF6l9lX0JTrzWglP6Pu3VPY9F4GRkN80LntY24a8dTsVRl6S1acslEYF1m9lonNJVROB8xasInN2oKKNC5jCP7OZL3dYVuBelXQZMSfNzA+f1KpuARQ5tWOFjYLVDG/2AkzL87mRUVLkbvO2SHUGPTcA/PbLtNGpKKG5KUdcQp7wAvOmCHTeQpzBBsIa7L67eMRznvu4ErNUPUzQBOxyOCTDSBRu9iaNxnkEqCvwAvb+3IAhFiAjAguAEEYFdttk7ReCq46/AX6Nfliyy4HkSoW0ZHOq+byK0jcgHz2uP6SuvoeoE/dJYduY8POcRzIR+uZmqKbdi+C1s4i1iETgy7xGwMXfBybeD0eXRQERgW/0dNLPROKWriMD5iH5xd2s0oxZlCpmxHtg0yK+o4tddtJVO+ByASlvqhMXo1YOzyx5gpUMbATIf73hUyjynrCI7griQntc8slvlkV2hOKgDjnDBzgMu2BAEIbsUytvKCBds7EAvAjiE88174LxUSW/jUBdsLMDd9xBBEAoUEYAFwSkiArtss5eJwL4ANafcot8vmSA0+5EeHOr+16HZD9oSWKun3oxRpl+yUXfOE6FtNC/UF6n91YOoOO4qi05pm9+7e56KwImGjTQveVG7e2DgaMoP+0pam7ZdEhFYt5mNxildRQTON8o9shtFbwEn3xgE7OeB3VK8EZbtMsNFW0ex7wd5OHCIQ7vvA/oPBPZY7oKNTGkE3Uov+C6wyyVbgj7LPLJb4pFdoTg4Guc1KpcCa1zwRRCE7FIoEcBHuWBDN5rXBNa5MO4YF2z0FgzcEcz/5oINQRCKABGABaEbvBE4nfVPj4jAdsgHETh49PkE+h+oPU5kyV+I77LwHN7NMcbrNxH5SGUwZrwAACAASURBVF8k9FX2pWriddr9QH/Om95+CJIJ7XGqp96K6bO4zlekInBkzn22nAtOvSujTdsuiQis28xG45SuIgLnE17VFUsC+hfI/OFEYJhHtvMpAng57gkC+7GvyOmG6Pm+CzassgDnYvNIVORzV/YHjnFoF9SV6h0X7Aj2qUdlOHCbfEkNL+QnbogTr6HqawqCILhNBSrTiVPW2+jzhQvjHobzTTa9hf64EwE83wUbgiAUASIAC0IPiAjsYlMRgffGMKg9/U5bYzTO/LUr8x6adb9NgfVmjJIK7X6gN+fx3Z/TvOTP2mME+h5A5VEXWBfwilAEju9aQ+vyv2h3LRl6FGWjTk9r05FLIgLrNrPROKWriMD5glcRwKUe2s4Gp6PS+XpBPkX6NQJ/d8lWHTC5y/8bwCSHNiM4T8usw/vARoc2DmTfusdH4E5qxE1IurxcE0elC3ebbEW5C4VJ6qYSO7hV810QhOxSCPeHY3BHQLWzKXEzzt/ihgJTHdroLdQBBzi0sQ13UncLglAEiAAsCBYQEdjFpiIC/4vKw8+mZNBobdvNy18jtu1TNY5lh9L/OL5rHc1L/6rtg796EMEJV2v3+5c7GnPe9Ja9SNbqU+8Ew+jVInB4zv22ugan3JHRphNEBNZuZqNxStd8FIF7H60e2S0FKj2y7TXDgXM8tJ9PEcAAb7loa0KXf1eiIqmdsBjY4tCGDo3A5w5tBIBxKT872qHNDhajnx5RcBcDbzaHNHpgUyge+rhgIxu11AVBcJ9CyKhzDM5r2W/C3qa/tcAGh2P7gOMd2ugtBHC+yXcFqn6zIAiCCMCCYBURgV1sKiIwALWn2Yv+Dc3aW9RzOu+NM35lawJqpt6K4bef2dTqkLHtn9LyyWva9ksGjqZi7JfVWL1UBI5tXkrbav3yk6UHnkTJiAnpfykisK3+DprZaJzSVUTgXBP1yG4t0M8j215zMd7U/+3AjYV8N1mGip5wg0PpXBQagvMUcR8CYYc2dFnogo3Duvy7FDjBBZsAs1yyI9jHj7q+uU29BzaF4sGNDVVxF2wIgpB9CkEAnuiCjbXY24S3HlXj3CkiAFvDh3oWckIr8nouCEI7IgALggYiArvYtJeLwBWjT6V0hH6putbP5tC2/sN9x7Hs0L4/im3/lJYV+gKrv24YweOv1O63lzsWHW+a9Wtb9qtP7RTZe6sIHJ79K1v9qk65O/MvRQS21d9BMxuNU7qKCJxLWjyy2xclABYag4CbPR6jzmP7umwE5rpk6xA66/4eh/P3uWUO+9vhPZwvth5J5waIwbizMBoC/s8FO4Iz+qFqHbqNRAAL3eFG6QCnC/aCIOQGrzZrusVwYIoLdtZj/3XtExfGPxr17Cp0j4Gjl3TXbLiJLBMIQg4RAVgQuiWNkGq1q4jALtssLhG4xm7t3xmZhVAn89745i9s+VM99RbwOcvSZ2XOoxsX0bpaP4Nm6X7HUD7q1M6xeqEIHP3ifaJfvKfdr2z0mZQMOTJzAxGBbfV30MxG45SuIgLnCq9Eh3LgYI9se8l/4LyuVU8MREWF5hPvuGSnBpUGEOAkh7ZayE3NyvlAg0MbY+g8/8fiTtT3YmCdC3YEZ6Sm93aDnUh6XqF73IjedaM+Z76RTwKCIHiFV+Va3OJLwDCHNkxgnoP+y3D+mlcHnOnQRm8ggfN70hDc2djkJrJMIAg5QgRgQegREYE7O3vQtBeKwGUHTqD8oEnaNtrWf0jrmu4DiOzOe3TzMlpX6Wc9DPQ7kOCxl2j328cdC443vXWfLdtdo4Chd4rA4dn2Iqgz1gLuQERgW/0dNLPROKWriMC5wEvR4QgPbXvBJcC3sjDOgahI43xiLrDHJVsdAvB4h3ZWAMsd2rDDThfGLQVGtf/7ZIe2OvirS3YEZ3ixOLyK7Na6FgqPiAs2RrpgI98ohNS4guAUNz7/XlEGXOqCnS3Aqw76z8adcibnkX+ZerqSD5teEjiPSj8CGOqCL24RQLJkCELOEAFYECwhInBnZw+a9jIRuPb0u2z1b5xpTQC1O++2o4BPuQ0M57eTnua8be08ousXaNstG3kSpfvvXW6mt4nAbatnENuqn+Wz/Ijz8ffrYS1LRGBb/R00s9E4pauIwNnGS9HhRKDKQ/tucgTwSJbGykcBeDkqwtQNjkBFSTqtAb0SaHbuji2cRKF0cBTqffZEF2wlgTddsCM4YwBwugd2V5HfC/xC7nEjW8cpeJO+PJdIXWOhN5CrZyErTACmuWBnHc7eSbYB+osx+3IMcJYLdrwiH15hm4FdDm0EyK+NwvmWkloQehUiAAuCZUQE7uzsQdNeIgKXDBtHxRj9da3Y1k9oWfFPy+3tzHvbFwtoW/uull8AJQNHUTnuPO1+ad3pwfHQTHv1bGum7VvPtreJwLaigA2DqikW0pWLCGyrv4NmNhqndBUROJtsxLs6wONRIli+MwB4qv17NjCA/bM0lg4fuGRnDHA1KirECbmo/9vB+y7YGI+KAh7jgq2FSPrnfOAbeHOd+NgDm0JxsdMFG1NRtTrzBXkME4TCx17tsH2Z44KNmS7YALgL58+wXpEP9aB3AatdsDPVBRuCIBQBIgALghYiAnd29qBpLxCBa6fdZqtf44z7lDMez3vjjF/quPUvak67Cwx3RLzu5rx11QxiW/TX8MoPPYOSYfvWs+1NInDr8r8R3/mZdr+Koy/DX2uh5JCIwLb6O2hmo3FKVxGBs8UqYLuH9q/00LYbDAD+hvN0xbpMyPJ4VngDdzYD1AJX4CwCuBn40AVf7PIJ0ObQxtHARbiziPgP8r8GYLHTH7jJA7ttuBO1JBQ3bmwS8KNqdeYLxZxu00QeMQX3ODDXDmTgfOCrLtiJANNdsPN/uJMt4RjgBhfseIEbx+eUVmCDC3bOIX8yRUkEsCDkEBGABUEbEYE7O3vQtIhF4JKBhxA86mva/eK7PieytEtZOg/nvfWzOUQ36K8HlwweS8VhX9bul9GdTI6bJk1v3W/LZvXU29Ob7C0isJkkMsfG3PlLCJ58i8Ux9M3v1V1EYN1mNhqndBUROBtsQUUBe8XVwL47XPKDUahogRNyMPZZQHUOxu2O94C1LtkahLNUoxtRUa+5Yjsw36GNauBG3Fncmu2CDS+YBFyHqpl3cI598RID+ANgYceZNh8BizywKxQXi1ApTp3yY6DGBTtu4FX2EaF3UsyP818Ggrl2IoUBwG9dsvUB7jx/bkRtmHODX5JfKYo7OCzXDrSjv3N/X/YH7EWguE8T+Z1qXRCKGhGABaE7NBbGRQR2sWmRisC1p91uK0q28a0HIZlIcch6f915b3zTZprl075nq18mMs1587K/Et+5Rtte5ZHnEeh/UPqxeokI3LLkJRKNm7THqRh/Db6gxUAzEYFt9XfQzEbjlK4iAmcDL1PtVqAWUQIejmGHc4C3yJ04fThwfI+tsksceCfXTrSzmtzWRG1GCeJOGYLzc38psMIFX9zmJ8BrKGH0f1Ei9d9RUf/lOfTLC/4Td6Kc0vEWzqPNheKnEbVZwCkDgXtdsOMGx+TaAQ/xAyW5dqKXUczRe/sD3821Eyk8Cwx2ydajLtkBeMIlO5XAc0Bfl+y5wXHAVbl2op1PXLJzGzDWJVtO2B/3zmdBEDQRAVgQekJE4J4REbhHAn2GExx/kXa/RMMWIgv+lMEh63Z05r3l0zeJbtbPglY6fBxlo/XrG3frTjrHzaS9KGDDoPrUOzKP1QtEYDMRJfLOw9pjGKWVVJ6okZVRRGBb/R00s9E4pauIwF4zB0h6aP9M4N89tK9DOfBvwMt4E82nQz6mx/6/XDvQTi6jfzvIl6jMmeRHyr+uHA38kL0jCYcDXwGeQaWr/QkqbWUhL8r7gP9AXTO8IAS85JFtobiI486mFFCZCc5zyZZdbkdlDyhWDGQ9M5v4gNJcO+ExPwJOzbUT7TyEe+nkVwEzXLIFqqSCG/WEAcYBvyc/NrEeA/yJ/MngsALY7IKdfsA9Lthxwn6ojQODcuyHIPRa5IFJEKwgInDPiAjcLbXTbsPw6T/Xht5+BDMR7cYh67YsN02ahGb+2rrhLtSd+YOsiHfNi18m0aD/PFx59CX464ZnHqsXiMDNC6eTjOzWHiN4wrehTCPLpojAtvo7aGajcUrXLInAvZTZwA6Px/gJ3tTP1OEYVL3fe8iPCMVzyb/d5u/h/bnQEzGcp192gzXkR91dt0QfNzmWzJ8hHyod9H+ghOCngDPIv3O9J4ajxOyfeDjGXNyp7Sr0Dmbi3pPLo+SmFr0f+BVwP+6IKvm6wURqAAtuU4MSAM/JsR/3AxbrL1niIdRmKLdoA37jor3zgT+S27ItXwJeBdKni8sNn6OeYdzgPOARl2zpcgxq8+tJORpfEAREABYE64gI3DMiAqfFXzOIqgn6QUjJyB6a3p9uwSHrNq02bV72D2LbV1k33E7piPGUH3SS5+KdmYjS9PaD2nYMfwnVU7p/nyp2EdiMtRCZp//8b5TXEJz4zayJkSAisI1mNhqndBUR2Ct24d5u+e74LSrqJ9scDTyMqjF2Rg7Gz0Qf4IZcO5FCI+5GYthhDyqCI9d8BizOAx/yJS13V6ymRAwC1wBvALOAn6MWMvOtlmEq16A2xngdpW+vromQiXwVA91iKeqz5AaDgb8CU12yZ4UjUOni73LRpt9FW4KQ728FA1E1bu9HRS1mk2Go7DluPsevabfpNm/i7nPkxSiRcJSLNq1QB/wUJf7m4ya613Avg9R3UVG4lS7Zs8KdqI1VbpUDko0/gmATEYAFQQcRgXtGROB9qJnybYySMu0xQnMexYy2WHTIul1LTc0koVkPWDfahdozf6hMeCzeRRY8R6JJP4gqOOHr+KoGdD9WkYvAzfOfxGzV3wgcPPEmjJIKEYH3MZruRyIC723Uftci4qksjXM/Kp1aNtJsnQE8iRI0byY/UrilcgW5jSpIx99zPP5S8iPlcYTcp4F+H7VBI9+wU9tyLCqF5esoMfhJ4OuoSNt8oAy1IeNN4GlUFLOXvEx2Nt70Joq9lnIbqu6mWwwG/okSZL3MilHRPsZM3K+lLWuGgpt4WQ7FTW5HfZ5uJzupry9E3bcvdNnuz/HmGSeEEk7jLtqcjJrzbGUzuhJ4C/gZ7l/n3DrPX8LdLCbfQJ1nJ7poMx1TUJupfo3ajOsWPmRTkiDYIh8XaQQhvzHJsAZukLrCnbGpZZsWm2r0T08a300w7Np0ejyObRoYqWqD4zlKM46FOfJV1FJz8je1bSdbQzTN+72mQ7g675FFr1B75vcJ9DtQy42ygyZRdsAE2r74ANM0MAz3lJ+uc27GWgjPfZTas3+mZcMIlFM9+bs0vvbT7sdKdx6lb+hMF3PyWUtrr+c5T7Y2Epn/JFVTM9dEToevehAVx15J8/zf6x224zny7jxyzyj7HKPlcyhDfwfNbDRO6Zpxjva9X1g3at+fIuEdYAlwVBbGugGYBjyGEoPrXbIbRC0anNP+/TDUwnM+cyhwGWrXe77wAWrxLFd1xublaNx0LMvx+LNzPH4mnN70JrR/XQ9sADairj/vo86/DahU4F5vz6kEJgKXotL/jfF4vA7CqMVpwV36oqLUrESYGyhxQGchPIA3Two7gAaLbV8BbgOOd2nsMlQk+pXAA6ioYLc24AxERc7dhHefrXzPJiAUFvq74nPHKNSmyq8Dz6HSQ29x0b4PJZTdCZyF+yLkHJTfXvFPVNmXC1y0uR8qm9GlqDT6f0Y9q7hFECWyX4cSnL3CLa2lDfgDKsuSW0xERRb/CXgQVSPaDYx22zeg7ksatcMsE6D4a5ELgieIACwIdhARuGdEBAbao39L9bOshN99imSLjbUBN+c9GSf01kP0vUg/1XLtGd9jxxPqXcBL8S783u+pPvUOfOV6a+jBidfTNPv+Hue4mEXgyLxHCJ50E0ZALyChavLtNC94GpJxEYH3MYqIwFb86b20ohYzsiVEHgj8ApXy62+oRec1KDG4ie7/GqWoF/dqYASqHunxqBf7IbgfydQI1Lpssys3oITwfDkDt6A2BOSqzlw+1P/t4GNUJHAuRIbtqGiTYmdE+9ck4EbU538P8CnwCSoN9nqUKBxGXava2r+idC/gdSzGlaH+hpXAIcA41HVjPEqkynZN8HuBlVkeszdwLnAq1iNwdK+5Xm0T2wx8G2v1FGOoRfEXXPZhHCry/S5UVNc7qIX37VifJz8qu8cY1CavS4CRLvuZSrbT4ArFHeHmZjRgthjX/nU3KlXwDNSGqi3o19bti3o+n4C6np6MNxspI8AdQMID2135Pmpzl9tZh05GbTS9E5U1523UO8wO9I6pEpWJ4UhUOv6zUM8oXm9J7ueircdR96+xLtqsbbd5GeqcfhWVkWcz6hnRKjWo98KTga8Bp+Btiulq1DOlIAiaiAAsCHYREbhnerkI7CsL2or+NWNtNM5+1IFDuDbvkQUvUHv63fjrhmm5UD56GqX7HU10oyrt55V4Z7aFCc97jJrTvqfV31deTdWJ3yA069c9j1WkInAysovmBdMJnvhtLbv+uv2oOOoSWhb9UY2DiMB7G0VEYKE7/gJ8D+9Tn3ZlP5QI/F2UuLMMWEvnS34z6g9a2f5Vi0oZe0C7n14Lc0+hdqG/jnfvJsehdvx7UQfNDjHUAmIuBOAw+SWMLQfWoWpXZptlwKYcjJtLfKjPeC1qEfqslN+HUILUnvavejoF4Xj7v8tQAkUJajG/DrXYOQLo7/kR9MxHwG9y7USRUoL1+tT5RC3w3yihwgp/Ai7H/Wu0ARze/gVq08Uc1DV5C7AVJdxE239fgtqMNRR1Lx+Lilob6rJf3XE0MADY6aJNg96eE6Z78nWd1o0H//NxN816NhmEihy9DiVCzgcWo54jdrZ/heicJz9KIOvf/rU/cALZyQT0M7JTYmMtSqR93gPbftQmsvHt/78ReBdYjXpO2QrspjObiR+12WwI6po1FDXXk8h+tqJpuPeyHEWlInerPn1XalH3ustR5/T7wIeoud2Fmucw6vnPQM3vQJSoPgL1fnU82btmlQHnod6hBEHQIF8fLAShMBARuGd6sQhcPek6fEH9NZKm958hEd4JOBC7XJp3MxEl9PYj9Pnavdou1J52NzufvrzTlkfiXXjeY1RP/q52pHXVyd+hae6jmNHmnscqUhE4MvdhghOuB79eqcGqybfTsvhPYKqgIBGBU40iIrCQiV3APcD0HI1fhdpR73XtJ6vMR9UObgZeRNXr9YofoETmsIdj6DAfJaZlOzLyPfKr5m0TKhI1FwLwqzkYM9+pIXepyd2gEZWuMx9qXAv5xSGokgCfWmx/EypKb4BnHqkF9KvS/DyBesDKh/W6/sD/oT5XVueuJwLkx7HlK/n4cO3WCsq5qOe+R1ywlUv8KGFxUq4dScPzqNqr2eKPKKH1Lo/H2Q+VGroQGIs6x7+P2tTjlDeB+1Biu1f4UZukrG6UyhVXozaPOoiYEYTeh9s1BgSh95Hx8Xzf52PLT/Iaj/xpmzp+ZUjjuxObTo/Hsc007yoevFZ1nSOjpIyaqd/Vt5GIEZrd+T5kmk6UMneaht+fTqJpu/bwFYefTenQw/f6maPjSYNpQjKym8j8p7X7+ir7Ejz+Gutj6SjqDnD0WUtrL7PfiYaNtCx5SdtmYOBoysfuHRSh5bbjOXL/PHKdNDYtn0MZ+jtoZqNxSleNe53QIy+gUpn1duYDX0aJv6BqfvW8I8c+x6B2jecLS1C77LPN+yjhOZ9YmIMxm1FpBfMVubja42ZgRa6dEPKSgeiJNRtRomcu8JNfAunxqIirJ1Cfse8Apzm0mY8ip5AZHyoi3Q0eRp1P/4lKQ3slKtJccM5bwDU5GPduVL1eoZPvoDI83IfKwnQNalORXb6P+vv2doKod8Y3UeU+bkHNbSFvXhQEzxEBWBDcQETgnullInDV8Zfjr9EvTxH58CXi9XtnI8y1CGzGWml65zFbw9dMu2Nfex6Id01zHsZMxLT7Vk+5GcNXan2sIhSBw3PuszVg1dR9N/mKCJxqNN2PRAQWiKHqcjXk2pEc8j6qVtSelJ+95vG45+HeAqZToqho3GzzUQ7G7In38Vb8T8eHwOdZHlMH/Yca4efAc7l2QshrjtVs/zrqfl3omHSmlbbLcOAbKPHuN8DfgG85tFmMFLOw7eYD/2nAj4HfoVJCv4naFJhNEuTfhjgnvI+qC+513d9MXIbKFiB0cizqHvIIqgb8P4HrbdpKoOZ4sTuu5ZQWVFppJ5yOEsUfQs3tO0jNekHIiAjAguAWIgL3TC8RgTEC1E67Tb+fadI488EMv8qtCNw07wmSzfXaQ1eOO4+SQYfuO47L4l28cRvNC/VLz/hrh1J53OXOz6P0DR2RLRE4vvMzWpf/VdteybCjKTtk383/IgKnGk33IxGBBRajIh96I++iUrilSy1xP84XqbvjALKfcrk75gHJLI4XBtZkcTyrLAZ2ZHnMf2R5PF0khbEejwP/nmsnhLxHf3cuPAD81G1HskgLKjrK7RqdlcD3ULUghU78uXbAQ7w6NgOVavxrHtnPxELgS8DSLI/rBfNRz9a5LPERQ9WS/WcOfXCTZ1H1ht2kDrgVsB6BsDc7UOVyVrrmUfaZjsqu4fbKyzjgIpdtCkLRIAKwILiJiMA90wtE4OCxFxLoO0K7X2TJX4jtzLwum0sR2GyL0DT3cf1xDYOaU25NP47L4l1o9kOQ1N/wWj31NvAFerUIHH77Plv2qqamL0MjInCq0XQ/EhFY4H7U4kJv4nXgfGBDht+/j0qR7RXbgDYP7esyj+wKsouB9VkczyoR4JMsjzkry+Ppspziikzykumo9IrFHHknuIPdtMr/D/ihm45kiQ2oe+6zeJP9YSTOUpoWI/mSZcRtkni7QQ9gNNldo25Epej9BvBFFsd1m9dQGW4yPVtnkyaUCPf7XDviABO4HSVSzvfA/mjgFAf9V6I2S3zgjjtZ5THgWuBVYIsH9rOdRUAQCgYRgAXBbUQE7pliFoENH3Wn326ra+Osh3psk0sRuOmd35FsC2sPGzz2YgL9R6Yfx0XxLr77c5qX6JeeCfQ7kMpx7RuOe6kIHNuylLbVM7VtlR54EiX7HZd+HC2ntIfeu7uIwLrNbDRO6SoisFt8G5idayeyxGOoBYueIj1/gnfpsZ/B+wVMHeqBBVkc7yOyn2rZKnOzONZCYFUWx7PDhxRHVJLXPIJaTHSaSlDoHTjZAHQvSkzNdrYCu8wAptEZjTcDbz4nQz2wKeQfcbx/XhkPnOzxGF3Z2v59Ieqz8k4Wx3aLH6JEr225dqQLYeCbKGG90DayrUNFhXek5Xsd91Nql6JEYCesRqVRf8K5O1mho/zRje3/3wy86ME4Yz2wKQhFgQjAguAFIgL3TJGKwMEjz6Fk0Cjtfi2fzCC6aZmltrkSgZMtjYTffVJ/TJ8/YxQwuCvehWbZq2dbPe0uMNr96KUicPjtX9uyVX3K9zKPo2NIRGBb/R00s9E4pauIwG7QApxLYS46WaXrS78V8XUjqpan2/wGbxYbnPIG2YtctPagkRuymQ77H+SvEN5BG3Af2U0RXkjEUOlnb8m1I0JB4TRC7i/ASeR3itN6VF3Ec9k7w8RnwC88GG+zBzaF/OQFVMYOr6ho/9LF7rr2oi7/XgecA/yXTVvZ5kNUFOm9uXakG55EXS9n5NoRizyBmtM3u/zsJbzJnrDbBRthVB32y8mvDQCpzABORJVT6MoTuO93yGV7glA0iAAsCN3gjcApInBnZw+a5lgErjsjfUrcnmiYoSe+5UoEDs1+BDOmv5EzeNzlBPoMzzyOS+JdbPuntHzymna/kkFjqBh7dheHrPctFhE4+vm7RNfrZzkqO/RLlAw+PPM4Wk5pD793dxGBdZvZaJzSVURgN+hIl1aMIvBy4Cz2fenvid+i0vK5QQuq3vLNLtlzmzeAnVkYpwFvFrHcYjnZq11XKJ+1l4EfIyJwKp8DFwK/yrUjQsHhRgTjZ6h0qzeRX4vuYZRAfQLwS9S9L5X7cHcj0D/ZWyyxSgD7NTA7KGv/yjfKXbBR5YINL/gU+JGH9p/BXnkGO3MeAv6e8rMm4N+A01ECaz6yDfgBKmL57dy6YomPUJtRvoW6duYbcVT5mS+hfEzdJJREZSZyk7nAKy7a+xPquv971DmcL6xCZbo6l/Sfp7W4v4HBi01OglAUiAAsCD0gInAqIgJnomLMNEqHH6ndr3XNu7R9rr8ekQsROBnZTfj96drDGf4Sak65rftxXBLvQjNtRrKeesfeP+iFInB4tr211ODUu7ofR8eYiMC2+jtoZqNxSlcRgd1gB0rQ+EeuHXGR36HSk9lZzGtB1d9yWq93MSrttNuLN26yk+wIkitQImu+EiI79cyWUliplf8bVYcuH2s354K/oq4rqQv3QvfIJgIlnLzvkq1W1D3uWFTGilymlN+FEn7PRqWo7s6XeuB6OlPfOmERamOVnRSvzUDQ4fgBsrdpSAc3ImSdPvt4ycMoAdLtdOJPo9IGx2z0tXMevErm++pMYCJwA/kjBK8A7gGOQolchRTp2IKK9jwauJO9I69zRQS1AfNyVHTqG920fQO1Gc8N5gFX4v5n/AvU5+d01ObBXJ4fy1DzdRTwOOk3I3XwUHsbpySAW4GnXLAlCEWJCMCCYAERgVMRETgddafbi/5tnKkbGNVJLkTg0FsPYib0382CE67EXzO4+3FcEO+iGxfRuvot7X6lI8ZTdsiUFIes9y8GEbht9QxiW/UDAyoO/xqBfunrPP9rHC2ntF3Yu7uIwLrNbDRO6SoisBvsBC5ARe4UMgtQx3ETsN2BncXtNuxyL6qWnJ3opGzjxuJHT8wkv0WgJErE8Jq/412Naa94HpiKWtjKVrrwfGMd6npwjNRgFAAAIABJREFUXvu/BT1qcu1AHvAhsMllm1tQC92TUMLGP1GRuNlgPioK/kyU8Gu1jvqHqE0UTsTwZ1ERc2t6apiBXcDPUMfQnTiQjhjqOeMOVMmIfONtlKix2kbfXah0qT910yEP+AXqWuxGNPk21EaC67BWJiQdb6AnKm4H7u6hTQL4A3AccAXwPzhPIa/LBuDPqHvfRODfcfZcnWsiwP2oWs9Xo+bUzufECQtRm3fOQV3DXrbY7+c4F4HvRV2vvTyPPgAuRtWF/gNq40A22ICKar4BmICaL6ubg76Niry3K4ovQd0DH7bZXxB6BbIqJwjd8Ok3+z2I2kkEdJYItUXGvvuu41geRsOftE0dXwHS+O7JHDloqmUzzZqaxf7lB53AkFv0Uw9HNy5hy32naPdLxTAcrAfamPe+Fz1A1QnXag/V9M6j1P+t58xRjo4HKDvoJAbe+Kp2v7a1c9n52DlpHLJuI+15lL6hIxx91tLaU35XHHkBdZdN1+7fvHA6jX/pOcOqltuO58jddXK351wZTfcjDb8t+pStec88R/86pmv7/bR5uv0Rss+oo6b03Mh9zkUtknS/syK/2A48CDyKuzvPf4ueEPwRqv6hncjjXPIqKoLLC7YDh5Of0VJd6YsSJw70yP5WVETCDo/sZ4PJwCXAtdirlVhoRFCLeo8jUdBOOAF4pP3fbkfu5TvlKOH3TrITqXssSmA9GiUeuXUf/xy1MWoJKopsIc7E5iDq3noj1q+5L6PEk9kOxu1KFTAWdV0eCwxB3QeqUBG+CdQ1YA9KKPwUNQcfk1+pTtMxHBgNHIOa36FAH9T56EMJ2SHU5r/NqHNzIfmdqSOVASjB53rgIM2+n6NS1z6H+rs6pQ9KoLsZKOmm3XrUJkU7JTEOQn2+pwDjgON7GEuXECpDyXJUZpiFqDS5xcxw1HVyMuo6cAzublj6FCWCLkFtklmMs3eUc1HnfJoFo4y8iHqGceu6qcNg1P3/DJTwPt4lu1HUpotlqA05c7C/IaiDE1D3o6sstt+CyhzwIF3ebz5bWihVXgQhu4gALAjdkCoAg4jA+yIiMMDgG1+h4tBp1gdqZ8dTV9G87P+0+6UjmyJwoO8Ihv5oMfj8WsOY0WY233MEycjunsdxKN4NunkGpfsfr91vx29OI7p+YRqHrNsoaBHY8DHgjkUE+mu+xydi7PjV4SRCW3oeR8spPTf26S4isG4zG41TunZ/rxMB2DrDUBEKN+HuApPb7ESJtM+iFvTcpgS16HxuD+3iqFrDvwB6vsnkH2NRi0MDPbD9HZQwXwhcDvzRI9vfJjvR1tlgNGoB8hvAwYDeA1n+E0bVs3ucHKTX9RkmrXE/zVGf5fuhz4Dqsni+LrAYKGEN8jsTgBcEUAv+2U6ra6BEvzHtX/ujxI6BqL9FJXvXsI2hIqaaUILndtSmlY2oKLnVKBHUbQF/GCpt6CnAoShRrxI1X7tRgtlHqPvTfJQo6xU+1MaWUtT8mSihodXjcbNBCerYAu3/n0TNsW4EdD4yFBUFPxUYhRKdalDndxvqer4bJXSvRomcH7T/v9sciYrsPBE4BOiPOne2oiKFf487z6q1qM/z4ahNHiPa/79/+++CqL+3D3Uem6i/dQvqerQHJVptQX3G1wMrUZ/7Qkrv7CbVqHNnLOo8OgB1bnXMaRXq2tTxGUqg0sk3A42oOe24Zq5H1Rxeh3pPcfP6UYYSqiejNgEcgrqul6Kuz3vax12Aum7OJT/uu/1QmxjGtn8/EDXfdai5LUNdpwzU/agNtQGnEfX53YGa23UoUX0zqqyA20xEXUsmtPs5gM5ryU6UqD8beB2V+novRAAWhPTk6fuJIOQH6QRgEBF4X3q3CFw6fBzD7n7b+gDtxLavZvO9J4Dp3vNgNkXgfpf9juBxl2kPE3rrQRpe/Zm1cRwcT8WYM+l//Uva/Vo/eZ1dT1+awSHrdgpZBK4cfxW1F+hrBZF3f0vo1R9YG0fLKW1X9u4uIrBuMxuNU7pmvteJAKzPRFSqw9NRL+n5gIna6f088CRqActL+rSPc36G3y9G1aQrhHTP3TEJtZN9NGohzAltqL/Lw+02C4k7UTWgh7lgK4laCLwPtVGh2KhGRSRdgIpK2p/CTfcbQ11XXkJFhWU98skwYHu4lKa2APvXtXDo4Ig1uc2AeMxg0fYa+lXEem2ebqFHfKgF9kD7v7uWZDNR16sE6qyzUwvVCQadAmWHaBVH3Ut6W9S4YJ8OEclPp4jfcU5HyZ4QFkBFW3eIhVGUUOglHZ9tP53H3/FG1CECd/2Mx8kPYTCfCbD3nPrYe06T5Pa6GWBv4RQ6r5t2U5pni477Uer5aqDmtGN+O87VbG/CSZ1bk86NUhl9EQFYENIjArAgdEMmARhEBN6X3isCD7zuWYLjvmLdeDs7n/82kQ9f1O7XE9kSgUsHjmLI9z/Q/kMnW5vYcs/hJFsarblk93gMg8G3z6Vk6BHaXbfffyKxrRlKpvQCEdgXKGHA3Uvx1w7X6mdGm9nxy7Ekm60F34kInGo03Y+KTgS+tt9PI9PtW80+eSAAd3AcKhp4Emq3eS5Yj4oA+gcqKjfbixs/QNW2Go168FiFSp38X1ivNVUITEalaeuHWvywukBooBZFGoBPUHV/vV7w9IphqBpmY1HzUI7eFakVFS23CHW+5nu6ULc4CRUZfBTqOlEIaeRXotIz/rn9K6sEfCahtgDbm0qJ4+Pyw7eQ8Bl8deR2Lp+01donyA9mzOCaPx/On1YO5ZA+zcSSstQiCIIgCIKQLUQAFoT0BHpuIghCOkzTgQBg0o0Ka1pratmmxaYa/dOTxndP5shBUy2bxr7CS5r+JYNHEzxSpwSIIr5nA5GP/uxsjjJgmoZ9sUtjjqI7VtO89C9UHpUpICs9vvJqqiffSOMb91pzye7xmCahtx6g35VPaXetnnYXe56/NoNdnJ1HDm2m7e7yeZSMx4jMfYSac36h1c8orSR44o00zbjH0vFoHbbjOXLwuUhrzwMROM0xWj6HMvR30MxG45SuXsxRDtjSVA5JqK6IU1ceI5G7Rf2FqLqfw1Hp7U5ARfzp1l3TZRGqLutHqLq6uaxHdi+qjuV4lCi6CJWerNh4p/2rN7MZeCLXThQg89q/QEUDT0DVIj2y/UtvZ5d3zAfepfO6kpO6zKYJK3dWcezQRn44bR1tEYM7TvhCJeiNoJIb+rq3AUAMjDKT6Zd+TNsf/fxl9SAO6tNMXERgQRAEQRAEQRByiLyRCEI3dBcB3IFEAqfSuyKBB1z5O6qOy5AuuBt2vXQHTe8+3WnSg6txNiKBS4cezpC75vXcMIVkSwOb//MwzDbr6/a2jsfwMeT7H+rXs00m2Par8cR3revGtoYbBRgJbJRUMOiHK/FV9u25cRfM1hDb/3sUZjSSdxGpIJHANprZaJzSde++BRcB/NaP+kMQXlo4mKeXDGdQVRvlgbzJ2DYCFQ07FhXxNwZVN6uPDVttqLpoa1D1lZa1/3s1hVlTVxCETnyoem/7t38/ms4aewfi7cbwPagI38Wo68pqVNSvtVQwLmICrXGfym9oGpQFkvzHlM+YsF8DhxzSrJILhlDJDnXveyZQCUkfXP7cUfzvqkHsX9NSFBuhBEEQBEEQ8h2JABaE9EgEsCA4RCKBU+k9kcCBviOoOvYia4a6kAjtILzghb1NFmgkcHTLcpqXv0bl4WdrmfdV1FE96ZuE3nrAukt2jsdMEpp1P30v0Sz75/NTPfU26l+5pRvbFHUksBlrITz3N9Sc+ROtfkZ5DcETvkl4zgN5F5EKEglso5mNxildCzwS+NTDd0MJnNSvnlsmrud7M0Yza21/+lTGqC2LkTBzenAb2r9mtP9/Lar+Zw0wsP2rClXXrwKVRjeBSmoaQ8W37UFF39UDYZT80Za1IxAEIRskUdH7XSP4K1HXhypgEGozyVCgf/vXQGAAqs5wCer60VG3tOOBP4lKtx1CXUN2ompPbwC+QG0i2YW6zuQsWt9nmOxpKQXTJFiW5KojNnPNpM34Iyb7D21RR7KNzmhfO5d1A4iALwh/vGwp17x4BC+vHMLwmlZ8Lm8+EwRBEARBEARBsIIIwILgAiICp9I7ROC6024Dn9+akS40zv4NZmzftfVCFYFDsx7QFoABaqbeTNPc32HGrJdttHM8zYteovbMH+GvG6bVr3L85YRm/oJEw+ZuHKKoReDm+b+naspt+MprtPoFJ32HyHuPYcZa8k6MBBGBbTSz0TilayGLwGHAhNLSJGNHhJn+lY/5zqyxrN1WyWcNQYZVt+ZTms9GOqPqMhQyFwRBANRGkGbUBpB1wPspv/ext+BrAH46heAE0IISgTu+Etlw3Ao+w6Q17mdbuJS2uJ+Jwxs4cliI+09ZRbAsrqprB1EzYGIt1XOPgyp7/jKT5y5Yhu/P8D8rh3BgXQtJ0YAFQRAEQRAEQcgybrzmCIKAWty23znTL/ZdULY8jIY/aZs6XqRI47snc+SgqZbNvY/HXzOIqgmXWzfQTrK5nqZ3M9ekdTRHGW06Ucp6btK2fiEtn87SNu0L9qXqhAx1drtzSfN4zESU0NsPaY9j+EuonnyzhQE0fNHZyeAAt86jZEsjzR/8Qbufr3oQFcde0cUha/203HY8R+4Kdl58dtMdo+VzKEN/B81sNE7pWsiL3wYqJWgY+ldFefGaJTxz6TLqymJsDpXjl+guQRCKjyTqyhdFZQVoRUXx7kZF+u5BCcBtqIwCeST+wurdQRIJgztP+oIbx2/grxd/xOMXr1Dir0mn525fvg3UjPngmYuXcemYraxrqKDEJ/cJQRAEQRAEQRCyiwjAguAiIgKnUrwicO2p38UIlFnv3E7onSdI9lD3thBFYJ1Uzl2pOfU2W/OoezyRD54lEd6pPU5w4jX4gv0sOGTdZqGJwOG5v8WMW4/S7qBq8u3g65JoJM/ESBAR2EYzG41TuhbD+ncS2AmHDQ8z47qF9K2Isaa+sjiOTRAEocAJR/2sbyjnJyev5ekLl/Hzr63m0ctXMKg2qiTrJO6LvunoEIEvX8b5o7azZk+lpIIWBEEQBEEQBCGriAAsCC4jInAqxScC+4P9qDnpOuudOvpGm2mc87i1tgUmAreumUfr2ve0zfqrBxE8/oqeG6ZzSeN4zFgL4Xc06wADRkkF1ZO/a3EQ63YLSQROhnfQvPBZ7X7+PiOoGJdSIzvPxEgQEdhGMxuNixAfUA+jhkSYc8N8Xjh/KdGEj5a4Txb4BUEQsohhQCTmpznqZ0eklCuP2MKsGxfwsy99xmmH7VYViOtRsczZXP0wUOmlgReuWsoFY7fxeUMlydzWjRcEQRAEQRAEoRchArAgeICIwKkUlwhcPfkbGKWV1ju0E5r7JMnmesvtC00EDs2635bZ2ml3YvhLbfXVOZ7we0+SbA1pjxE88QZ8FbUWHbJut5BE4PCcByEZ1+5XNfVOMFIeNfJQjBQRWLuZjcZFiA8IwYh+rVx04jYeO3cF0YSPdfWVxJOGCMGCIAge4TNMogkf25rK2NBYTp/yGFMO2sPHN87j3lNXceKIBpXeuQHbtevdcRSIgC9p8vzFy7hkzFY2hsolY4QgCIIgCIIgCFlBBGBB8AgRgVMpDhHYVxakduq3rQ/eYTrWRuPbj+r3KyARuOXTmUQ3LNI26a8bRuWxF/XcMJNLFo8n2dpEeJ61COyu+MprCE7UiPguQhE40bCJ5sUvafcLDBxN+Ziz0zhkrb+IwKlG0/1IROCc0hHhVQ9njdvJ01/5mGkH7aY55icSC+RUdxAEQShGDGDV7iDxhMGFR27jywfv5O8XL+KPFy9lv76tqvpEIyrVcz5chA2gBXymybMXLOOyMVvZEKrALzWBBUEQBEEQBEHwGBGABcFDRAROpfBF4JrJ37AeDdqF8IIXSIS2a/eDwhKBG2fdZ8tk7Wl37V0vVhOrx9M093eY0WZt+9VTbsYoqdBwSKdpYYjA4TkP2DJSdcpdGRyy1l9E4FSj6X4kInDOMYF6OHvsTl6/6UPumfIZu1tKSEiqT0EQBMcEfCbNMT8b6sv5vLGCG4/dwINnr+SpKz7mlWsXM7J/M7Sg6u4myA/htysGEAP8MP2SZVx86FbW1VcSEBFYEARBEARBEAQPEQFYEDxGROBUClcENkrKqZ2iH/1LMkHDzAf1+3V1qUBE4OblrxHb+om2uUC/Awkedb59f7B2PMnIbsIfTNe27Qv2IzjxGk2HdJrmvwgc37GK1hV/1+5XMvxYyg45NYND1myICJxqNN2PRATOOQZKfNgDN0zbyG/O/IQdkVJiCYOkmX96hCAIQj5iAEkTYgmDSMxPqC3A6t1BjhnSyMtfX8IrFyzm0Qs/4cLjtqn6vk0o0bcQaAN88NyVy7jw0O2s2aNfUkYQBEEQBEEQBMEqIgALQhYQETiVwhSBqydeib9moPXB2gl/9ArxPRu0++3jUiGIwKZJ40x7UcA1p92J09uSleNpmv0wZiKmbbt68s36tYqLTARumv1rW/2qpmaIAoa8FCNFBNZuZqNxEWMCTXDdKZv41WmriJo+2hJ+2hI+EYEFQRBS8BkmbQkf9S0l1LeWsLO5lGjCRxQf90z9jLe+tYAPrnuPZ776MV85cgdfHb9DRfs2UHirGQYQAZLw7OVLuWjsNtY3Vki2CEEQBEEQBEEQPKHQXpkEoWARETiVwhKBDX8JdafdquNRuw2ThpkP6PfLbM513BaBI0v+QnznWm1TJYNGU3nkVz0X7xKhrUQWPK9tV9UqvtSGQzpN81sEjm1eStvqWdr9SkeeTMmI47pxyJodEYFTjab7kYjAeUEMaIJvHb+B5bfO4+tHbmZjqJxYUhb5BUEQQL0JbAuXsWpXFWX+JBMPbGDisAYO7R/mmnGbWX7LPK49ZhNj+4c59qAQfWpisBsIkT/1fe3gA5rBnzB5/qKlXDZ2K5say3PtlSAIgiAIgiAIRYj9gouCIGhjmmDYXawwybDQYZC64p6xqWWbFptq9E9PGt89mSMHTdsbVo2/iECfYdouNX/8KrFtq7T7deuSkznKaNPAMGwqN6mTaSZpnHkf/S57VNtUzWl30rzsb+0Hac8d6Pl4muY8TNWEq8Hn17JbfeodRBY+D2ZS0yE0zk0Dw4qK5vDzZ/c8anr7PspGTdPuVzX1buqfvbgbh7B0PFqH7XiOHHwu0tpz/7Ob7hgtn0MZ+jtoZqNxkWIAcfW9jz/GPWetxjRN/mvOIdRVRRla1SZisCAIvQYDSJgGG0PlJNtvT0nT4OojttCKj4tHb+W8idtVdCyo+0iy/as5xVAx0F4ywCiB6RcsAxNeWDmEQ/o0y71BEARBEARBEATXEAFYELrDg0VsEYFTKQARGB91p99my52GN+7Lv/Moo033RODwRy9R+6UfEegzXMtM6bAjqDjsLFqWv+apeBfftY7mpf9L5dEXadkM9DuQynHn0bzkzzYcoihE4Oi6eUTXf0Dp/hO0+pWPOYvA4MOIb1vRjUPknRgpIrB2MxuNixgTJQSb8PMzPmPk0BbmrOzLiyuHMLJPMwlZ6BcEoUgwO/7TflnzG9Ac81HfXEIcg6rSBL+ctory0gRmApIY3DRxA9QCYVR0b2/LTxYFymH6ZcuIv2Dw8qeD5d4gCIIgCIIgCIJr9LZXLEHQx5OUu046Z/qFpIPu7Oxu06qjz6Vk4MHabrSsnEXbxiXaPlklr9NBJ+OEZt1vy0zNqV3Edg/T+IZm2qtnW33qnfYVvCJJBx1+61e2xuq2FnAHeZiWWNJBazez0bjIiQMJuP7kTTx56XLOOWQH6+oraYnLo7ggCIWJYUAsadAc9dMS9xNPGsRNQ31PGmwNl3L04BCvXvcRr136EX+/+CNunfYF3zplI9+etpGbpm2ABLATaKV3rkwYqGMHnrtqKRccuo219ZUknSXCEQRBEARBEARBACQCWBCskW8RnBIJ3DNuRQIbhv3o35kP2vbJKvkcCRxe8Edqz/w+/upBWibKDjiekoGjiO1YvY9NWy5lOJ7Y9k9pWfEqFYd9WcteyZDDKD/0TFpX/tOmQxR8JHDr6hnEtiyjZOiRWuNUHHEe4Rn/SXz3uh4cIu8iUiUSWLuZjcZFjIFKZboNSoNJ/ufSJVz9yjg+3FRDQ2sJfSuiJF3eaCAIguAWfp9JY2sJfp9JLGHQFvcRTfoYXtNK32AbgyvaeOTMlfj95r8e56MJHwODbdQOjCuh10RF+qbeknr7pc8AImAE4blLlxF4yeTFT4awX00rPhefOwRBEARBEARB6H30xn22gmCPfIvglEjgnnEhErhy7GmUDj9Ce+jWzxfQ8tm7jnyySr5GApvxNkKzHuy+bQZKDzgurU3bLmU4ntCs+2zZqzntbifuFH4ksGkSnmPjb+vzE5xscUNFHkakSiSwdjMbjYscH9AMJYbJny5ewlvXLWB0nwibmsop8clECYKQP/gNk+2RMtY3VPDp9mpG1LZQUxpndL8IXxq9i+OGNnDvqauY/533+cclixg5qJn9B7Sw/0D1dciQCLVVcWhACb8R5H6QifZ7gz9p8uz5y7h87BY2NJbj6+3iuCAIgiAIgiAIjpAIYEHQId8iOCUSuGccHk/dmRZS1qah4Y1ft9tME32Xb+dRRpvOI4Gb5j9D7Vn/hq+sSqu7r6Iuo027pDue6IaPaF09m/JRp2jZKh0xntKRJxFdN8+BQxR0JHDLsv+l+owfE+g3UmuMymOvJDzrv0mEtlpwiLyLSJVIYO1mNhoXOQYQU9/3G9DKy1cv5svTj2XRF33Zf2CY8kBCooEFQcgJfsOkOe5na6iMWNzPNcdsZL9+rexoKOXW49ezLVzKIf0iDN+vTV3HokALSsCMZjAqlzNrdNwbSuDpiz7GNA1eWDmEQ/o0E5OawIIgCIIgCIIg2EAigAWhG7yJck1jUiKBU8iPSOCKQ06i/MDjMrbNRHTzxzSvnNXFZppFm3w7jzLadBYJHOgzAl9pULtrojGDOOhBBGdolr1awDWn3e18zgs5EthMEn77Af0B/CUET75ZwyFXm9lonKa7RALrNrPRuBdgAk0wuK6N1y/9kN9esIyasjh7WkpJylwJgpAlDCBpQiJpsLahkoEVUZ69eBlPnruMp8/9mP937mc8duUKxgwNc8qYPQzv2wb1qIjeGOpaJtcs94gCPph+xTIuOnQba/ZUur9RTBAEQRAEQRCEXoEIwILQAyIC22xaBCJw3Rm32xqqYcaD+zjbW0Xg2mm36Yc3mkna1szt5ve23VHdU46nbe08ousXatspP2QqpSPG92oRuGXRn0g0bta2X3n89fiC/TQccrWZjcZpuosIrNvMRuNegA9ohIF9o9x0+gae/9pSBlW3EU/4aIn7pP6jIAieYQJN0QB7WktImAZ+v8mL5y3hlcsXc+mErVw/dZN6HN8B7KEz2rc9g4HgEQbQDCTh+SuXcvFh2/iioYKEaci0C4IgCIIgCIKghQjAgmABEYFtNi1gEbh0/6OpOFQvLTBAbMdawov/lmH43iUCB/oMJ3jMRdr9mj9+lUR4Zw8OaZvdu3vK8YRm/sqWnZppd7Tbc+ZPoYrAZiJKeO4j2raN0kqCJ3xL0yFXm9lonKa7iMC6zYR0+IA2YCccuV8T73zrA+4/eyXhaIC19ZUkkoZEfwmC4Bp+n8melhJ2hks5tF+YQVVt/Nukdcy7aT7nHbWd/fu1wG5U7d4EIvbmgvaawEYcnrloGZeO3cKmUBnJXPslCIIgCIIgCEJBITWABcEi3tS7TTOO1AROITc1gfuccact8w0zHwQz8/JMb6oJXHPqreDza4/TOOt+iw7hWi3Xlk/fJLblY0qGHqFlo+KwL1MyeAyxbSudz3mB1gRuXjCd6lO/h6+yr5btyhNvJPzOQ5jRiIZD5F1tWqkJrN1M6I426BOIcf747RgJeHrpMOat70tz3M+Bdc0kpDawIAg28Bkm0YSPTaFyYtEAU0bu4sgRTdw3eSUlZWbnBbwNuZjnCwbQCr4Sk2cu+Bg/8PyKoRzct5m41AQWBEEQBEEQBMECEgEsCBpIJLDNpgUWCVw6eDTBI8/WNhuv30x44csWhi/+SGB/1QCqJl6lbb919WyiGxd7cm6m7d5xPKZJ6C0b9WyBmmmdmwV6YySwGW0mMu9Rbbu+ijoqJ95gwyFXm9lonKa7RALrNhO6Iw7sgfPGbefv31jEA19ZydVHbubT7dVEYn4CPpllQRCs4zdM1jdWEo35uPe0Vfzb1NW8dMESHr7oE0r8pkrpHKeznq+QPxiov40Pnrr0Yy4fs5W19ZVyHxAEQRAEQRAEwRIiAAuCJiIC22xaQCJwnzPtRf82znoEMxG1OHxxi8DVU2/CCJRr226c2Rn9m20RuHnpX4jvWqvdv3Lc+QT6j+xiz5k/hSgCR95/HLMtrG236qSbbZ0nIgLbNZruRyIC5yU+oBVohK9P2swT5y7n5esWcdJ+9azeHSQS8xNN+GiL+0hKXUhByDkGkDAN2uI+ooncvWIbQCxpEE34aI37CEf9bAhV8P+mfMaLVy7hjjO/4J4LPmNgnzbYjlywC4U29W36Vcu4cMw21uypzK0/giAIgiAIgiAUBCIAC0K3pF9SFRHYZtMCEIFLBoyk6pjztE0lmnYSeu9Z5+Jdvp1HGW1mlht8FbVUT7pe22bb+g9pXTN373EsO6Q93N7dTQPMJCGr6ae74vNTPeWWFHvO/Ck0ETjZ0khk/u+1bfqqB1Fx7BU2HXK1mY3GabqLCKzbTLDCLsCEC4/expPnLOejG9/jha8tpbY8Rv/qKLGEwfZIKaG2gNQKFoQsYwBJ02BbpBTThAE1UfpVRGloCdDUFsDnYomA7uhI8bw9XEplIEkgYDJpv3revmEB8699n7unrmPSwfVQj6rvG6UYVgJ6zxWjK+pJAAAgAElEQVTPACJAAp67bBmXHraV9Y0VUhZAEARBEARBEIRukRrAgtAj+9agBa/q3e6L1AROxduawHXTvmuvbu3s32HGWtPa7H744qsJXH3idfjKa7TtZRJfvTg303Y3DZoXvUTtmT/CXzdMq2/w+CsJzfgFidDWLvZ6V03g8LxHCU66UTuit2rK7TQvfAaScRsOITWBbRlFagIXEgaQAHZBdTDOuLoQxOHdIR9ApcnDcw7g1XUDKDOSzN3QhxLDpH8wSrA0QULqRLpCh7i2LVwGSegbjFFTFpc6nAKxpEE4GuDQfhGuO2oTV564hdZ6P7fOOpRPt1Xx0bZaKgIJBle1UepPknRZsPMZJlvDZYRaSzigroXDhzfx3yd9xrgDQlTEE5QE26/rbaisAvl9ylYDNUAlUAHUAkOAge3/Lmv/XRVQipKwk136J4EwEAIaunzf2v69CSWjhlAJrwsLH9AMvjKTZy9Yht8weWHFUA6obZFNV4IgCIIgCIIgpEUEYEGwhIjA9hoWlggcqB1M9UT9aMRkS4jQvKfS2rQ2fPGIwEZJOdVTb9K2E9u+iuYVr2ceh+yIwMl4jNDbD9Hna7/U6mf4S6g+5RYa/vbDvd3pRSJwsmk7zQufI3jCN7Ts+fvsT8W4C2lZ/D82HUJEYFtGERG40DBQkkW7bFFVEYck/OiUtfzorLU07Ajww9mjCVYm+OvyQXy6rYZAIE5NRZzBwSixPBErAz6ThtYAO0OlDKlry3uh2u8zWVdfSXVJnJvGb4AyeGNFfzaFyxkcbJMIvF5KiU8Jr/XhEn44ZS3/9eXVqlZrFIJVCZ6/chlrPq/k5/MOpl8wyrOLh1LfVs7BfZodnTMdmxE2htRmq3jCx1VHbsZfCmeM2MVlJ29R8mYS9abf0qVz/pyqPmAkcABK4D0QOKj9+34owdeLHMfbUGLwemAlsBrYDHwGfOHBeO5joKK3S+DpCz/GBzy7Yiij+jTnzTVeEARBEARBEIT8QQRgQbCMiMD2GhaOCFx32i0Y/hLtrqF3fk+yJZTWZm8TgasmXIW/aoC2jcZZD/SY7zZbInB4/rPUnHa39nFUTbiG0Mxfk4zs3tudXiQCh+c8QHDCddpR9FVT76JlyYv2cx6LCGzTKCICFzKJ9u9RoA3qgnF+d+kKKIWvHLCDRdtqqO0TZ+6qPkz/aATVwSgkoawkSd+KGIn2uDkDD86tdkyz805tGLC7uZT6SCnTDt7F5ed9xm9njGDx9loOqouAkT/niQG0JnzUt5TQFA1wx8TPOenges4btx3K4ZJDazn3+WNZ21D5r+i7fPFd8BYDaEv4+Gx7kKuP2cjUsXu49rBNKsI20aXhHjh4YDNPX7UMDJh80B7mrenDffMPJFiSoE95jPJAkoSFy63fB5Gon1BrgNakj2HVrTz+5RUAtMR8fOf4DdAPFdu6i3xM7RwAJgLHAIcCB7d/3y/Lfgxu/zoa+FqXn68DlqBE4feAN9j7r5l/RIEy+MOlHxN7weDFlUMYWedsc4EgCIIgCIIgCMWHCMCCoIWIwPYa5r8I7K/qR/WJV2v3M6PNNL79WDcN6D0isN9Pzam3aveN128ksugVa+PgvQhsxlppmvModV/+qVY/o7SS6pNvpPGf9+xrs5eIwImGTTQvfpHKYy/XshUYOJqyMefQ9sk/HDiEiMC2jCIicDHQkSa6EUjClLF7mHLUHiiBKw7awsVjtlFdFocKWPJ5DT9++xD6VapQ4qQJbXFft3+fypIE8aRBwjSoCCRpifsIGCZtifRKU8ffu8yf/Ncfvi3m47Gzl1NTHWdcnyaGjGpjct89LNxQy4/fHkUsbuD3mZT6TW/qX3eDYUA8YdAa94EBrXE/44c28O/T1tIS8XP6qF0qOe0eoB6OG9nInG98wHtr6/jRnFEEMPH7TEpy4Hu2MQyIJQyi7XNVUZLoFZ9tw4DWmI9IzM/Rg0P87twVnDp0N2VDk0p0TbD3Rc6HitZvAEz46lE7+OqoHZw5chdlwST3zh7J+5vqqCvvufzBlqZSLhqzjesmbSIW8tGnIsZRo9s3HhqoiN8d7f/OH/F3BHA6cAowBiX66tcHyQ4j279A/dU+BuYBj6FE4fzDQG068MOzVy4j+UeDlz8ZzH41rfgNU1JCC4IgCIIgCIIAyFqcIHTLyhv6P4hBGkUr/Wt1Rn3VZRwJABn77ntMlofR8MebOUrju6bNvl/5N/qceaf2yI1vP8buP/+o54Zac5Tm/Mq38ygNVcddSv8rfqfdb88rd9H07pPOzyNHDffGV17N0H9foV3LONkaYst/jsFsC6d3x+mcOz2PHNpM2z2lf2DgoQy8/QPtg41u/Ihdvz3FuWBqcVgt7xzPkbtLsZ5Ea6axafkcytA/Q7Nr+/9HZLp1w3nAEwX8uJxEVc0sR90q22tIrttZSak/CWXw+fYKbn1zDFWl6QPekqbBsu3VDAhGqQwkWFNfyai+EepbSzigT0vaR6J40qCyJMkjZ35CdUUcEsrOiEEtyp9W5QfVqv2mcDmvLx/Aza+Owe+DIVVtWRExDJQAvjVcTr+KKCP6thCP+bjv9JWMHRKhrk9MHV8zKr1vx6lgoqqQJmBDpIKXFw3iB2+OprwkyeCqtqJ8wTIMSCQNtjSVMaSqjWF9WjHjBit3BjF80L8iWpTRh37DpDnuZ2e4lP37tPDkV5czdlCYPn1j6rxow5roaqK2XlcCBjTuDLCnpYSS/8/efcfJXdX7H399Z2e21xQSSAgQQhJKAiH0QCCFXkSl3IuoIKCASNfrvXKLqOhP6SBYQEVERUVAkZqQAoSW0AklIaSStsmW2b47M78/zmyy2czsfNvstPfz8ZjHJjPnfM6ZyXdL9j3nnEDqq7wzYlb9lg6NmqA5ihk7uwSBUcApwNnA/pitnHPZVuAh4L8wZwtnnyhQbr6+XvS3A3hy+XCqi3vStquDiIiISLZa9vbCTE9BJCtpBbBIKgmXLWklsLuG2bkSOFBWTc10Z+eWAsQi3TTOvdtmY/J7JbAVoGb2NY67RcKbaHntD/EJ4e068tRwR9GOMC0v/orq2dc76hcoraZq2iU0P39b4ukUwErgnk0f0vH+Pyk94AxHdYp3n0rJuBl0Lp/nLTDVSmCXRRm0lcAyiHpXIcbPDSYGFMHYkW3b/s1GV3bw+kUvJ/7nC0BXt8WXH5/MqftsZmxNO/+3cBw/nvkRi9bWcdVRq0wwmoBFDKuk352dmPAXMw/a4nMo6+CSo9fQ3W3xt6UjeWtTFUNKuwmkKcQIBWJsaQ+xpSVEcXGMw0Y1cuaETXxr+ipog0BJfO/qJrZf133nYmG227VgTHk71x23kkjE4qllw3llTS1lxSYI7smTMzmLAjHWNJURJMqRoxs5f9I6vjrtM3qaLK6eN5F31lXz0qdDGFXXTnVJT1487943B3y4pZK96to4ZlwDP5z2MYfu22Su26Z4Q7srbntX6YeBGNRU9lBT3WPvi2Jv30ay8e3buwFHA2dhwt+KzE7HV0OAbwGTgc+x/V89ewSAdggUx/jtGe8y/ufTaekqSvqGHhERERERKSzZ919IkSzywcXDbof4CuCEny1aCeyuYXatBK494WqGnvE/jkdrXvR7Nv/pajOO3U55uhK4fNKp7HLRHxz3a3zi++b83x0mZL9/OlcCByqGMuqGd7GKyx31i4Q3sf6mycS625NPJ89XAodGHcTwbzl/92XnJwvZ8uvT4vW0Ejh1PV/LxYsmusvXlcAXDtcK4Owz0FO0gDJM0Nu7orgDE+B2pajr5JKPYVZHBuE/Hx/PTxaMY5faDoaVddPtU6AYsKArYvHppiqOGbeZGRO3UN4T5T9mrNgWpCR5j19qFUAX3PTKWF79pI5/vLsrY4a3UF4cIZKjgWgwEKOpM8hnW8r5tylrOXJsI1f2hv6dmNeqDjatKebHb4xl3gfDeHt9DeOGhQlYuf+Gj/q2Ys6euJ5TJm7mc0dsMgFsN/oftHEgcAZwPjA+w3MZDDcCzs4GGWxBuHHuOG56eSx71nQQzfVPQBEREREHtAJYJLGiTE9AJJtdcXD5ScAR2+5IuBI4sdwNgRMXzI0QOMncB6hphUoZedFvCDgM+YhG2Pi7S4i2NaQYPdGg9hvmxHUEDDv/XoI1uznqE+1opv7BS4j1dCaYkP066QqBY93tFFUNp2SPQxz1C5RUEAlvpGvNkoGnM2ghcJLryFPNJN3j/aPhDRTvcTjBoXs56h8csgedH88h0vQZYA3aazR4IbAPz6l/xUEJgR1cQwn77+Dxihnfe8vhjDJryff7/m03TPwZzcxkMiCGCb16t57tin/0e4GZhQkWYzB73Bb2HdNCrAsWrhlCdUnE1bXeE7WIxizAorW7iM2txdSVdfPjEz7i20d+ypnTNnH0ng1mRWd3qmopdJm5H3NQA6fttpmxo1pZvrmclY3llIWiObMlq1n5atETtfikoZxpuzfyvZOX88Ojl3H4/k1mDWTff/tWqKiMcNKh9Uwb2sB+u4SZt3IoLd1BSopMApUrzz2G2bGhvaeIdeFSbpqxjB+evYyJw1vNZsA6zBzM/4t+DPwAOBUYmtnpDJrRwD1k89d+C449YCuh7ihzPh1GeSh7pyoiIiLit60bV2V6CiJZSVtAizih7aA91LTZdJC3g66edgFFlcMcj9Ly1j/o3rxix3FIx2uU/dtBl44/lpIxUx33C794H9GO5iQTIiu2g26edweVR12EVRRy1K96xtW0vvI7YpHky+PyfTvolnm3ULLPTMc1Ko+7lq2///d4PY9bJ2s7aJdFGZTtoHPMl4BvAzWYuPBV4Bbg/UxOKi91AUVw7qHrOX2fTbT+OcgLq+uwYhAqilFR3BMPdXcUA8Kdwe1XaQyGlHcTDMTYEC7hO0etYMb+W6np6WGfvVvNat912N/CN5XeHz/WQ1VlDxcfu4bjR9Vz9t8PYmNLCW1dQSpLeigpiiacf6b1ro4OdwapKI4woqqT+097j8m7hhm2exc0AJvY+fXq3WZ8HUzaI8yksWGO23cL85cO5caX9qbEitEVtagpSbJXeBYIWNDcWQQx6I4F+OrkdZx72HoOHda0fdWvX9dJ7toP+B5mm+faDM8lE3YFJpDNX/Pjn2Ln7LeBnywaS5R8/FYsIiIiIiJOKAAWcUohsIeaNpsOUghsFRVTO+ubrkZoeOaWhPcXYghc6+Ls31hPB+EF96RoRMZD4EjTelpff4jKIy6w3wkoqh1F+cFn0/r6QwNPJ49D4M4VL9C1+nWKxxzqqH/pfqcSHLEvPRs/iNdTCJy6nkLgNJsN/J4dI6D9MGde3gXcCWzMwLzyk4VZY7cJyksjPHzWW3y6pYxr5+3Lyi1lvL+5krLgjsuPY1gEAzEO3bWJYDBKLAbdkQB3nvABuw3toKs9wMjqTrNNczcmzIT0hHoBTIi9CfbYpZ3nL36N1z6p5bsLJrC5OcSKhnLG1LRTlEVbJMeAlY1l7FLeyZgh7dx49DKmTWigtrTHrPbdhPl3Gej1CrDtXOQDRrRwQHULZx+8gVsW7Mkzy4ezYmsZZcVRhpV3ZdUZwcFAjPUtJexR1c4Bu7Vwy8wPGV7RSaAK83wi5NPXMjd2Ba4FvgFUZXgumVQMTCSbA2ALCMPo3Tv4zyM/5T/mTGTiiHDObkEvIiIiIiLeKQAWcUMhsIeaNpsOQghcddg5BOtGOa7c+u5TdH22NOnjhRQCl4yZSun4Yx2P0/LKg0Ra6m1MiIyHwM3z7qTysC9DwNmpCdUzr6V18Z8gNvAWfPkcArfM+xlDvvoXx/2rZlxPw58v6lNPIXDqegqB0+gCEkdfVcB/AecCP8OExMkP/xZnLKATiopijNuljX9cuITXP6zhJ4vGMqJix90VemJQEYpy86wPKSqL7bw9dSnmvmYG75qMz78yGGHmuC28NnkRD7w0ikeXjmDBmiEMK+/K+KdHKBBjXbiEjq4iTtinnlPGb+bSY1Zvv4rb4h+dTDQGhIEAjCjp5KenfMT3w8u5/sUJvLO6iheXD2PMLq2UByNEMrgSusiK0dZTxLINFRwwuonHvvwGew5vN2cb971WMv2PlFkXAv8HjMnwPLJBEBiZ6UmkFINQLMZRezcw/p0wLV1FlAW1FbSIiIiISKFSACzilkJgDzVtNk1nCGwFqD3R+cpVgMZnb0vZplBC4JrjXbyG0QjNz9/hYEJkNATuqV9B29uPUj7lLHsd4oLDx1F+4Jm0vfX31NPJ0xC448Nn6F7/HqFdD3DUt2zyF+he/+5OW2h7vtQHKBANb6Rr5SIizZ8pBN6hKAqBoTrF43sDv8AEwXcDqT/pxb7eMLcJDt2jiUf2fTPxKZwxzIrNBMfKb5OJa7F35+Mm+Orh6/jqMeu48R/j+N95+zCyppO60u5BXxEbsGK0x8PPf5+yjmnjG/jm1FXmf4Z+hOS9P371mFtZSYSfn7uUVcvKuO/90fz1rV35aGsF+9S1ZWQVtAV8vLWCcbVt3HDix1xywFrG7NK+43PP/a9bXuwD/Ag4O9MTyTK5sfV1Mxx9UAOnv7OZW14Zy4Th4azcdl5ERERERNJPAbCIFwqBPdS02TRNIXDV1DMJDdvLcbX2j1+gY+ViW23zPQQOjZxA+QGnOK7duuSv9DSsdTghMhoCN8252XEADGYVcNvbj5oXNNV08jEEjsZomX8rdf/+G2cdA0VUn3yj+4E96HjvMZr+eT2xsM0dfRUCu+qfYxYCp9toNyN++ztwK/BSOidVcCzM9s1NmZ6ISxZmRW03/M/s5RwyvonH3xjBb94axa6VnQQsKCmKpi0QtSzojlj0RC0aO0IcslsTt5z2IaeP2UTJblHYjFn5m47P1SiwwWyJ/YPxyzhr4kZeXVnDf8/fh+JgdNvy+pI0rlS0gEjMorPHojNSxD0nv8/hezZx0MRmc001oXN+jc9htrbfPdMTyULFmZ6ALQFgC1x42FoWrq1jdVMZ1Vl8BreIiIiIiKSP/psr4lXC39Ql/u1ZwqZp+E2fjaxpgM7JHtj5OdkexsF80vMa9Zu7ZVF3grvVvw3P3Or9+XhqaIIXL/1tj5OiZs2sq50nTbEYTc/f7nJCaWhqs2H3hg9pf+9J+xOIC+02idIJs2239/S5C96vI481E2l751F6tnzqrcggKj3gTIZdvoBAnYMdLz2+RjGfV+Z4vo4SFk10l4N5Z2KZn3/+ACTf939nXwCeBO4DxqdlRpK7uoAeOGW/zdx14lLe+PoiDto1TFEgxsbWYra0heiJWgR8emNIwIKeqMX6cAlFVozhVV08fs4bPHzOW5w1dQMlpVFYjwlp0/lGjQBmdfYGOHBMM18/eg0Lv/kqVx66iigwvKKLhrYQ4a4gRR6fe0NHiC1tIba0b79taC1mVVMpVxy+mhe++QrfmLaGg/ZoNqd3d6L/FRszgAdR+JvMQPsLZJdO2H+vFg4e2Ux31PbbtUREREREJM9oBbDIALytJNRKYHcN078SuGLSSRSP2t9xhY6VS2j/aIHj+eTjSuBg3WgqpzrfGbDtvSfpWv9RGq5ND01tNmyaeytlLlY8V8/+Nh0fPme7fd6tBI5GaJl/G7VfvNNlgcFXVDOKuvMepP6eGVgpznDeRiuBXfXPERuArwGPYf8MyGrgIuAc4KfAA8CatMxOcouFCVu3QHFJlEm7h3nkvDd4f20l1z+3LzUV3by8qo6VjWW+rIjtigQYVt7FASPDXHPoSk6bspmyWMR8Pm6Jz2cww08LaDEfJ9S18u1pn3LZYavp6Apw1dz9+GhjBUs+q6E01P8g59RiMQusGDP32EpZSWSHrcLr20LM3msr/zFrhXnu7aQ/9M4tJZjzfqsyPI9sljs5agBohh/P+IgnPxlOZ0+AUp0FLCIiIiJScBQAi6SgELi/3A+B60681lXvnc7+LeAQuGbWVRAoclyr6bnb4jU9hF0Zet27Vi+m4+P5lI4/zt7gcSV7Hk7J3kfT+cmLtvvkWwjctuSPVM3+LkU1u7krkAGhUQdTuu8pdCx9QmcC71AU7yFwbnoVOB74C7Cvg35VwA+AS4A7MauJbe4vLnnNYtsZuSErxkGjwsy55DUohvvm786SDdXU+LBta7iriP2GtfDNmatN6NnJ9s/DTIafMcyW2BZUhiJUFkd46Ctv8/HyCv7fS2MZXtGVqsLOJeNfn34842MCVbHt5y/D9uC9td990msyMMXnmu2Yk5WbgTDm1W/vc+vsc2vv068bE2EWYYLpEqAcqIjf6oBh8VuNz3MeSG7toxyFmooezt13PX9eumumZyMiIiIiIhmgAFjEBoXA/eVuCFw2YTqle0513K9r/Ye0vvvUzg8UYAhcVDmcysO/7LhGx8cL6Fy9pE/N3AuBm+fc7DgABnMW8GYHATDkVwgci3TRsvBOak7/ifPOGVS632l0LH3C2dNWCJzP3gNmAQ9htkp1YgxwM/BV4LfAHeywPlEKWoxtYTBtcPHRa7g4hD9vmOgNmpvIzsAzxvbnWQ/jR7Ry/1fe9fbZEY7fsvH5Zq81mBDWzgrgDqAe2IR5Q8um+K0e88o3Yq645vjHxvifWwDnS7t3VgaMAIYDY4F9gEnAMUC6ks7eNfO5IwaBcvivoz7hF0v2oLK6nYjPR06IiIiIiEh2UwAsYpNC4P5yMwQecuJ1rvo1PHNL8oM1CywErj7ucqxQieP+jXNu2+m+XAuBOz55ka7Viykec4i9geNKJ8yiePcpdK1501G/fAqBW197gKpZ3yFQPsR55wwpqttj258VAvcvSqGGwOuB04GfY8JcpyYBtwJfBn4dv+XWqjJJL4sdV6n6WTfbBTBrPxt8qJULzze7bAAuBL6D2eWgCVgNrAU+A9ZhQuItbA9zw/E/O1+u7U07sDJ+e73P/XtjvsZegXmzjp+6gc0+10y/diitjXHjscu4YcE+7F7dQTTvv02LiIiIiEivwTzxSSTn2f7/csKGiX8TlbBpGv5jniy7tNc52QM7Pydvr5GDpi6eT+leh1A24RjH/brrP6X1jccHbuT1+XiumeD6SsN1ZJXWUHX01xz361y9hI6PFyR8LOZlNUIGXvem5262P2gf1bOud9XP0+cueL+OPNbc1qWrlZYX73XeMYOs0h13lnT0tD3+u3n6vEhYz9dy8aKJ7iqI1KUVE5S4+2JgTAHuwYQX5zO425iKiCTyJHAqZjvoI4AzMF/r/gvzppd/AC8B7wKfYlb8Dnb4O5BPMGe1n4F5g06jj7W7MM83t0SgrCzC8ePrCcRiNHQEKfLxDWYiIiIiIpLdFACLOKQQuL/cCYHrTrjGWYe4xjl3EYvaWKBVACFw9bQLCZRWO+7XNOf2AR/PpRC4/YNn6PrsPfuDxpXtfyqhERMd94P8CYFbF/2CWFc6lrYNHoXA/YsmuqsgQuAY8G3gOrz9Sx8EPAjMAc4CnH+BFRHxTytmW+etmFOaczEtbAN+j/ma2uFTzR5y8fx2C2iCA8aE+f1Z71AajNLWU5TpWYmIiIiIyCBRACzigkLg/rI/BC4etT8Vk0+yP1hcT9MGwi//0X6HPA6BrVAp1cdd7rhf98aPaXv3yZTtciYEjsVofn7n7axTsiyqZrp7E0J8WG+yIASOtjfRsuiXzjplIYXA/YsmuqsgQmAw2zmfjQlLvDgE+CvwL+BrgPN99kVEpK+5wE99qhXGbIGdm8Lw+aM2MmPMVlY3lhLQKmARERERkYKgAFjEJYXA/WV3CDzkRA+rfyMOd7fL0xC46ojzKaoa7rhf09zbIRa11TZXQuC2tx6lp36F/QHjKqacTXDIHqkbJptOHoTALfNuJdKQu79D7aUQuH/RRHcVTAj8CHACsNSHWkcD9wPzgavQz+oiIl78CXN+r1crfaqTGRbQAJcdvppxQ9to6AgVzndoEREREZECpl8qiXigELi/7AyBQ8P3ovLgz9kfIC7SupXwot877pdqPq6bZjAEtgJBamZd5bhfT+M6Whf/1VGfnAiBY1Ga595qf7BegSKqZrhfBQy5HwJHO5qpv//zRBrX2u+UpRQC9y+a6K6C+RXzEmA28LRP9Y4AbgfeAq4B6nyqKyJSSDbgz5tzlvlQI7M64fDxjTx2zhsMK+umsTOolcAiIiIiInlOAbCIRwqB+8u+ELjuhKvBcv7lrmneL4l0eDivNI9C4IqpZxGsG+24X/PcO+ydn9xPLoTArUv+QqRxnf3B4ioOPY+i6pGO++0wnRwPgXs2f8ym248kPP9WIuEN9jtmIYXA/YsmuqtgQuD1wJnAr3ysOQmzzfQ7wPXAGB9ri4jkuxZguQ91PvWhRmYFgGbYf2wLD539NlXBHja2lhAMKAQWEREREclXwUxPQCQfxEgW5dppaJHoN+YJm9oeyL5YDCy3NZPOZ+fn5O01ctC0353BIaOpOvxcewX7iHa00Djf/A4/Pa+Rh6aOalpY/a8vp9eRZVF7vPNVq5GWesKvPOi4X69YzMJyuzJhEF73WKSL5vl3UXfmTxxNzQqWUHXsFTT+8wZH/XaajpfrErxfRx5rRtubaH7q/2h+6v8IVO6CFSoFPD6nBPpeQ0Mu+DvBXSb4OwAOP6U8fh339HmRsJ7/r3mi52j7Gsp9ncA3MKvFfox/P2uPBn4G/AdwF/A48LZPtUVE8lUP0OxDnXd8qJEdmuGgvZr5y3lvccEjk9naHqI8FMn0rEREREREJA0UAIsMZNDCO4XA7hqmfo1qZ16OVRSyV6yPpoX3E21v2l6ygEPg8gNOITRivL3GfTTPv4dYd4fjfn1lewjc8srvqJl9PYHKYY6mVnnkRTQ/fxvR1i2O+u00nRwPgXtFWzbt8Pd0hcCOz/MG289HIXD/ohRyCAxwM/AucB8mvPXLMOD7wHXAX4E/A3N8rC8ikm+8ppvdwHt+TCRrNMLBBzRz7tL13DB3IhNHNIoVyh8AACAASURBVBPxeZcRERERERHJPG0BLZLKoG3jq+2g3TVM/hoVVQ6j5ugL7Bfq7drdSePz9+58f1peIw9NB2k76Nrjr7Y/UFy0o5nwS79x3C+RbN4OOtbdQfOCnzuZEQBWcTlV077uuF/C6eT4dtAJu/v8Nc7z1sk256PtoPsXTXRXQf2C+RngOOCFNNSuBi4CngD+CTjf6kJEJP8FgHKPNT4A6n2YS/YIAPVw9tQNHL1XPevCJZmekYiIiIiIpIECYBE7FALb6JzsgcyFwLWzLscKOf+FRvOiPxAJbybh3AssBC4bP52SPQ6xP0hc+KXf7LCC2qtsDoFbFt1PtMP57oKVx1yKVVLhuF/C6SgEtlFPIXDqer6WixdNQ83c8glwKvDrNNUvAU4DHsJsCX0pMDRNY4mI5JogUOWxxltA2Ie5ZJdOGD+8lSf+bQlTRzazobWEQEG9R0tEREREJP8pABaxSyGwjc7JHhj8EDhQVkPNMRfa79xbI9JNw5w7+9xT2CFwzWznZ//GujtpmrfzCmqvsjUEjnY00/Lir5zOiEBZLZVHXeK4X9LpKAROP4XALoumoWZuCQNfB67En7MoEykCJgP3YsKK/wUmpWksERG/VWDevFLqc90yYIjHGm+Qj9/JAkAL1NT18PA5b3PkqEbae/TrIRERERGRfKKf8EWcUAhso3OyBwY3BK459iICZdX2O8a1vP4IPVvX9ru3MEPgkjEHUzbhOPuF48KvPkQkvCktQVK2hsDNC+8l1tXmdEZUTb8cK1TmuF/S6SgETj+FwC6LpqFm7rkLOB1YmuZxRgP/hwmCHwDORD/zi0j2qcB8fboZeByzbf6jwA+AQ30aoxrY02ONJT7MIztZQBvsMrKTH05fxuotlYQC+oYtIiIiIpIv9MsgEacUAtvonOyBwQmBreJyamddZr/DtjFiNDx7e7KqiZq7lwMhcO3xzlf/Eo3QNPeO7SULJASOtm6h5dXfO55OUdUIyg/5kuN+A05HIXD6KQR2WTQNNXPPQmAm8MggjBUAvoIJVOYA3wH2GIRxRUQGsjdml4I5mK9P1wGzgKnAScANwPPA1T6MVQ3s5qH/cmCZD/PIbq2w+6h2/n3yWpY1lBOw9A1bRERERCQfKAAWcUMhsI3OyR5IfwhcffRXKKpwvttby5v/oGvjQL/jKZwQODRyAuWTTrVfLK7ljUfo2bp6x5IFEgI3z7uDWKTb8XSqZ15DzAo57jfgdBQCp59CYJdF01Az92wEzga+CzjfOsCdGcD/wwTQfwaOI9kPGSIi/gtgzkN/GJiP2aXgiAHaVwK3AV/zOO5ovH2tW4T5mp3fOmFkRScPnv82n5+wgY2tJZmekYiIiIiI+EABsIhbCoFtdE72QPpCYCtYTN3sK+xW20Hy1b87jLDzlPIwBK6ddRVYzn9f1vjcrYnHKYAQONK4ntbXH3I8lWDdaCqmnpN94Z1C4NQUAot7MUwgewbwziCOOwY4F/gX8BJwMSYgERFJh92Ay4A3MTsfnIOzrzk3AaM8jD/ZQ18wW+nnvwDQCkXRGH889x3G1bVR3xbSu4RERERERHKcAmARLxQC2+ic7IH0hMDVR55HsHZXu5W2aVs6l841dn8Hn98hcLBuNBWHnG2/QFzbu0/SveGj5OMUQAjc/PydEI04nkr1jKvACmRfeKcQODWFwOLNXMzWp38Y5HHLgSOBXwPvA3fH51E1yPMQkfxThdl14HbMG1zuwQSxbpaVjsBsDe3WJA99u4BXPfTPLRbQDkWhGKeP20RzZ4iIvv+LiIiIiOQ0BcAiXikEttE52QP+hsBWIOh69e/WpxOvXE0uf0PgmllXYgWC9jvHNc65LfU4eR4C99SvoO2tRx1PIzRiAuWTTjfjZFt4pxA4NYXA4k098GXgm0BjBsavjo89B3gSc1awl8BFRArTFMzXj39hzvC9ChjqQ123Z/iW4O1r2WLgDQ/9c088BP6fk5fz/WOX0dlTlOkZiYiIiIiIBwqARfygENhG52QP+BcCV049k9DwvRxMymhfvoiOT15x3C8fQ+CiymFUHfkV+53iOpa9QOfKxfbGyfMQuGnOza6mUT37uu3jZFt4pxA4NYXA4t09mLN552RwDkdjtqZ+DvgncDlQk8H5iEh2qwQuBf6B+brx/4BjfB5jnct+ewHjPIz7ItDhoX9uin+v/9ahqwl3BYnGLG0FLSIiIiKSoxQAi/hFIbCNzske8CEEtiyGnHSt8zkBDc/YOfs3mfwKgatnXI4Vcr5DX+NzqVf/9pXPIXD3hg9pf+9Jx1MoHjWZ0omzt4+TbeGdQuDUFAKLd28DnwP+F+jO4DzqgNOAn2NWwP0BOAGzdbSIFLYy4CjgPswZufcCp+PPat/+NmLOD3bjKKDYZd8O4CmXfXNfO5RURbj9pKWEu4qI+PyzhIiIiIiIDA4FwCJ+Ughso3OyB7yFwJWTT6Z41wmOp9O55h3a3p/ruN+O8iMEDpRVU330RfYHj+tc/SbtH81z3C+fQ+Dmuc4C8V41s67b4e9ZF94pBE5NIbB41wbcCJwKJD9YffCMBb4EPIEJYm4EDgFqMzkpERlU5cCBwHeBVzBbPF8E7J3mcW8G1rrse5SHcVdjVgAXpiiURKJcMHMdF0xaxyf1FRQF9M1fRERERCTXKAAW8ZtCYBudkz3gPgSuO/EaV1Np6D371/NrlPshcPXRXyNQVm1/4LimOe5XUOdrCNy56nU6li1wPHzJ2CMpGXvkjuNkW3inEDg1hcDij+cwWzL/ItMTiQsB44H/Bl4Hnga+jbeQRUSy26HAFcBjmNW+PwYmY87XTbeHgbtd9rUwc3freaDHQ//cZgERoB1m7buF6rIuNrcVE7D0zV9EREREJJcoABZJB4XANjone8B5CFy+7wxK9zzY8RS6NnxMy1v/sj9QSrkbAluhUmqOu8z+gHHdG5fR+s4TjvvtMKU8DYGbn3N3FnDN7Ot3HifbwjuFwKkpBBZ/1AOXYbZXfS/Dc+nvcOCnwAuYrVL/G//P/hSRwTcBuAZ4FPP5fRdw/CDP4V7gAtyfwTsVcwawGzHgQZd980sznLBfPU+dv5ihZd20dRdlekYiIiIiIuKAAmCRAXj63bZCYBudkz3gLAQecrLL1b/P3gGxqP2BbMnNELjqiC9RVDXc/mBxjXNv3/k1dCEfQ+CO5S/QtWqx46FLJ8yieNTkncfJtvBOIXBqCoHFP09gApg7Mz2RBALASZitof+FCYx+BByUyUmJiCPjMNs7Pw3MAW4FzmRwVvr2tR74KnA57sNfgNlAlcu+izHbXEsAaICj9mtkXF0bDR0huz/RiYiIiIhIFlAALJKCQuDUMhkCl449lLJ9pjketmfrGsKv/S1Nr1FuhcBWIEjtrCudzAiAnsZ1tC7+m+N+SaeUhyFw0xx3q4CrE6wChiwM7wogBPb8misEFv9sAK4CvgC8n+G5JFOF2bb6vzBbqL6J2TL2MHRmsEg2qQT2w6z0XQgswnyungiMztCcngGOA37vQ60jUzdJ6g+A93c35osA0AK3nPABk3YJ0xVVBCwiIiIikisUAIvYoBA4tUyFwENOvs7VkFufvZNYtCf58AUUAldM/SLBIbs7nRFNc+8iFuly3G/AKeVZCNy+9Bm6P3Oe05RPOp3QiAmJx8m28E4hsI0CvjZz0ThB92y7jsSJR4FjgTvwtkIu3eowq4C/C7wMvAj8AJhF5gImkUJWCxwMXI0JW9/BrPQ9BnC+DYx/2oAfAqcAH/tQbxQwxWXfLuCfPswhv/TAxLGt3DbrA1Y2lBMM6Ju+iIiIiEguUAAsYpNC4NQGOwQu2X0yFQc4P5Is0ryJ5pf/mHr4QgiBsag7wfkW2tHWrYQXPZB911HSmhkKgWMxmube6nxMy6J6xtXJx8m28E4hsI0CvjZz0ThB92y7jsSJLZgQ53PASxmeix0BYH/gBsz2sguAXwBfBiZlcF4i+W40cBZwE+as7iXAbcBRQDYc6Po65uvYf+PfqttjAOfvbDT+AKzyaR75pQ3G7NLB5yduoKEjlOnZiIiIiIiIDQqARRxQCJzaYIbAdSc437YYoGHuvcS6d140VYghcMWkUwiNGO94Gk3z7tn+GmbbdZS0ZmZC4La3HqVny6eOh6yYeg7BuuSL5LIuvFMIbKOAr81cNE7QPduuI3HqWcxZlzcA4QzPxYmxwDcwW73OxZwd/ANgJtkRSonksinA9cCfMJ9ffwX+Ezgik5NK4CeYHQHm+Fz3WJf9Ymj75+Q6YdfRnVx68Bo2bC3H0k7QIiIiIiJZTwGwyEAS/GJcIXBqgxECF48YR9XUMx2Xj7Y30bTwfmfD53EIXHt88lWmyUQ7W2h+4T7Xc7Irb0LgWJTmOS5WAQeKqJ458OrsrAvvFALbKOBrMxeNE3TPtutInOoAfoQJdx7N8FzcGI7Z+vUG4HHMucF/Bi4BxqD/r4ikUoUJUm8BXsG8MeRnwL8Bzt/ll35vYeb7n/j/xpVhmHOE3VgQv0kiFrAVpo5v4tIjP2VjS3GmZyQiIiIiIinoFyoiqSgEdiXdIfCQk67BzVvPG5//JdHOVufD52EIXDZ+OiV7TnU8dPML9xNpb/Y0J7vyJQRuXfwwkcZ1joerOOxLFFWPHHicbAvvFALbKOBrMxeNE3TPtutI3FgKnAv8O7Aiw3NxqxKzJfS5wK8wQdELwI2Ylc67A0odpNANBw4Evol508THwBPAtcDhmBA0G4Uxq36PA55P0xhTgIku+/4Orf4dWA8MDXZz7xffZ9KIMOvDJVoJLCIiIiKSxRQAi9ihENiVdIXAwSGjqTr0i45LRjvbaFxwX+qGyYbPsxC41sXZv7HuTprm/yJeM8H1lW3XUdKagxsCxyJdNM+/y/FQVrCUqumXpR4n28I7hcA2CvjazEXjBN2z7ToSN7oxq2cPx6wAbMrsdDyrw5xV+t/Ac5hA+E/AFZhtXsdkbmoig6YMOBg4D7gHWIj5XLgbOAMYCZRmbHb2vACchln1m86vS7Nd9vsQeMzPieQlC7PnBPD5CZuoLe2mJ6oEWEREREQkWykAFrFLIbAr6Qg4h5xwJVZRyHG5phd+SyS8xdvweRICl+wxhbIJzo9IC7/2JyLNG/vUVAhst2nLy78j2mr/+utVNe0SAmW1qcfJtvAuC0NgvykEtlPP13JiXz3wHeBk4JEMz8VPQ4AvAHcB8zGrCP+MCZVOB5IfnC6SO0LAYZhzsm/DnJH9MvAQcBnuV7hmwibMecTTMcF1OtUCZ7vs+xty/w0zg8MC2uDa6Z9SV9ZDe7eObRcRERERyVYKgEWcUAjsip8BZ7B6F2qOOt95mZ4uGuf8PGFNB8M77p9Y5kPg2uOdr/4lGqFpzp0JaioEttM01t1B8/y7HQ9jFZdTNf1Se+NkW3inENhGAV+buWicoHu2XUfixcvAWZhQ5I0MzyUd9sZsF30T8A9gHvAUcDPmee+RuamJ2BYEjga+jQl5X8Sc4/sL4GpgBrm59fn9mJX6twzSeEcAe7notwyzmlociEXgf45ZTsCKZduPZiIiIiIiEhfM9AREck7MAmvH/+bGSBax2qlnv7PtpgkbWiRKBRI29fSEkkwp5urI3nhnts2ndtalWKESxyWaX/4jPU3bV656ft09v0Y7/3v49RqlEho5gYrJpzoeouWNR+nesjLJ8BZW/+sr266jpDUtLMvlr64cXkcti35D9axrCJRWOxqmatrXaZ5/F7EU51eDx+eTsJ7H19zRa5TgOvJYczB4fs1tPh9HT9vja5R115F49TdMOHoBcB2wa0Znkz7j4reTgB7M6sONwBLglfhtDdAWf1xksJViVqpOBqZiQsuJmG2cnf1wkL2WADcATw/yuP/mst+dQLufEykEVgA+N2ETN744jpbOAEEtLRARERERyTr6MV3EDa0EdsXrKtdAWQ21x17svG80QsOzCc5fLdCVwLWzr3SVxDQ+d1uK4bUSOJVIexMtL/7a8RCBiiFUHXmh/Sll2wpOrQS2UcDXZi4aJ+iebdeReLUFsxLvMApju9MgsBswBbgYuA9YDLwPPIo5V/hEYF9gWIbmKPktCIwCDgG+AtyB2br8Y8y2zjdhzvAdT36Ev+sw27FPY/DD3zrM57NTHwC/83cqBaILgtVRbpr+EZ9urSQY0Dd5EREREZFsoxXAIm5pJbArXlaB1c38BoGScsf9wosfobt+ZZIJUVArgYN1o6k81PnxaG3vPU3X+g9sDK+VwKk0LbiHqumXYxWXORqi6rhvEX7x18R6Ou1NKdtWcGolsI0CFMRKYMm4tcBFmED0O8CZmZ3OoCrFnBM8Gjgtfl8EeA8TDL8FfAKsBlYBmzMwR8lde8RvYzAr0ScDB5P/W5F3YN5U8jNgZYbm8DlghIt+3wdafJ5LwbB6YL/RrcwYW8+H9RVUFkcyPSUREREREelDAbCIFwqBXXETJAVKKqid4WL1byzG1qdvT9GGggmBa2d/Cyvg/Et/wzO3OhheIfBAoq1baHnlAdvn+vYqqhpBxWFfomXRb+xPSSHwoFMILDnkZeDzwKnAZfGPhagIODB+Oy9+XwuwHHM26EpgBWbV5ieYYFhkb8zq8X2BPTFnz+6DCX4LycPAPcDCDM/jHJx/p3se+Hsa5lI42mDsXm1cdegqzvzLFPYZ2pbpGYmIiIiISB8KgEW8UgjsitMgqWb6VymqGOJ4nJZ3nqZr/Uc2JkTeh8BFlUOpPvIrjkt1LH+JzpWLzV+8hHdZcB3Zq5n+ELhp/p1UTrsIqyjkqHz1jKtoeeX3ELV/dKVC4MGnEFhyzL+AZ4AvYLZvPSiz08kKlZjXoe9r0Y45U3g9ZqvbjzAh8XJgKWaLbck/u2LO6J0Q/7g3ZqXpSMwW40WZm1pGLcBsKf/PTE8EE7of7rBPJ+ac4m7/p1NAAkAX1LeFKCrSzwgiIiIiItlGAbCIHxQCu2I3SLKCxdQdf4WrMbY+dYvH18hB0ywPgWtmXIYVKnFcpuHZPmf/eg3vFAIDEGn8jNbX/0jlEV91VDo4ZA8qppxF65I/O5uSQuBBpxBYckwP8BfgOeCLwNXA/hmdUfYpY/sWv71iQCvQjAmAl8Vvn2KC4RWY1cRtmAA5OojzldQCmH/XcswZvLtjAt7esHdC/P4qoCJDc8w272G2ev472bN18pmA03eJPoDZBUG8aoZzjtjAnBVD+dtHI9m7ro1oLIt+IBMRERERKWAKgEX8ohDYFTtBUvVR5xGs3sVx7bYP5tOx6k0zDoUdAgdKq6g5xvkW2p1r3qb9g+cT1rQ3vELgZJqev4PKw86HgLPFQ9WzrqH1jb9AzFmOoBB48CkElhzUgDkb+EHgSuBCzBa3kpiFWS1ciVkNOqnf4zHMiuHlmK2kV2HOF14LbMW83o2YANneAe/iVDFQgwlxazFB4R6YLZvHYLZv3huz0jeLvoNknQ+B3wJ3kF3XagA4yWGftcAP0jCXwhSBqsoejt+nnvlrhtAZCRAK6OcEEREREZFsoABYxE8KgV0ZKEiyAkGGnHilq7pbn97x3NpCDoGrj7mIQFm1466NzyU5P1khsI3ODPgce+pX0Pr2Y1RM+aKjsqEREyg/4BTa3n3C+ZQUAg86hcCSozoxq/zuBb4FnA/sl9EZ5SYLEwzvBkxP8Hg9ZjvpDcDm+McNmGB4M2ZVcSPbw+JsCt6yQQAT7tZggt1dgOHA0PjH3m2aR8Yf2y0z08xpH2GC319irsVsc2T85sR3MSGw+MECmuBrx6zj2U+G8+wnwxhW3pXpWYmIiIiICAqARfynENiVZEFS1WFfJDR0jON6HZ8upu3jRTuPQ+GFwFaolNrjLnXcr3vTJ7S+NcDRbgqBbXRmwOfYNOdmxwEwQPWs61wFwKAQOBMUAksOawF+DPwOs83q1cD4TE4ozwyL3w5M8ngb0IQJf5v6/LkZEwo3smNA3BhvE47f2tI493Spjt96V+1WYcLd3tdqCFAXb1Pbp23v6l7xxyrgTszW8Nkclp6B2cLbrj8AD6VpLoXLAjqgvq14248X+glBRERERCTzFACLpINCYFd2CpKsAENOuspVrS1P3tJbhJ2CVAorBK464jyKXGyh3fjc7am3GVYIbKMzSZ9j9/oPaHvvScoPOMVRyeLdp1A6YRYdH811NyWFwINOIbDkuPWY1cCPAacC16KtoQdDefy2a4p2UaADc85wJ9AV/9j75zZMINyKCfU74ve1xNu0Ys6B7gK644939bn1fqWw4mO1Yf4fWYr5ShIDSuJ/j8b/Xhyfe0mfj5Xx+yv73F+JCXRL4/eV9KlV3OfPWfQVPa8tA+7GnPGbzcEvmFXeZzlo/zFwXZrmIhG47fgP+NJjB9LcFaQ4oCPPRUREREQyTQGwSLooBHalb5BUedApFI90vtCoc+37tL4/p889hRsCW4EgdbOdb6Hd07CO8Ot/tddYIbCNziR9js1zb3McAAPUzLrWdQAMCoEzQSGw5IH1mDOC/wKcA1wGTCGrPtMKUoDtYbFXvQFu78f+n+C9j1nxcXvvCyT5u66N3LAU+BVmtX9TZqdi25HAWJttY5gdDDalbzoFLgaTRoYpD0Zo7NSvmUREREREskEgdRORAub1d9qxnX/n5amkg862myZsmPh3dQmbpuH3/rF4zaEnX+uq/9Znbt9eZBsP/xZeX3fPr1GCudusWTn1CwRdbKHdOO8eYpGuNL1GCa6vNF5H/tb0kpQlvrtz1et0LFvguFzJ3tMo2eNw9/PB4/NJWM9rASdNHbwzwwO/ryPPr7nN+TiatufXSPlOAWrGBMFTga8C8zGhoOS+AFAEhNi+Arf/ytxyoIydV+sG47dQvIa+OGS/lzBv5DgQuIPcCX8Bvuyg7f8CT6VrImK0thexNlyqXzKJiIiIiGQJ/WwukopC4NRN0xC0le83i5Ixkx336978KeHFjyd5tMBCYMui9sRrHI8Uad1K+KUHto9jt6NCYBudE9/d9NzNrspVH3991oV3CoHt1FMILHnlQWAGcBrwGyCS2emIiA1/wmyffDTwC8wW4LlkPHC6zbb/BP5fGuciAFEoLotyxaGriOhnAhERERGRrKAAWMQOhcCpm/ockAw92XlwCbD1qfi5tUnnUzghcMWkkykeOcHxKE3zf0m0q23Hcex2Vghso/POd3Usf4HOVYsdlyrb93iKR03OuvBOIbCdegqBJe88BVwETAN+AjRkdjoi0k8LcDswHTgPeCSz0/HkPMzq81TeAr6COcta0ikGodIYVxyymohOhhARERERyQoKgEXsUgicuqlP/9kv2+cIyvY5wnG/noZ1NL/W59zaAg+Ba09wHqJHu9poWvCrhI8pBO5f098QuGmOy1XAs65JWtOJggiBPVIIbKO7QmCBV4H/BA4CvokJYHJtdaFIvogCHwPfBiYB1wAvZHRG3oUwAXAqq4Hzgcb0Tke2icL6lhLt/S4iIiIikiUUAIs4oRA4dVMfAhK3Z/82PHcPsZ5+b/Av0BC4bPwxlO451XHl5hfuJ9qe/Pg3hcD9a/oXArcvfYauz953XKb8wDMJDh+XsKbjKSkETj2OQuDU3RUCi7EauAc4DDgbmANszeiMRApHIzAPE4AeBNwMrMzkhHx0OrB3ijatmJW/zn+wEhERERERyRMKgEUGkJbwTiHwgEp2n0TF/jMd94u0bKHxhQcSP1iAIXCdi9W/sUgXjc/fk7qd7YIOxlYIDLEYzXNvdV7DsqiZ3edNE1kW3ikEtlNPIbDktW7gMeB44GTgFuCdjM5IJH99CNwBnALMxJz1257RGfnvSwz8e4xu4ExgweBMR0REREREJDspABZJQSFwX+kPgYee4nL175x7iXV3JG9QQCFwyZgplE08znG18Mt/JNK80VZbhcD9a/oTAre+9Sg9Wz51XKL84LMJ1o1OWNPVlBQCpx5HIXDq7gqBZWevAdcDM4ALgL9ndDYi+ePvwMWY0Pdq4OXMTidt9gdmD/B4M/A5zI4DIiIiIiIiBU0BsIgNCoH7Sl8IXLzrBKqmnOasExBtb6Zx4W9TNyyQELj2hKudl4lGaJx79yBeR8maFngIHIvSNMf5KmCrKETVjCsT13Q7JYXAqcdRCJy6u0JgSWwr8ABwFnAocAPwSUZnJJJ7VgDfAw7BfC7dD6zP6IzS7wtAdZLHtmDOBn5q8KYjIiIiIiKSvRQAi9ikELiv9ITAQ078FljOw4LGBb8h2pb83Fp788mPELh45HgqD3Qeore8+Tjdm1c4no9C4P41vYfArYsfpqdxnePulUd8haKqXRLWdD0lhcCpx1EInLq7QmBJLgYsBn4EHA6cBjwC2NuOQqTwrMds63wK5nztm4AlpOUnpaw0Icn9q4FzgH8N4lxERERERESymgJgEQcUAvflbwgcGjqGmsPPtjuj7aW7O2iYc6/DTskeyP0QuO74q1yF6A3P3uZ6PgqB+9f0FgLHIl2E59/tuKsVLKXq2MsT1vRCIbCNcRQCp+6uEFhS24IJb84CpgD/ASwEGjM5KZEssAmzpfFVwCS2r3LdkslJZUiiN4csAc4Anh/kuYiIiIiIiGQ1BcAiDikE7su/EHjISVdBoMjubLZpfOEBIi0ufv+VhyFwcMjuVB56luN+be89S9e69z3NRyFw/5reQuDwy78l2rrVcdfKaRcTKKtJWNMLhcA2xlEInLq7QmCxbz3wU+BYzErHG4G5GZ2RyODqBv4JfBc4Pn67k8IMffu6F/NGkdWYc45/ABwDvJ3JSYmIiIiIiGSjYKYnIJKLYiSICRPe6aSoBdaOv133VNJBZ9tNEza0SJQKOHmNgjUjqDny3+zMYMdykW4annO4+tfGfBI9J2+vkYOmHv7R62ZdgVUUctyv4dkBzpwdtOsoWVMLq//15fVzLdE4MVcLp1PUtLAsd4lZrKuD5vl3U3vq3w3fgQAAHvdJREFU/zjqFyippOqYb9D07E8TFMXT6+bl+SSu5/E193odpYHf15Hn19zma+To0vDhOhJx6OX4LYAJhKcBXwQOyuSkRNLkWczq3lcx173saDlmq/i9MauBWzI7HRERERERkeylFcAiLmklcF/eVgLXzb4cK1RidwbbNL/yMN1b13pbeZcnK4GLKodSPe0rjvu1L19Ex4rXBm6klcAearoPu8Iv3U+0o9lxv6pjLsUqqUgyIdfTMd21Ejj1OFoJLJIuUWAe8EPMasjDgO8BbwCdGZyXiBftmOv668D+wJnA7Sj8TeUTFP6KiIiIiIgMSAGwiAcKgftyFwIXVQyh9tgL7Y7cp0aUrU/fsf2vBR4C1868zFWI3tj/7N9kFAJ7qOkuwIu2NxF+8T7H/QIVQ6g8fIA3AxRwCOz70vEkFAKLpF098DpwE2b712nxP78ObM7gvETsWAU8AVyGOdP3ZODXwFJMICwiIiIiIiLimQJgEY8UAvflPASum3kxgZJyu6NuE17yOF2bPt2xZIGGwIHSKmqmX2R/sLjOte/SttTBkYoKgT3UdBfgNc//ObHuDsf9qmdehVVUPMCEXE1ne/ecDoEHh0JgkUHTBizBrAY+DDgO+A4mYFuRuWmJbNOJeXPCA8AFwMHA6cAvMCtZtYJdREREREREfKczgEV8oDOB+7J/JnCguIK6md+wN6l+tjx1e+IpeTmDM0fPBK6ZfhGBsmp7g/TR+Gzi13BAOhPYQ03n57lGW7fQ8vLvqJp+qaN+RdUjqTjsS7S8/NsBJkTBngk8WHQmsEhGLI3ffgbsiVkhPBWzSviQzE1LCkw9sBAT/L4GvISCXhERERERERlECoBFfKIQuC97IXDtjIsIlNfYm1AfLe88S+fa95NPqYBCYCtUSu0M5yF69+YVtLz5uON+qebjuqlC4KSa591F5bSLsIpCjvpVz7ySllcfhGjPABNCIXCaayoEFsmolfHbg8AQYCLmnNXpmHOER2RqYpKXXgbmAq9gVvZ+mNnpiIiIiIiISCFTACziI4XAfQ0cAluhUupmO1vV2GvrU7emnlKBhMDVR5xHUfUu9gr30fDsHcSi0TS8Rh6aKgROqKdxHa2v/4nKIwY41zeB4NC9qDjo87S+8dcUE0IhcJprKgQWyQpbgUXx2/3ASGACMAOzSvgAoBoYYP98kW2agLWYVb4LgTeB9UBzJiclIiIiIiIi0ksBsIjPFAL3lTwErp12HkEXwWXbx4toX7HYVtt8D4GtQJDa479lr2AfPY3rCb/2sCmZltfIQ1OFwAk1zb2dysO+BIEiR+NUH38drW/+LfWBtAqB015TIbBIVokCn8Vv84AAUAccCRyLOUt4NDAKKMnQHCW7rMdcL0sxbyJYACwDBthmQ0RERERERCRzFACLpIFC4L52DkytQJAhJ11lb/D+oj3scs6PnPUZpEDC9jA+zSdYM5LQ0DGO+zXOvZtYT9e2vysEtjFOhkPgnvoVtL79OBVTvuBojNCIiQw97xdEWxvsdfD8HP0LgcGH6fQrUFS9q7d6CoF9biySNaLAFuCJ+A1gF8yZwYcA+wLjMCuGqzIxQRlUUUy4+1H841uYs3w/yuSkRERERERERJxQACySJgqB+9oxBK4+4mxCQ0bZG7if8onTKZ843VVfgUjrVppfenCn+xUC2xgnwyFw03M3Ow6AASqmnuu4jwxAIbDPjUWy1ibgyfgNzPbQ+2LOER4PTAL2A/bOyOzETxuBd+O3j4CP47d1mZyUiIiIiIiIiBcKgEUG4vUX/Ym6F3oIbAUY6nb1r3jWNP/XRDtbSbiVtULg1ONkMATuXr+U9veeouyAk/2dgDinENjnxiI5oRl4NX4D8/+okfHbnsBUYDImFN4dcLZnvwyGKFAPvI0Je9/BrPDdgNniuT1zUxMRERERERHxlwJgkVQUArtrmiQErpp6BsUjxzmYnPgl2tVG04Jf97lHIbAbmQyBm+bcqgA4WygE9rmxSM7pAdbGb4uBv2HOC67AnCe8H7A/ZtXw/pgtpavij4cyMN9CEQFagTDQgDmzdynwAfA+ZmV3GOjI1ARFREREREREBoMCYBE7FAK7a5qg4ZCZlzialvin+YXfEtnpLFiFwG5kKgTuXPU6HcsWUrqPtkHPCgqBfW4skvM647etwCfAP/s8VoU5Q3gssBdmG+kxwDBgCFCL2WZa7GnHvM5b4h83sn375hWYlb31GZudiIiIiIiISIYpABaxSyGwu6Z9GgZKyinb+zBXUxNvYpFuGufek+RRhcBuZCoEbnruZgXA2UQhsM+NRfJWGLNSeHG/+0uAUZitpEfFb7sCw+Mfh2JC4mGYELlQdGPC3S2YcHdD/GM98Bmwmu0rsNsyNEcRERERERGRrKUAWMQJhcDumsYbFlUO9T8xE1vCr/yJnqYNA7RQCOxGJkLgjmUL6Vy1mJI9DvF3YNlZNGqvnUJgnxuLFJROzIrVFUker8VsKV0L1MT/XIcJjHv/3LuKeGj8Y+9W09moEWiKf9wCbMZs1Vwf/3Pv3xv6tevOxGRFREREREREcpUCYJEBpCOwLeQQONat49YyIhal4bk7bTRUCOxGJkLgpjm3sMtFf/J3UNlJJLwp8XWUiEJgnxuLSFxj/DaQYqC0z624z60SEwjXxG+9bUqAsvifyzH/L+ztA+YzNsCOQXI75uxjq8/fuzAhdlf8721AS5+PLZggN8z2LbJ7bx3xPhG7L4aIiIiIiIiI2KMAWCQFhcD+Ne1p2kz3ljWEhu7udlbiQssbj9O9+VObrRUCuzHYIXD7+0/TvX4poV3383dQ2UHX2jeBJNdRIgqB7TXONV/PxUlLgemK35ozPRERKWz7AOu+m+lZiIiISKGxtOOkSEKBTE9AJBck/NWvx98Hp6MmsZ2/2Xkq6aCz3aaNC3/vairiXsOzdzjskeA68nIhpeE6clYzwQ+BachzPL1GSWsm+QE2FqPx2Z/5P6BsF43Q9ubD2/6a8DpKxOv3Bp+vo6TXkO0CvjYTERERERERERGRQaAAWMQmhcD+NN363L10fvah6+mIM03zf03n2ndd9FQI7MZghsBtbz9G+4dz/R9QAAjPv52ezct3uE8hsC/NREREREREREREJM0UAIs4oBDYe9NYdydrbj+XzjXve5mR2NC86CE2P/I9DxUUArsxaCFwLEb9AxfSsWyh/wMWuJaX76Pp2R8lfEwhsC/NREREREREREREJI10BrCIQzoT2HvTnobPWHnTCdQeewG1R59HyW4TIVDkdmbSR6yrnfblL9M475e0vT/H3Okp99GZwG4M1pnA0Y5mNt57JhWHnEPVkRdQPGYqVlHI34ELRLQjTNeKFwm/eA+dywcO1XUmsC/NREREREREREREJE0UAIu4oBDYe9NYTxcNc39Fw9xfQcCiqKw6QQWb0pA0+B3eGTs/J9vD2GkYixDtaPH/OlII7MpghcDEorS+/mdaX/8zAIHS6uQDO5iPr9fmQN29BJIJ6znvE4t0E+tqixew2UchsB/NREREREREREREJA0UAIu4pBDYx6bRGJG2piQVdpawZraFwEn7pjkEJk3XkUJgVwYtBO4j2tE8cAGFwAPzeh15rJmwu0JgERERERERERERcUBnAIt4oDOBfWyasGHi6CAtr1Gikmk579bDv4XX193za6Qzgd0YtDOBbXdOQ1PP5936GxN6fs29XkceaybsrjOBRURERERERERExCYFwCIeKQT2salCYA81bTZVCNyvqUJg35oqBPa1ZsLuCoFFRERERERERETEBgXAIj5QCOxjU4XAHmrabKoQuF9ThcC+NVUI7GvNhN0VAouIiIiIiIiIiEgKCoBFBuLgF+MKgX1sqhDYQ02bTRUC92uqENi3pgqBfa2ZsLtCYBERERERERERERmAAmCRVBQC26iXhqYKgT3UtNlUIXC/pgqBfWuqENjXmgm7KwQWERERERERERGRJBQAi9ihENhGvTQ0VQjsoabNpgqB+zVVCOxbU4XAvtZM2D1HQ2ARERERERERERFJLwXAInYpBLZRLw1NFQJ7qGmzqULgfk0VAvvWVCGwrzUTdlcILCIiIiIiIiIiIv0oABZxQiGwjXppaKoQ2ENNm00VAvdrqhDYt6YKgX2tmbC7QmARERERERERERHpQwGwiFMKgW3US0NThcAeatpsqhC4X1OFwL41VQjsa82E3RUCi4iIiIiIiIiISJwCYBE3FALbqJeGpgqBPdS02VQhcL+mCoF9a6oQ2NeaCbsrBBYREREREREREREUAIu4pxDYRr00NFUI7KGmzaYKgfs1VQjsW1OFwL7WTNhdIbCIiIiIiIiIiEjBUwAs4oVCYBv10tBUIbCHmjabKgTu11QhsG9NFQL7WjNhd4XAIiIiIiIiIiIiBU0BsIhXCoFt1EtDU4XAHmrabKoQuF9ThcC+NVUI7GvNhN0VAouIiIiIiIiIiBQsBcAiflAIbKNeGpoqBPZQ02ZThcD9mioE9q2pQmBfaybsrhBYRERERERERESkICkAFvGLQmAb9dLQVCGwh5o2myoE7tdUIbBvTRUC+1ozYXeFwCIiIiIiIiIiIgVHAbCInxQC26iXhqYKgT3UtNlUIXC/pgqBfWuqENjXmgm7Z1sILCIiIiIiIiIiImmlAFjEbwqBbdRLQ1OFwB5q2myqELhfU4XAvjVVCOxrzYTdFQKLiIiIiIiIiIgUDAXAIumgENhGvTQ0VQjsoabNpgqB+zVVCOxbU4XAvtZM2F0hsIiIiIiIiIiISEFQACwyAG8Bp0Lg1PXS0FQhsIeaNpsqBO7XVCGwb00VAvtaM2F3hcAiIiIiIiIiIiJ5TwGwSAoKgfv3VwjshkLg/hQCu6EQ2EZ3hcCpuysEFhERERERERERyWsKgEVsUAjcv79CYDcUAvenENgNhcA2uisETt1dIbCIiIiIiIiIiEjeUgAsYpNC4P79FQK7oRC4P4XAbigEttFdIXDq7gqBRURERERERERE8pICYBEHFAL3768Q2A2FwP0pBHZDIbCN7gqBU3dXCCwiIiIiIiIiIpJ3FACLDCTBL8YVAvfvrxDYDYXA/SkEdkMhsI3uCoFTd1cILCIiIiIiIiIiklcUAIukohDYRlGFwG4oBO5PIbAbCoFtdFcInLq7QmAREREREREREZG8oQBYxA6FwDaKKgR2QyFwfwqB3VAIbKO7QuDU3RUCi4iIiIiIiIiI5AUFwCJ2KQS2UVQhsBsKgftTCOyGQmAb3RUCp+6uEFhERERERERERCTnKQAWcUIhsI2iCoHdUAjcn0JgNxQC2+iuEDh1d4XAIiIiIiIiIiIiOU0BsIhTCoFtFFUI7IZC4P4UAruhENhGd4XAqbsrBBYREREREREREclZCoBF3FAIbKOoQmA3FAL3pxDYDYXANrorBE7dXSGwiIiIiIiIiIhITlIA/P/bs6PcRnIYiqJloPe/jFnJLKB3lP5nHIv1JFVVgHM+BySVGEEP4AspEbhxVAROiMCVCJwQgRvrIvB4XQQGAAAAgF9HAIYZInDjqAicEIErETghAjfWReDx+oa/IwAAAABgHwEYZonAjaMicEIErkTghAjcWBeBx+siMAAAAAD8GgIwrCACN46KwAkRuBKBEyJwY10EHq+LwAAAAADwKwjAsIoI3DgqAidE4EoETojAjXUReLwuAgMAAADA4wnAsJII3DgqAidE4EoETojAjXUReLwuAgMAAADAownAsJoI3DgqAidE4EoETojAjXUReLwuAgMAAADAYwnAsIMI3DgqAidE4EoETojAjXUReLwuAgMAAADAIwnAsIsI3DgqAidE4EoETojAjXUReLwuAgMAAADA4wjA8MGOL+tF4LovAidE4EoETojAjXUReLwuAgMAAADAowjAMCAC778pAmdE4EoETojAjXUReLwuAgMAAADAYwjA0CAC778pAmdE4EoETojAjXUReLwuAgMAAADAIwjA0CQC778pAmdE4EoETojAjXUReLwuAgMAAADA7QRgOEEE3n9TBM6IwJUInBCBG+si8HhdBAYAAACAWwnAcJIIvP+mCJwRgSsROCECN9ZF4PG6CAwAAAAAtxGAISAC778pAmdE4EoETojAjXUReLwuAgMAAADALQRgCInA+2+KwBkRuBKBEyJwY10EHq+LwAAAAABwOQEYJojA+2+KwBkRuBKBEyJwY10EHq+LwAAAAABwKQEYJonA+2+KwBkRuBKBEyJwY10EHq+LwAAAAABwGQEYPup9MS4C778pAmdE4EoETojAjXUReLwuAgMAAADAJQRgGBKBo+c33BSBMyJwJQInRODGugg8XheBAQAAAGA7ARhaRODo+Q03ReCMCFyJwAkRuLEuAgMAAAAANxOAoU0Ejp7fcFMEzojAlQicEIEb6yIwAAAAAHAjARhOEYGj5zfcFIEzInAlAidE4Ma6CAwAAAAA3EQAhtNE4Oj5DTdF4IwIXInACRG4sS4CAwAAAAA3EIAhIgJHz2+4KQJnROBKBE6IwI11ERgAAAAAuJgADDEROHp+w00ROCMCVyJwQgRurIvAAAAAAMCFBGCYIgJHz2+4KQJnROBKBE6IwI11ERgAAAAAuIgADNNE4Oj5DTdF4IwIXInACRG4sS4CAwAAAAAXEIBhCRE4en7DTRE4IwJXInBCBG6si8AAAAAAwGYCMHxy6ktsETh6fsNNETgjAlcicEIEbqyLwAAAAADARgIwjIjA43dE4GxUBJ642RwVgcuoCLxsVAReehMAAAAAWEcAhg4RePyOCJyNisATN5ujInAZFYGXjYrAS28CAAAAAGsIwNAlAo/fEYGzURF44mZzVAQuoyLwslEReOlNAAAAAGCeAAxniMDjd0TgbFQEnrjZHBWBy6gIvGxUBF56EwAAAACYIwDDB/MRSQSOnt9wUwTOiMCVCJwQgRvrIjAAAAAAsIgADAMicPS0CJyOisATN5ujInAZFYGXjYrAS28CAAAAABkBGBpE4OhpETgdFYEnbjZHReAyKgIvGxWBAQAAAICbCcDQJAJHT4vA6agIPHGzOSoCl1EReNmoCAwAAAAA3EgAhhNE4OhpETgdFYEnbjZHReAyKgIvGxWBAQAAAICbCMBwkggcPS0Cp6Mi8MTN5qgIXEZF4GWjIjAAAAAAcAMBGAIicPS0CJyOisATN5ujInAZFYGXjYrAAAAAAMDFBGAIicDR0yJwOioCT9xsjorAZVQEXjYqAgMAAAAAFxKAYYIIHD0tAqejIvDEzeaoCFxGReBloyIwAAAAAHARARgmicDR0yJwOioCT9xsjorAZVQEXjYqAgMAAAAAFxCA4ZPml9sicPS0CJyOisATN5ujInAZFYGXjYrAAAAAAMBmf+7+AeDh/ju+jr+d76y/jjfJ5+1//Mnr6HyT/vV1HK+Z79Df/Eynfsxv917H8eoVgPnP6Jqb736nuc+ov9wefTv4/m9oy2f07kea+dv88ef5/jvNfUYnRqc/ozc/+5bPaGL01M3X8ap/X0/7O/rx5ut4Nf+d+r583Pq5v12f+X3e3lv//5WfR1//T7wEAAAAAAAAAAAAAAAAAAAAAAAAAAAAAAAAAAAAAAAAAAAAAAAAAAAAAAAAAAAAAAAAAAAAAAAAAAAAAAAAAAAAAAAAAAAAAAAAAAAAAAAAAAAAAAAAAAAAAAAAAAAAAAAAAAAAAAAAAAAAAAAAAAAAAAAAAAAAAAAAAAAAAAAAAAAAAAAAAAAAAAAAAAAAAAAAAAAAAAAAAAAAAAAAAAAAAAAAAAAAAAAAAAAAAAAAAAAAAAAAAAAAAAAAAAAAAAAAAAAAAAAAAAAAAAAAAAAAAAAAAAAAAAAAAAAAAAAAAAAAAAAAAAAAAAAAAAAAAAAAAAAAAAAAAAAAAAAAAAAAAAAAAAAAAAAAAAAAAAAAAAAAAAAAAAAAAAAAAAAAAAAAAAAAAAAAAAAAAAAAAAAAAAAAAAAAAAAAAAAAAAAAAAAAAAAAAAAAAAAAAAAAAAAAAAAAAAAAAAAAAAAAAAAAAAAAAAAAAAAAAAAAAAAAAAAAAAAAAAAAAAAAAAAAAAAAAAAAAAAAAAAAAAAAAAAAAAAAAAAAAAAAAAAAAAAAAAAAAAAAAAAAAAAAAAAAAAAAAAAAAAAAAAAAAAAAAAAAAAAAAAAAAAAAAAAAAAAAAAAAAAAAAAAAAAAAAAAAAAAAAAAAAAAAAAAAAAAAAAAAAAAAAAAAAAAAAAAAAAAAAAAAAAAAAAAAAAAAAAAAAAAAAAAAAAAAAAAAAAAAAAAAAAAAAAAAAAAAAAAAAAAAAAAAAAAAAAAAAAAAAAAAAAAAAAAAAAAAAAAAAAAAAAAAAAAAAAAAAAAAAAAAAAAAAAAAAAAAAAAAAAAAAAAAAAAAAAAAAAAAAAAAAAAAAAAAAAAAAAAAAAAAAAAAAAAAAAAAAAAAAAAAAAAAAAAAAAAAAAAAAAAAAAAAAAAAAAAAAAAAAAAAAAAAAAAAAAAAAAAAAAAAAAAAAAAAAAAAAAAAAAAAAAAAAAAAAAAAAAAAAAAAAAAAAAAAAAAAAAAAAAAAAAAAAAAAAAAAAAAAAAAAAAAAAAAAAAAAAAAAAAAAAAAAAAAAAAAAAAAAAAAAAAAAAAAAAAAAAAAAAAAAAAAAAAAAAAAAAAAAAAAAAAAAAAAAAAAAAAAAAAAAAAAAAAAAAAAAAAAAAAAAAAAAAAAAAAAAAAAAAAAAAAAAAAAAAAAAAAAAAAAAAAAAAAAAAAAAAAAAAAAAAAAAAAAAAAAAAAAAAAAAAAAAAAAAAAAAAAAAAAAAAAAAAAAAAAAAAAAAAAAAAAAAAAAAAAAAAAAAAAAAAAAAAAAAAAAAAAAAAAAAAAAAAAAAAAAAAAAAAAAAAAAAAAAAAAAAAAAAAAAAAAAAAAAAAAAAAAAAAAAAAAAAAAAAAAAAAAAAAAAAAAAAAAAAAAAAAAAAAAAAAAAAAAAAAAAAAAAAAAAAAAAAAAAAAAAAAAAAAAAAAAAAAAAAAAAAAAAAAAAAAAAAAAAAAAAAAAAAAAAAAAAAAAAAAAAAAAAAAAAAAAAAAAAAAAAAAAAAAAAAAAAAAAAAAAAAAAAAAAAAAAAAAAAAAAAAAAAAAAAAAAAAAAAAAAAAAAAAAAAAAAAAAAAAAAAAAAAAAAAAAAAAAAAAAAAAAAAAAAAAAAAAAAAAAAAAAAAAAAAAAAAAAAAAAAAAAAAAAAAAAAAAAAAAAAAAAAAAAAAAAAAAAAAAAAAAAAAAAAAAAAAAAAAAAAAAAAAAAAAAAAAAAAAAAAAAAAAAAAAAAAAAAAAAAAAAAAAAAAAAAAAAAAAAAAAAAAAAAAAAAAAAAAAAAAAAAAAAAAAAAAAAAAAAAAAAAAAAAAAAAAAAAAAAAAAAAAAAAAAAAAAAAAAAAAAAAAAAAAAAAAAAAAAAAAAAAAAAAAAAAAAAAAAAAAAAAAAAAAAAAAAAAAAAAAAAAAAAAAAAAAAAAAAAAAAAAAAAAAAAAAAAAAAAAAAAAAAAAAAAAAAAAAAAAAAAAAAAAAAAAAAAAAAAAAAAAAAAAAAAAAAAAAAAAAAAAAAAAAAAAAAAAAAAAAAAAAAAAAAAAAAAAAAAAAAAAAAAAAAAAAAAAAAAAAAAAAAAAAAAAAAAAAAAAAAAAAAAAAAAAAAAAAAAAAAAAAAAAAAAAAAAAAAAAAAAAAAAAAAAAAAAAAAAAAAAAAAAAAAAAAAAAAAAAAAAAAAAAAAAAAAAAAAAAAAAAAAAAAAAAAAAAAAAAAAAAAAAAAAAAAAAAAAAAAAAAAAAAAAAAAAAAAAAAAAAAAAAAAAAAAAAAAAAAAAAAAAAAAAAAAAAAAAAAAAAAAAAAAAAAAAAAAAAAAAAAAAAAAAAAAAAAAAAAAAAAAAAAAAAAAAAAAAAAAAAAAAAAAAAAAAAAAAAAAAAAAAAAAAAAAAAAAAAAAAAAAAAAAAAAAAAAAAAAAAAAAAAAAAAAAAAAAAAAAAAAAAAAAAAAAAAAAAAAAAAAAAAAAAAAAAAAAAAAAAAAAAAAAAAAAAAAAAAAAAAAAAAAAAAAAAAAAAAAAAAAAAAAAAAAAAAAAAAAAAAAAAAAAAAAAAAAAAAAAAAAAAAAAAAAAAAAAAAAAAAAAAAAAAAAAAAAAAAAAAAAAAAAAAAAAAAAAAAAAAAAAAAAAAAAAAAAAAAAAAAAAAAAAAAAAAAAAAAAAAAAAAAAAAAAAAAAAAAAAAAAAAAAAAAAAAAAAAAAAAAAAAAAAAAAAAAAAAAAAAAAAAAAAAAAAAAAAAAAAAAAAAAAAAAAAAAAAAAAAAAAAAAAAAAAAAAAAAAAAAAAAAAAAAAAAAAAAAAAAAAAAAAAAAAAAAAAAAAAAAAAAAAAAAAAAAAAAAAAAAAAAAAAAAAAAAAAAAAAAAAAAAAAAAAAAAAAAAAAAAAAAAAAAAAAAAAAAAAAAAAAAAAAAAAAAAAAAAAAAAAAAAAAAAAAAAAAAAAAAAAAAAAAAAAAAAAAAAAAAAAAAAAAAAAAAAAAAAAAAAAAAAAAAAAAAAAAAAAsNY//ue8/1z3YogAAAAASUVORK5CYII=;" vertex="1" parent="1">
          <mxGeometry x="330" y="220" width="360" height="202.5" as="geometry" />
        </mxCell>
        <mxCell id="16x7G8k1rGI-6FZ7YI0F-4" value="" style="shape=image;verticalLabelPosition=bottom;labelBackgroundColor=default;verticalAlign=top;aspect=fixed;imageAspect=0;image=data:image/png,iVBORw0KGgoAAAANSUhEUgAAAOEAAADhCAMAAAAJbSJIAAAAkFBMVEXnFXv////mAHTmAHLmAHbmAHflAG71rsrnAHj74ez/+/385O798Pb86PH97fT0qcjzosP3wtj4yNzyk7r++Pv50OHtZqDveKrwhLH73er2t9HoI4HxjrfznMDsV5jsXpvrS5LqPYvpMYbve6v5zt/ubaTrT5TxkLj2u9TymL3qRI/vga7oGIHpLYTsYpvwiLKR5hBVAAANP0lEQVR4nO1da3uiOhCWXBDrFeulauut6qqtx///7w5kJiEqKJoUaZ+8z37Y7VZgmMlc38RKxcHBwcHBwcHBwcHBwcHBwcHBwcHBwcHBwcHBwcHBwcHB4TeAB4wRAcb4sx/GOjihfDk47trjMBx3Xr82FUJJ8OynsgVO/Mlw23zxTtDodwacsmc/nAUQMq02vQys3ir0dxssp5NOI0s8QDj1f6+MAZ12r4snUBv+Vj3SRT9FnpeUnzXXv1GPPBifSNEKP9bzb+JHCJb/fVX7J6KOFuTZD3wv6FRff92vA6WMS0VFkZHQYNpuab/y+stMlXY08QY0NSpEUWRfTTQ5Wv6i0MGDZAVWD1eUE5DgPdH1mhb4jEbgB2V+48kt42P02JO/3fGLeUBTsIU0vdoij1YYUz5p+yu0yPZKJXmdB51JNY5+QU7OFzLwzfIrhLMQP1UPyi4ir6DnaE7uco30TVp22QMjqUtzu7M2ojMUsV/utUjR2ur3a0I5qHGZPSo5ook+spr4Af3NsbyGypfwiL3KQ+W7/Li3L231T2vwhPMH/SHbwOcbZfWn5N3Uysiw5JHf3BnSKlxjVkot0i1EerOLQLRpKTPgUaFFoz/0+dmOTGa+jIogjjnfDkRk/vLftt9qNJrdzow+uYSk0JMZGS4hWVnG7pQEx5M2XTh9pozS1W9Mn4FA2tchnH1cNHX6T+x2ECiBVsYJCVuDMGyT2of8eJqbDSypMLLTEagrTb7450+qPtiXcaSQCKZnMtX7YXekGgFea/IUESm88rWNm/s1TbzROhDRgm3aUsiWhXvcj4m4d89KWcDXSr7aRnlPToK2lPoJaxGNdGzH0xHpY6qn0YHuG/LnVu5z1zNBXTizUxQQjInv5ybBA4yP08KrDyr6hy+27gs2/3apKR5Ao7JZuBK/rXlSARZ3bTppV5OJhVlueD/QN3xYuy1ZDjOyFyzRWgUrke3sxQoA51nXorAU/yt2JRIonCZF3ItBlRwWq0S6EnctJiumPateLedN6wU6OAJ9gEGhuRsVkbhejIQB9I7bhdZRfq/IZIo/IXWjhUqI5VWhrXFfWGmtIAnRcwfFNacCSlpFplIYfXur10UhtDFGZ8gL6hW09rGQEWbzenOMbnw3ckw4IwXlijyRMEJ36v9gaOT0U2sXvRTlvyfeCUazH9Mj3df1Ox2LyvfZrHUqY/fwIy+X07Z2k8Z4U1wI5vQwbOvdHO/9B7wcr4zU9XvVPSXFdsA4oYej1nHsWg8dCWvGG6395zCaGa10VJext7C7SBLWTHPwTOok4Tv1pjc2RVSsGW/3bE4h4eOfEDHAINGbl2BaSwdSjQtrbxs73F6t8vSxZQw2wajVsKVE8ooCPn8uC+AE/bql3gY/wOVamd2i4iFFHFrRIk57vUN5BIwsFdKcno2wJUft6x9K0jgPuMB9n0Lv3rGQWaEKzae9l+CM0spiM1h/DgfTfYXekyhJ52DhMSa2PTOCUTLrrBrJ7P6l0W2v8++NgjLcQuOdfYgLWaYtBbTyufLS0M9b5CIBwLzfj5yeR7lrqeB0H6aKB1gNcsnogxKnhk+Gwx+bvVFON1m0BIlann1DDFaiaSOVAV25Y8+RktT9UecYbW6+U3z5pi0/5M2YmoIC9z9OtTXerQfTzXQ2/BiPThhD25s0E1xAhiER27HWEsCF1ghpVmeRQ2UYDxmhZP6RlNleb3pDOzjRMHz7PtiMpWVIPxMBxnv/IvwFjC47iSZ312Mwh6sZ9otgnh3a6clIOmkU+z6CjD4BJ/RNNfT6V++LeU3V6OEwZbORG0X2oLaYjiv6BWMr1cVlRK3V0dVkjlt4/cF/4iL/bKxDWWV6zaSODqLFN5nPZtPNkms5G5nI9di8JiERBm1GmAgGNkxdQGlwLOM5J2xWTRzoqLoOKOqSU6nG2pVbA+nFzEmghO/mEqo1+IbuI/Dn44Sfh+jOZKinA7kWs90NbBYwy9v41JKVys0n3gCeh9PZ6Fw8gbpM2cgetdvOlAAkbJhJOBc32ZlKGMxRgCkSuifZic0ItzGyBf4gs5CHkG+oQ8iMjIfoHAPADC5Ev1IkS4DEYNWkzWKYEgvrELnAXUMJ5SJE6pqvVxaj6nE4WH91VlrO1oeeF0FeZjdDBnL1f3PCCilBNkKARcmDZMiy3fhx3iZyNn/fVqG+BX1L6VEzOihQnBtyQDEvNZMQL4Jjca62HLyeHgQSEDJsnIkIy7WRKgTS617NnATWFnuT7Jaj44cqmkgNboPL52ZqhNcSv8yxh5LqzJGXOjArLtgx+w55gXvcwEb9LYowTLcLusEgCakKQZpC2i+jaRhWT5jdmmRGmPl5QilIxPNe5lmrh1fQisGjMrDbNIIpdKqN2w+QGZk07bAd+SFEkjP5K9O/QHKfxdJAI0qp5BlQT81Ki4oqM02Ws5e8I7lxeHrtcnLxgQcHAlZKK8yHF2HcfkBPn+7N8gBf9Th+XI67Rv9dtyyGG70FHxFLqQtVof+ywB7GV/Uw0xodvtABElNHt/rnFDx4Lf49TKta559B8rAFKjaDXsHjDKjkVUte+u3YQ7zEAn1wmcvTD5F/mvEbAr1Zdop/FXyWGBmDAJZj6oemuRWfgr+/nShLviwrtFNUojd7yB5QKsF6R8PKtTsdDEdofp5Iq4AbMSyRozFiv3w/4rVw6cWsd4yt9TxTLHS6wkyZyMlP4gW1OiFViXP9kcuB3kSViiTDXP1zDpmBKEzhDevDUHmokWFZkQBTp4cyG2i4ruJP3tfBTURACu1B/ZccjzbsEZdkm+yBE3Og4SoqHLxKvm0akEuJlIxANq7FfLQqmzNNSahpHu60VHzdImpB0yFnWwVWmohRmLjpxxKInMAuKUqe0uEN75t2Y4NG1CawzzAneRo2AIrzDHBNDnWNkeGDvj0TCe8rrNwTgtCeRFoLTifnNAwL09ikU1ua7CHPfg1sIZubL7s7GAWXVppXh8neKm6vLX0Vqm6LVsfH0ifXoPk4MG8x+ECvn3MddhMrhW7F54/zeTjXDu+sb6tXsE5EhGadSEgg+Oc8KkR7HSme5qfgv3n50E4M6jIe5jtSCHLvkRYtjHpFeUEm6RSRc2hpi57TwAvKNQTBcQLEUcjgCtnuGKlkkHlKcIaEEObjv2LkWOVZiNhH+0p88OM1+J3g/jp9pJIhIZqYWESwqy9XSYftIdBb/hdjB5wuj2E9XTSEtg7REQpnijFud1sbHPpzInbKKxS5nVv04K9Bfxit54eLq3fbZWBdL5YsvpdyniUVA1kvgp2Kf7956Iw8tEb8g0CqUQKGeQawyBdmKtsFt4qCAIQSLQo0UmuloH1g3gauEPsYretryl9pKkRnPCytkaomyGcsFfalrg3nIwFxOiM8ElY1vTKfq4yBviGEwk7otX6bj0ed1OADYWKwpQWHVQXtQIYZQ9b5T5zK4ZRokGKjzSv3WbXY/ISUmy9xmp1OzCNLGWkH4oX4+M9xeR1NDA5ChcLsmKRleNuL74IgRB19DiN/yVePmfRl1iKuRO9TLCY5d4k1M0+Kac7oITnaHQTkastcabYkZUAe5wVxkGjnlzXb629RNFc2O41igwNipm+Pbdx3GHOxSBqcMAienCbvvUbjhB7c2CPt5vTXsufGJcDZ5jBOX71sjJFyKbl+Y6XzQYn9jUxTavj0ZJK1H6EvOeySV9QkZC+7YCmnZZUGOCzyWrKnTBfbFPlW8kw6zuSynPAKn8gFmXpeVjnAD7jU1PH0nFY+uyf8y/5R7ZdhE9lLECN/HsglWeLAmHj+jooQjNLDcLcNw3DbedsTteeJ+4ryjlw/tUfQ6xe8T/4OJBvemxst1HN28dVl9NA9FzD6oWRL1csbGPlBMfPCRebWJk4qyeENXa0G8fF0ba9X3i9w0c9lCOepJ+pEiY1+OMWJTVJ5SOZLgSdW3Itkx0UUON6XMfNS/R+Pv7Ht65w73NTos2Qj7bzE31Fz+rVJ9fFxOolP8I5Erew/q/rpHtLL6sdDsIX89LG8InJyYoWxCK1mvd48p+2PkwR9mtgkr8jiql3iL42gi2vbKwGrBa0wlcloRM0kESj4nMG7wNPTmQTbvfC0SSbzqrtU+dlnHL6bG1E681rLEG/0HqhNNVz6Xv2cXbWDcVRejxqD0eVbeHY6ktfrHpcnm7mJDP16u1TtZXiQiFYYomTG/16/VcNuf9RfheP39bd/ESN9GV5qWi+KSCe0LG12kyCIcjYag5B0rg6VmUxLO7WC4Y4hS4dRPxkUmeHey14LjEDFLWym+LMgaSW+Rgj8A0iILl9KRCSdFjLbLwBJJqPmcthYtX5ax7OQZDJbjP3Yn/wjVhpDTTPEtjbuQ6+uoIN+i4GcSHnNqe9PcIJl78z0MsBP2ZVZ2q8zewxq77PC559SYQQyP/0yoRL3Th8Fn+gFyevfE1DMO2QbI/x9X3ydD4xM/1XDzvBiuPqHIDrIf1c8BwcHBwcHBwcHBwcHBwcHBwcHBwcHBwcHBwcHBwcHB4cS43+rCZsfdISGMQAAAABJRU5ErkJggg==;" vertex="1" parent="1">
          <mxGeometry x="760" y="268.75" width="105" height="105" as="geometry" />
        </mxCell>
        <mxCell id="16x7G8k1rGI-6FZ7YI0F-6" value="Cloudwatch logs" style="text;html=1;align=center;verticalAlign=middle;whiteSpace=wrap;rounded=0;fillColor=none;strokeColor=none;fontSize=19;fontColor=#FF00FF;" vertex="1" parent="1">
          <mxGeometry x="782.5" y="390" width="60" height="30" as="geometry" />
        </mxCell>
      </root>
    </mxGraphModel>
  </diagram>
</mxfile>
